%FSLAX25Y25*%
%MOIN*%
G70*
G01*
G75*
G04 Layer_Color=16711935*
%ADD10R,0.06000X0.05000*%
%ADD11R,0.01772X0.01575*%
%ADD12C,0.02362*%
%ADD13C,0.00500*%
%ADD14C,0.01200*%
%ADD15C,0.01500*%
%ADD16C,0.01000*%
%ADD17C,0.00700*%
%ADD18C,0.01969*%
%ADD19C,0.03937*%
%ADD20C,0.11811*%
%ADD21C,0.02000*%
%ADD22C,0.03000*%
%ADD23C,0.01181*%
%ADD24C,0.02500*%
%ADD25C,0.02000*%
%ADD26C,0.01800*%
%ADD27C,0.04000*%
%ADD28C,0.02953*%
%ADD29C,0.05000*%
G04:AMPARAMS|DCode=30|XSize=39.95mil|YSize=37.83mil|CornerRadius=0mil|HoleSize=0mil|Usage=FLASHONLY|Rotation=45.000|XOffset=0mil|YOffset=0mil|HoleType=Round|Shape=Rectangle|*
%AMROTATEDRECTD30*
4,1,4,-0.00075,-0.02750,-0.02750,-0.00075,0.00075,0.02750,0.02750,0.00075,-0.00075,-0.02750,0.0*
%
%ADD30ROTATEDRECTD30*%

%ADD31R,0.05675X0.03500*%
G04:AMPARAMS|DCode=32|XSize=56.45mil|YSize=34.3mil|CornerRadius=0mil|HoleSize=0mil|Usage=FLASHONLY|Rotation=45.000|XOffset=0mil|YOffset=0mil|HoleType=Round|Shape=Rectangle|*
%AMROTATEDRECTD32*
4,1,4,-0.00783,-0.03208,-0.03208,-0.00783,0.00783,0.03208,0.03208,0.00783,-0.00783,-0.03208,0.0*
%
%ADD32ROTATEDRECTD32*%

%ADD33R,0.09875X0.04484*%
G04:AMPARAMS|DCode=34|XSize=28.19mil|YSize=14.85mil|CornerRadius=0mil|HoleSize=0mil|Usage=FLASHONLY|Rotation=45.000|XOffset=0mil|YOffset=0mil|HoleType=Round|Shape=Rectangle|*
%AMROTATEDRECTD34*
4,1,4,-0.00472,-0.01522,-0.01522,-0.00472,0.00472,0.01522,0.01522,0.00472,-0.00472,-0.01522,0.0*
%
%ADD34ROTATEDRECTD34*%

G04:AMPARAMS|DCode=35|XSize=16.97mil|YSize=36.77mil|CornerRadius=0mil|HoleSize=0mil|Usage=FLASHONLY|Rotation=45.000|XOffset=0mil|YOffset=0mil|HoleType=Round|Shape=Rectangle|*
%AMROTATEDRECTD35*
4,1,4,0.00700,-0.01900,-0.01900,0.00700,-0.00700,0.01900,0.01900,-0.00700,0.00700,-0.01900,0.0*
%
%ADD35ROTATEDRECTD35*%

%ADD36R,0.12600X0.04700*%
G04:AMPARAMS|DCode=37|XSize=41.72mil|YSize=19.61mil|CornerRadius=0mil|HoleSize=0mil|Usage=FLASHONLY|Rotation=45.000|XOffset=0mil|YOffset=0mil|HoleType=Round|Shape=Rectangle|*
%AMROTATEDRECTD37*
4,1,4,-0.00782,-0.02168,-0.02168,-0.00782,0.00782,0.02168,0.02168,0.00782,-0.00782,-0.02168,0.0*
%
%ADD37ROTATEDRECTD37*%

G04:AMPARAMS|DCode=38|XSize=20.86mil|YSize=37.15mil|CornerRadius=0mil|HoleSize=0mil|Usage=FLASHONLY|Rotation=45.000|XOffset=0mil|YOffset=0mil|HoleType=Round|Shape=Rectangle|*
%AMROTATEDRECTD38*
4,1,4,0.00576,-0.02051,-0.02051,0.00576,-0.00576,0.02051,0.02051,-0.00576,0.00576,-0.02051,0.0*
%
%ADD38ROTATEDRECTD38*%

%ADD39R,0.13700X0.04650*%
G04:AMPARAMS|DCode=40|XSize=45.9mil|YSize=34.29mil|CornerRadius=0mil|HoleSize=0mil|Usage=FLASHONLY|Rotation=45.000|XOffset=0mil|YOffset=0mil|HoleType=Round|Shape=Rectangle|*
%AMROTATEDRECTD40*
4,1,4,-0.00411,-0.02835,-0.02835,-0.00411,0.00411,0.02835,0.02835,0.00411,-0.00411,-0.02835,0.0*
%
%ADD40ROTATEDRECTD40*%

G04:AMPARAMS|DCode=41|XSize=21.21mil|YSize=44.19mil|CornerRadius=0mil|HoleSize=0mil|Usage=FLASHONLY|Rotation=45.000|XOffset=0mil|YOffset=0mil|HoleType=Round|Shape=Rectangle|*
%AMROTATEDRECTD41*
4,1,4,0.00812,-0.02312,-0.02312,0.00812,-0.00812,0.02312,0.02312,-0.00812,0.00812,-0.02312,0.0*
%
%ADD41ROTATEDRECTD41*%

%ADD42R,0.15900X0.04141*%
G04:AMPARAMS|DCode=43|XSize=19.91mil|YSize=40.5mil|CornerRadius=0mil|HoleSize=0mil|Usage=FLASHONLY|Rotation=45.000|XOffset=0mil|YOffset=0mil|HoleType=Round|Shape=Rectangle|*
%AMROTATEDRECTD43*
4,1,4,0.00728,-0.02136,-0.02136,0.00728,-0.00728,0.02136,0.02136,-0.00728,0.00728,-0.02136,0.0*
%
%ADD43ROTATEDRECTD43*%

%ADD44R,0.11436X0.03164*%
G04:AMPARAMS|DCode=45|XSize=50.91mil|YSize=50.91mil|CornerRadius=0mil|HoleSize=0mil|Usage=FLASHONLY|Rotation=45.000|XOffset=0mil|YOffset=0mil|HoleType=Round|Shape=Rectangle|*
%AMROTATEDRECTD45*
4,1,4,0.00000,-0.03600,-0.03600,0.00000,0.00000,0.03600,0.03600,0.00000,0.00000,-0.03600,0.0*
%
%ADD45ROTATEDRECTD45*%

G04:AMPARAMS|DCode=46|XSize=55.51mil|YSize=42.75mil|CornerRadius=0mil|HoleSize=0mil|Usage=FLASHONLY|Rotation=45.000|XOffset=0mil|YOffset=0mil|HoleType=Round|Shape=Rectangle|*
%AMROTATEDRECTD46*
4,1,4,-0.00451,-0.03474,-0.03474,-0.00451,0.00451,0.03474,0.03474,0.00451,-0.00451,-0.03474,0.0*
%
%ADD46ROTATEDRECTD46*%

%ADD47R,0.08050X0.07200*%
G04:AMPARAMS|DCode=48|XSize=24.37mil|YSize=44.08mil|CornerRadius=0mil|HoleSize=0mil|Usage=FLASHONLY|Rotation=45.000|XOffset=0mil|YOffset=0mil|HoleType=Round|Shape=Rectangle|*
%AMROTATEDRECTD48*
4,1,4,0.00697,-0.02420,-0.02420,0.00697,-0.00697,0.02420,0.02420,-0.00697,0.00697,-0.02420,0.0*
%
%ADD48ROTATEDRECTD48*%

%ADD49R,0.30653X0.03447*%
%ADD50R,0.19797X0.02000*%
G04:AMPARAMS|DCode=51|XSize=53.88mil|YSize=35.56mil|CornerRadius=0mil|HoleSize=0mil|Usage=FLASHONLY|Rotation=45.000|XOffset=0mil|YOffset=0mil|HoleType=Round|Shape=Rectangle|*
%AMROTATEDRECTD51*
4,1,4,-0.00647,-0.03162,-0.03162,-0.00647,0.00647,0.03162,0.03162,0.00647,-0.00647,-0.03162,0.0*
%
%ADD51ROTATEDRECTD51*%

G04:AMPARAMS|DCode=52|XSize=30.94mil|YSize=51.65mil|CornerRadius=0mil|HoleSize=0mil|Usage=FLASHONLY|Rotation=45.000|XOffset=0mil|YOffset=0mil|HoleType=Round|Shape=Rectangle|*
%AMROTATEDRECTD52*
4,1,4,0.00732,-0.02920,-0.02920,0.00732,-0.00732,0.02920,0.02920,-0.00732,0.00732,-0.02920,0.0*
%
%ADD52ROTATEDRECTD52*%

%ADD53R,0.16950X0.05119*%
G04:AMPARAMS|DCode=54|XSize=43.68mil|YSize=24.57mil|CornerRadius=0mil|HoleSize=0mil|Usage=FLASHONLY|Rotation=45.000|XOffset=0mil|YOffset=0mil|HoleType=Round|Shape=Rectangle|*
%AMROTATEDRECTD54*
4,1,4,-0.00676,-0.02413,-0.02413,-0.00676,0.00676,0.02413,0.02413,0.00676,-0.00676,-0.02413,0.0*
%
%ADD54ROTATEDRECTD54*%

G04:AMPARAMS|DCode=55|XSize=25.1mil|YSize=45.08mil|CornerRadius=0mil|HoleSize=0mil|Usage=FLASHONLY|Rotation=45.000|XOffset=0mil|YOffset=0mil|HoleType=Round|Shape=Rectangle|*
%AMROTATEDRECTD55*
4,1,4,0.00706,-0.02481,-0.02481,0.00706,-0.00706,0.02481,0.02481,-0.00706,0.00706,-0.02481,0.0*
%
%ADD55ROTATEDRECTD55*%

%ADD56R,0.15350X0.04267*%
G04:AMPARAMS|DCode=57|XSize=44.31mil|YSize=22.29mil|CornerRadius=0mil|HoleSize=0mil|Usage=FLASHONLY|Rotation=45.000|XOffset=0mil|YOffset=0mil|HoleType=Round|Shape=Rectangle|*
%AMROTATEDRECTD57*
4,1,4,-0.00778,-0.02355,-0.02355,-0.00778,0.00778,0.02355,0.02355,0.00778,-0.00778,-0.02355,0.0*
%
%ADD57ROTATEDRECTD57*%

G04:AMPARAMS|DCode=58|XSize=21.21mil|YSize=30.65mil|CornerRadius=0mil|HoleSize=0mil|Usage=FLASHONLY|Rotation=45.000|XOffset=0mil|YOffset=0mil|HoleType=Round|Shape=Rectangle|*
%AMROTATEDRECTD58*
4,1,4,0.00334,-0.01834,-0.01834,0.00334,-0.00334,0.01834,0.01834,-0.00334,0.00334,-0.01834,0.0*
%
%ADD58ROTATEDRECTD58*%

%ADD59R,0.16400X0.03444*%
G04:AMPARAMS|DCode=60|XSize=11.2mil|YSize=27.05mil|CornerRadius=0mil|HoleSize=0mil|Usage=FLASHONLY|Rotation=45.000|XOffset=0mil|YOffset=0mil|HoleType=Round|Shape=Rectangle|*
%AMROTATEDRECTD60*
4,1,4,0.00560,-0.01353,-0.01353,0.00560,-0.00560,0.01353,0.01353,-0.00560,0.00560,-0.01353,0.0*
%
%ADD60ROTATEDRECTD60*%

%ADD61R,0.15785X0.03225*%
G04:AMPARAMS|DCode=62|XSize=49.14mil|YSize=61.87mil|CornerRadius=0mil|HoleSize=0mil|Usage=FLASHONLY|Rotation=45.000|XOffset=0mil|YOffset=0mil|HoleType=Round|Shape=Rectangle|*
%AMROTATEDRECTD62*
4,1,4,0.00450,-0.03925,-0.03925,0.00450,-0.00450,0.03925,0.03925,-0.00450,0.00450,-0.03925,0.0*
%
%ADD62ROTATEDRECTD62*%

G04:AMPARAMS|DCode=63|XSize=54.09mil|YSize=54.09mil|CornerRadius=0mil|HoleSize=0mil|Usage=FLASHONLY|Rotation=45.000|XOffset=0mil|YOffset=0mil|HoleType=Round|Shape=Rectangle|*
%AMROTATEDRECTD63*
4,1,4,0.00000,-0.03825,-0.03825,0.00000,0.00000,0.03825,0.03825,0.00000,0.00000,-0.03825,0.0*
%
%ADD63ROTATEDRECTD63*%

%ADD64R,0.39400X0.07650*%
%ADD65R,0.03426X0.03425*%
G04:AMPARAMS|DCode=66|XSize=33.16mil|YSize=24.98mil|CornerRadius=0mil|HoleSize=0mil|Usage=FLASHONLY|Rotation=45.000|XOffset=0mil|YOffset=0mil|HoleType=Round|Shape=Rectangle|*
%AMROTATEDRECTD66*
4,1,4,-0.00289,-0.02056,-0.02056,-0.00289,0.00289,0.02056,0.02056,0.00289,-0.00289,-0.02056,0.0*
%
%ADD66ROTATEDRECTD66*%

G04:AMPARAMS|DCode=67|XSize=49.5mil|YSize=54.11mil|CornerRadius=0mil|HoleSize=0mil|Usage=FLASHONLY|Rotation=45.000|XOffset=0mil|YOffset=0mil|HoleType=Round|Shape=Rectangle|*
%AMROTATEDRECTD67*
4,1,4,0.00163,-0.03663,-0.03663,0.00163,-0.00163,0.03663,0.03663,-0.00163,0.00163,-0.03663,0.0*
%
%ADD67ROTATEDRECTD67*%

G04:AMPARAMS|DCode=68|XSize=61.52mil|YSize=32.44mil|CornerRadius=0mil|HoleSize=0mil|Usage=FLASHONLY|Rotation=45.000|XOffset=0mil|YOffset=0mil|HoleType=Round|Shape=Rectangle|*
%AMROTATEDRECTD68*
4,1,4,-0.01028,-0.03322,-0.03322,-0.01028,0.01028,0.03322,0.03322,0.01028,-0.01028,-0.03322,0.0*
%
%ADD68ROTATEDRECTD68*%

%ADD69R,0.08650X0.03851*%
%ADD70R,0.05100X0.06450*%
G04:AMPARAMS|DCode=71|XSize=49.72mil|YSize=59.41mil|CornerRadius=0mil|HoleSize=0mil|Usage=FLASHONLY|Rotation=45.000|XOffset=0mil|YOffset=0mil|HoleType=Round|Shape=Rectangle|*
%AMROTATEDRECTD71*
4,1,4,0.00342,-0.03858,-0.03858,0.00342,-0.00342,0.03858,0.03858,-0.00342,0.00342,-0.03858,0.0*
%
%ADD71ROTATEDRECTD71*%

G04:AMPARAMS|DCode=72|XSize=44.19mil|YSize=26.52mil|CornerRadius=0mil|HoleSize=0mil|Usage=FLASHONLY|Rotation=45.000|XOffset=0mil|YOffset=0mil|HoleType=Round|Shape=Rectangle|*
%AMROTATEDRECTD72*
4,1,4,-0.00625,-0.02500,-0.02500,-0.00625,0.00625,0.02500,0.02500,0.00625,-0.00625,-0.02500,0.0*
%
%ADD72ROTATEDRECTD72*%

%ADD73R,0.06550X0.04491*%
G04:AMPARAMS|DCode=74|XSize=30.68mil|YSize=19.45mil|CornerRadius=0mil|HoleSize=0mil|Usage=FLASHONLY|Rotation=45.000|XOffset=0mil|YOffset=0mil|HoleType=Round|Shape=Rectangle|*
%AMROTATEDRECTD74*
4,1,4,-0.00397,-0.01772,-0.01772,-0.00397,0.00397,0.01772,0.01772,0.00397,-0.00397,-0.01772,0.0*
%
%ADD74ROTATEDRECTD74*%

G04:AMPARAMS|DCode=75|XSize=12.5mil|YSize=30.89mil|CornerRadius=0mil|HoleSize=0mil|Usage=FLASHONLY|Rotation=45.000|XOffset=0mil|YOffset=0mil|HoleType=Round|Shape=Rectangle|*
%AMROTATEDRECTD75*
4,1,4,0.00650,-0.01534,-0.01534,0.00650,-0.00650,0.01534,0.01534,-0.00650,0.00650,-0.01534,0.0*
%
%ADD75ROTATEDRECTD75*%

%ADD76R,0.17800X0.03089*%
G04:AMPARAMS|DCode=77|XSize=38.54mil|YSize=34.81mil|CornerRadius=0mil|HoleSize=0mil|Usage=FLASHONLY|Rotation=45.000|XOffset=0mil|YOffset=0mil|HoleType=Round|Shape=Rectangle|*
%AMROTATEDRECTD77*
4,1,4,-0.00132,-0.02593,-0.02593,-0.00132,0.00132,0.02593,0.02593,0.00132,-0.00132,-0.02593,0.0*
%
%ADD77ROTATEDRECTD77*%

G04:AMPARAMS|DCode=78|XSize=22.1mil|YSize=41.64mil|CornerRadius=0mil|HoleSize=0mil|Usage=FLASHONLY|Rotation=45.000|XOffset=0mil|YOffset=0mil|HoleType=Round|Shape=Rectangle|*
%AMROTATEDRECTD78*
4,1,4,0.00691,-0.02254,-0.02254,0.00691,-0.00691,0.02254,0.02254,-0.00691,0.00691,-0.02254,0.0*
%
%ADD78ROTATEDRECTD78*%

%ADD79R,0.17425X0.04056*%
%ADD80R,0.20900X0.04218*%
G04:AMPARAMS|DCode=81|XSize=33.08mil|YSize=15.5mil|CornerRadius=0mil|HoleSize=0mil|Usage=FLASHONLY|Rotation=45.000|XOffset=0mil|YOffset=0mil|HoleType=Round|Shape=Rectangle|*
%AMROTATEDRECTD81*
4,1,4,-0.00622,-0.01718,-0.01718,-0.00622,0.00622,0.01718,0.01718,0.00622,-0.00622,-0.01718,0.0*
%
%ADD81ROTATEDRECTD81*%

G04:AMPARAMS|DCode=82|XSize=13.44mil|YSize=20.2mil|CornerRadius=0mil|HoleSize=0mil|Usage=FLASHONLY|Rotation=45.000|XOffset=0mil|YOffset=0mil|HoleType=Round|Shape=Rectangle|*
%AMROTATEDRECTD82*
4,1,4,0.00239,-0.01189,-0.01189,0.00239,-0.00239,0.01189,0.01189,-0.00239,0.00239,-0.01189,0.0*
%
%ADD82ROTATEDRECTD82*%

%ADD83R,0.20250X0.02924*%
G04:AMPARAMS|DCode=84|XSize=39.05mil|YSize=61.13mil|CornerRadius=0mil|HoleSize=0mil|Usage=FLASHONLY|Rotation=45.000|XOffset=0mil|YOffset=0mil|HoleType=Round|Shape=Rectangle|*
%AMROTATEDRECTD84*
4,1,4,0.00781,-0.03542,-0.03542,0.00781,-0.00781,0.03542,0.03542,-0.00781,0.00781,-0.03542,0.0*
%
%ADD84ROTATEDRECTD84*%

%ADD85R,0.04318X0.05741*%
G04:AMPARAMS|DCode=86|XSize=89.48mil|YSize=38.83mil|CornerRadius=0mil|HoleSize=0mil|Usage=FLASHONLY|Rotation=45.000|XOffset=0mil|YOffset=0mil|HoleType=Round|Shape=Rectangle|*
%AMROTATEDRECTD86*
4,1,4,-0.01791,-0.04536,-0.04536,-0.01791,0.01791,0.04536,0.04536,0.01791,-0.01791,-0.04536,0.0*
%
%ADD86ROTATEDRECTD86*%

%ADD87R,0.07950X0.05300*%
%ADD88R,0.15850X0.03600*%
%ADD89R,0.11050X0.05387*%
G04:AMPARAMS|DCode=90|XSize=55.16mil|YSize=28.83mil|CornerRadius=0mil|HoleSize=0mil|Usage=FLASHONLY|Rotation=45.000|XOffset=0mil|YOffset=0mil|HoleType=Round|Shape=Rectangle|*
%AMROTATEDRECTD90*
4,1,4,-0.00931,-0.02969,-0.02969,-0.00931,0.00931,0.02969,0.02969,0.00931,-0.00931,-0.02969,0.0*
%
%ADD90ROTATEDRECTD90*%

G04:AMPARAMS|DCode=91|XSize=23.5mil|YSize=54.19mil|CornerRadius=0mil|HoleSize=0mil|Usage=FLASHONLY|Rotation=45.000|XOffset=0mil|YOffset=0mil|HoleType=Round|Shape=Rectangle|*
%AMROTATEDRECTD91*
4,1,4,0.01085,-0.02747,-0.02747,0.01085,-0.01085,0.02747,0.02747,-0.01085,0.01085,-0.02747,0.0*
%
%ADD91ROTATEDRECTD91*%

%ADD92R,0.10810X0.04344*%
G04:AMPARAMS|DCode=93|XSize=26.24mil|YSize=43.76mil|CornerRadius=0mil|HoleSize=0mil|Usage=FLASHONLY|Rotation=45.000|XOffset=0mil|YOffset=0mil|HoleType=Round|Shape=Rectangle|*
%AMROTATEDRECTD93*
4,1,4,0.00620,-0.02475,-0.02475,0.00620,-0.00620,0.02475,0.02475,-0.00620,0.00620,-0.02475,0.0*
%
%ADD93ROTATEDRECTD93*%

G04:AMPARAMS|DCode=94|XSize=45.57mil|YSize=33.01mil|CornerRadius=0mil|HoleSize=0mil|Usage=FLASHONLY|Rotation=45.000|XOffset=0mil|YOffset=0mil|HoleType=Round|Shape=Rectangle|*
%AMROTATEDRECTD94*
4,1,4,-0.00444,-0.02778,-0.02778,-0.00444,0.00444,0.02778,0.02778,0.00444,-0.00444,-0.02778,0.0*
%
%ADD94ROTATEDRECTD94*%

%ADD95R,0.01800X0.03850*%
G04:AMPARAMS|DCode=96|XSize=41.49mil|YSize=32.01mil|CornerRadius=0mil|HoleSize=0mil|Usage=FLASHONLY|Rotation=45.000|XOffset=0mil|YOffset=0mil|HoleType=Round|Shape=Rectangle|*
%AMROTATEDRECTD96*
4,1,4,-0.00335,-0.02599,-0.02599,-0.00335,0.00335,0.02599,0.02599,0.00335,-0.00335,-0.02599,0.0*
%
%ADD96ROTATEDRECTD96*%

G04:AMPARAMS|DCode=97|XSize=26.36mil|YSize=39.33mil|CornerRadius=0mil|HoleSize=0mil|Usage=FLASHONLY|Rotation=45.000|XOffset=0mil|YOffset=0mil|HoleType=Round|Shape=Rectangle|*
%AMROTATEDRECTD97*
4,1,4,0.00459,-0.02323,-0.02323,0.00459,-0.00459,0.02323,0.02323,-0.00459,0.00459,-0.02323,0.0*
%
%ADD97ROTATEDRECTD97*%

%ADD98R,0.01700X0.02811*%
%ADD99C,0.00800*%
%ADD100R,0.23050X0.04550*%
%ADD101R,0.04724X0.01181*%
%ADD102R,0.01181X0.04724*%
%ADD103O,0.04724X0.01181*%
%ADD104R,0.22441X0.22441*%
%ADD105R,0.23622X0.05118*%
G04:AMPARAMS|DCode=106|XSize=51.18mil|YSize=236.22mil|CornerRadius=0mil|HoleSize=0mil|Usage=FLASHONLY|Rotation=90.000|XOffset=0mil|YOffset=0mil|HoleType=Round|Shape=Octagon|*
%AMOCTAGOND106*
4,1,8,-0.11811,-0.01280,-0.11811,0.01280,-0.10531,0.02559,0.10531,0.02559,0.11811,0.01280,0.11811,-0.01280,0.10531,-0.02559,-0.10531,-0.02559,-0.11811,-0.01280,0.0*
%
%ADD106OCTAGOND106*%

%ADD107O,0.05906X0.01378*%
%ADD108R,0.05906X0.01378*%
%ADD109O,0.05906X0.01378*%
%ADD110O,0.05906X0.01378*%
%ADD111O,0.08000X0.02400*%
%ADD112R,0.14173X0.06299*%
%ADD113R,0.06693X0.05906*%
%ADD114C,0.28740*%
%ADD115C,0.27559*%
%ADD116R,0.39370X0.07874*%
%ADD117R,0.03500X0.03000*%
%ADD118R,0.03000X0.03500*%
%ADD119C,0.03937*%
%ADD120C,0.01300*%
%ADD121C,0.02400*%
%ADD122R,0.05550X0.05400*%
%ADD123R,0.06500X0.02000*%
%ADD124R,0.07200X0.02050*%
G04:AMPARAMS|DCode=125|XSize=23.91mil|YSize=11.89mil|CornerRadius=0mil|HoleSize=0mil|Usage=FLASHONLY|Rotation=45.000|XOffset=0mil|YOffset=0mil|HoleType=Round|Shape=Rectangle|*
%AMROTATEDRECTD125*
4,1,4,-0.00425,-0.01266,-0.01266,-0.00425,0.00425,0.01266,0.01266,0.00425,-0.00425,-0.01266,0.0*
%
%ADD125ROTATEDRECTD125*%

%ADD126R,0.03650X0.01800*%
%ADD127R,0.05300X0.03650*%
G04:AMPARAMS|DCode=128|XSize=59.94mil|YSize=16.36mil|CornerRadius=0mil|HoleSize=0mil|Usage=FLASHONLY|Rotation=45.000|XOffset=0mil|YOffset=0mil|HoleType=Round|Shape=Rectangle|*
%AMROTATEDRECTD128*
4,1,4,-0.01541,-0.02698,-0.02698,-0.01541,0.01541,0.02698,0.02698,0.01541,-0.01541,-0.02698,0.0*
%
%ADD128ROTATEDRECTD128*%

G04:AMPARAMS|DCode=129|XSize=26.34mil|YSize=9.75mil|CornerRadius=0mil|HoleSize=0mil|Usage=FLASHONLY|Rotation=45.000|XOffset=0mil|YOffset=0mil|HoleType=Round|Shape=Rectangle|*
%AMROTATEDRECTD129*
4,1,4,-0.00587,-0.01276,-0.01276,-0.00587,0.00587,0.01276,0.01276,0.00587,-0.00587,-0.01276,0.0*
%
%ADD129ROTATEDRECTD129*%

%ADD130R,0.03700X0.01700*%
G04:AMPARAMS|DCode=131|XSize=51mil|YSize=30.5mil|CornerRadius=0mil|HoleSize=0mil|Usage=FLASHONLY|Rotation=45.000|XOffset=0mil|YOffset=0mil|HoleType=Round|Shape=Rectangle|*
%AMROTATEDRECTD131*
4,1,4,-0.00725,-0.02881,-0.02881,-0.00725,0.00725,0.02881,0.02881,0.00725,-0.00725,-0.02881,0.0*
%
%ADD131ROTATEDRECTD131*%

G04:AMPARAMS|DCode=132|XSize=75.31mil|YSize=40.5mil|CornerRadius=0mil|HoleSize=0mil|Usage=FLASHONLY|Rotation=45.000|XOffset=0mil|YOffset=0mil|HoleType=Round|Shape=Rectangle|*
%AMROTATEDRECTD132*
4,1,4,-0.01231,-0.04094,-0.04094,-0.01231,0.01231,0.04094,0.04094,0.01231,-0.01231,-0.04094,0.0*
%
%ADD132ROTATEDRECTD132*%

%ADD133R,0.06366X0.06084*%
G04:AMPARAMS|DCode=134|XSize=71.71mil|YSize=36.31mil|CornerRadius=0mil|HoleSize=0mil|Usage=FLASHONLY|Rotation=45.000|XOffset=0mil|YOffset=0mil|HoleType=Round|Shape=Rectangle|*
%AMROTATEDRECTD134*
4,1,4,-0.01252,-0.03819,-0.03819,-0.01252,0.01252,0.03819,0.03819,0.01252,-0.01252,-0.03819,0.0*
%
%ADD134ROTATEDRECTD134*%

%ADD135R,0.03850X0.09550*%
%ADD136R,0.04100X0.02600*%
G04:AMPARAMS|DCode=137|XSize=42.63mil|YSize=34.98mil|CornerRadius=0mil|HoleSize=0mil|Usage=FLASHONLY|Rotation=45.000|XOffset=0mil|YOffset=0mil|HoleType=Round|Shape=Rectangle|*
%AMROTATEDRECTD137*
4,1,4,-0.00270,-0.02744,-0.02744,-0.00270,0.00270,0.02744,0.02744,0.00270,-0.00270,-0.02744,0.0*
%
%ADD137ROTATEDRECTD137*%

%ADD138R,0.03800X0.06700*%
G04:AMPARAMS|DCode=139|XSize=76.72mil|YSize=39.96mil|CornerRadius=0mil|HoleSize=0mil|Usage=FLASHONLY|Rotation=45.000|XOffset=0mil|YOffset=0mil|HoleType=Round|Shape=Rectangle|*
%AMROTATEDRECTD139*
4,1,4,-0.01300,-0.04125,-0.04125,-0.01300,0.01300,0.04125,0.04125,0.01300,-0.01300,-0.04125,0.0*
%
%ADD139ROTATEDRECTD139*%

%ADD140R,0.01400X0.01150*%
G04:AMPARAMS|DCode=141|XSize=16.62mil|YSize=18.03mil|CornerRadius=0mil|HoleSize=0mil|Usage=FLASHONLY|Rotation=45.000|XOffset=0mil|YOffset=0mil|HoleType=Round|Shape=Rectangle|*
%AMROTATEDRECTD141*
4,1,4,0.00050,-0.01225,-0.01225,0.00050,-0.00050,0.01225,0.01225,-0.00050,0.00050,-0.01225,0.0*
%
%ADD141ROTATEDRECTD141*%

G04:AMPARAMS|DCode=142|XSize=36.42mil|YSize=74.95mil|CornerRadius=0mil|HoleSize=0mil|Usage=FLASHONLY|Rotation=45.000|XOffset=0mil|YOffset=0mil|HoleType=Round|Shape=Rectangle|*
%AMROTATEDRECTD142*
4,1,4,0.01363,-0.03938,-0.03938,0.01363,-0.01363,0.03938,0.03938,-0.01363,0.01363,-0.03938,0.0*
%
%ADD142ROTATEDRECTD142*%

%ADD143R,0.03350X0.01200*%
%ADD144R,0.00950X0.00950*%
G04:AMPARAMS|DCode=145|XSize=15.2mil|YSize=20.51mil|CornerRadius=0mil|HoleSize=0mil|Usage=FLASHONLY|Rotation=45.000|XOffset=0mil|YOffset=0mil|HoleType=Round|Shape=Rectangle|*
%AMROTATEDRECTD145*
4,1,4,0.00188,-0.01263,-0.01263,0.00188,-0.00188,0.01263,0.01263,-0.00188,0.00188,-0.01263,0.0*
%
%ADD145ROTATEDRECTD145*%

G04:AMPARAMS|DCode=146|XSize=10.26mil|YSize=9.19mil|CornerRadius=0mil|HoleSize=0mil|Usage=FLASHONLY|Rotation=45.000|XOffset=0mil|YOffset=0mil|HoleType=Round|Shape=Rectangle|*
%AMROTATEDRECTD146*
4,1,4,-0.00038,-0.00688,-0.00688,-0.00038,0.00038,0.00688,0.00688,0.00038,-0.00038,-0.00688,0.0*
%
%ADD146ROTATEDRECTD146*%

%ADD147R,0.11900X0.04050*%
%ADD148R,0.07050X0.04550*%
%ADD149R,0.10850X0.05500*%
%ADD150R,0.02800X0.02050*%
G04:AMPARAMS|DCode=151|XSize=57.98mil|YSize=72.83mil|CornerRadius=0mil|HoleSize=0mil|Usage=FLASHONLY|Rotation=45.000|XOffset=0mil|YOffset=0mil|HoleType=Round|Shape=Rectangle|*
%AMROTATEDRECTD151*
4,1,4,0.00525,-0.04625,-0.04625,0.00525,-0.00525,0.04625,0.04625,-0.00525,0.00525,-0.04625,0.0*
%
%ADD151ROTATEDRECTD151*%

%ADD152R,0.03200X0.02000*%
G04:AMPARAMS|DCode=153|XSize=26.75mil|YSize=44.55mil|CornerRadius=0mil|HoleSize=0mil|Usage=FLASHONLY|Rotation=45.000|XOffset=0mil|YOffset=0mil|HoleType=Round|Shape=Rectangle|*
%AMROTATEDRECTD153*
4,1,4,0.00629,-0.02521,-0.02521,0.00629,-0.00629,0.02521,0.02521,-0.00629,0.00629,-0.02521,0.0*
%
%ADD153ROTATEDRECTD153*%

%ADD154R,0.10100X0.05150*%
%ADD155R,0.02875X0.02875*%
G04:AMPARAMS|DCode=156|XSize=40.66mil|YSize=26.52mil|CornerRadius=0mil|HoleSize=0mil|Usage=FLASHONLY|Rotation=45.000|XOffset=0mil|YOffset=0mil|HoleType=Round|Shape=Rectangle|*
%AMROTATEDRECTD156*
4,1,4,-0.00500,-0.02375,-0.02375,-0.00500,0.00500,0.02375,0.02375,0.00500,-0.00500,-0.02375,0.0*
%
%ADD156ROTATEDRECTD156*%

%ADD157R,0.05800X0.05050*%
%ADD158R,0.04300X0.05500*%
G04:AMPARAMS|DCode=159|XSize=32.5mil|YSize=23.72mil|CornerRadius=0mil|HoleSize=0mil|Usage=FLASHONLY|Rotation=45.000|XOffset=0mil|YOffset=0mil|HoleType=Round|Shape=Rectangle|*
%AMROTATEDRECTD159*
4,1,4,-0.00310,-0.01988,-0.01988,-0.00310,0.00310,0.01988,0.01988,0.00310,-0.00310,-0.01988,0.0*
%
%ADD159ROTATEDRECTD159*%

G04:AMPARAMS|DCode=160|XSize=60.46mil|YSize=29.46mil|CornerRadius=0mil|HoleSize=0mil|Usage=FLASHONLY|Rotation=45.000|XOffset=0mil|YOffset=0mil|HoleType=Round|Shape=Rectangle|*
%AMROTATEDRECTD160*
4,1,4,-0.01096,-0.03179,-0.03179,-0.01096,0.01096,0.03179,0.03179,0.01096,-0.01096,-0.03179,0.0*
%
%ADD160ROTATEDRECTD160*%

G04:AMPARAMS|DCode=161|XSize=39.95mil|YSize=17.32mil|CornerRadius=0mil|HoleSize=0mil|Usage=FLASHONLY|Rotation=45.000|XOffset=0mil|YOffset=0mil|HoleType=Round|Shape=Rectangle|*
%AMROTATEDRECTD161*
4,1,4,-0.00800,-0.02025,-0.02025,-0.00800,0.00800,0.02025,0.02025,0.00800,-0.00800,-0.02025,0.0*
%
%ADD161ROTATEDRECTD161*%

%ADD162R,0.03250X0.01400*%
%ADD163R,0.08800X0.04350*%
G04:AMPARAMS|DCode=164|XSize=60.08mil|YSize=31.97mil|CornerRadius=0mil|HoleSize=0mil|Usage=FLASHONLY|Rotation=45.000|XOffset=0mil|YOffset=0mil|HoleType=Round|Shape=Rectangle|*
%AMROTATEDRECTD164*
4,1,4,-0.00994,-0.03255,-0.03255,-0.00994,0.00994,0.03255,0.03255,0.00994,-0.00994,-0.03255,0.0*
%
%ADD164ROTATEDRECTD164*%

%ADD165R,0.10800X0.04197*%
G04:AMPARAMS|DCode=166|XSize=121.95mil|YSize=27mil|CornerRadius=0mil|HoleSize=0mil|Usage=FLASHONLY|Rotation=45.000|XOffset=0mil|YOffset=0mil|HoleType=Round|Shape=Rectangle|*
%AMROTATEDRECTD166*
4,1,4,-0.03357,-0.05266,-0.05266,-0.03357,0.03357,0.05266,0.05266,0.03357,-0.03357,-0.05266,0.0*
%
%ADD166ROTATEDRECTD166*%

G04:AMPARAMS|DCode=167|XSize=73.2mil|YSize=30.03mil|CornerRadius=0mil|HoleSize=0mil|Usage=FLASHONLY|Rotation=45.000|XOffset=0mil|YOffset=0mil|HoleType=Round|Shape=Rectangle|*
%AMROTATEDRECTD167*
4,1,4,-0.01526,-0.03650,-0.03650,-0.01526,0.01526,0.03650,0.03650,0.01526,-0.01526,-0.03650,0.0*
%
%ADD167ROTATEDRECTD167*%

%ADD168R,0.03500X0.03739*%
G04:AMPARAMS|DCode=169|XSize=50.28mil|YSize=115.53mil|CornerRadius=0mil|HoleSize=0mil|Usage=FLASHONLY|Rotation=45.000|XOffset=0mil|YOffset=0mil|HoleType=Round|Shape=Rectangle|*
%AMROTATEDRECTD169*
4,1,4,0.02307,-0.05863,-0.05863,0.02307,-0.02307,0.05863,0.05863,-0.02307,0.02307,-0.05863,0.0*
%
%ADD169ROTATEDRECTD169*%

%ADD170R,0.03000X0.01400*%
G04:AMPARAMS|DCode=171|XSize=88.39mil|YSize=26.16mil|CornerRadius=0mil|HoleSize=0mil|Usage=FLASHONLY|Rotation=45.000|XOffset=0mil|YOffset=0mil|HoleType=Round|Shape=Rectangle|*
%AMROTATEDRECTD171*
4,1,4,-0.02200,-0.04050,-0.04050,-0.02200,0.02200,0.04050,0.04050,0.02200,-0.02200,-0.04050,0.0*
%
%ADD171ROTATEDRECTD171*%

%ADD172R,0.01500X0.00850*%
%ADD173R,0.02950X0.00550*%
%ADD174R,0.04495X0.00539*%
%ADD175R,0.05033X0.00267*%
%ADD176R,0.11325X0.03675*%
G04:AMPARAMS|DCode=177|XSize=16.5mil|YSize=27.4mil|CornerRadius=0mil|HoleSize=0mil|Usage=FLASHONLY|Rotation=45.000|XOffset=0mil|YOffset=0mil|HoleType=Round|Shape=Rectangle|*
%AMROTATEDRECTD177*
4,1,4,0.00385,-0.01552,-0.01552,0.00385,-0.00385,0.01552,0.01552,-0.00385,0.00385,-0.01552,0.0*
%
%ADD177ROTATEDRECTD177*%

G04:AMPARAMS|DCode=178|XSize=33.59mil|YSize=16.58mil|CornerRadius=0mil|HoleSize=0mil|Usage=FLASHONLY|Rotation=45.000|XOffset=0mil|YOffset=0mil|HoleType=Round|Shape=Rectangle|*
%AMROTATEDRECTD178*
4,1,4,-0.00601,-0.01774,-0.01774,-0.00601,0.00601,0.01774,0.01774,0.00601,-0.00601,-0.01774,0.0*
%
%ADD178ROTATEDRECTD178*%

%ADD179R,0.01938X0.01738*%
%ADD180R,0.09700X0.04050*%
%ADD181R,0.11490X0.04244*%
G04:AMPARAMS|DCode=182|XSize=8.9mil|YSize=45.61mil|CornerRadius=0mil|HoleSize=0mil|Usage=FLASHONLY|Rotation=45.000|XOffset=0mil|YOffset=0mil|HoleType=Round|Shape=Rectangle|*
%AMROTATEDRECTD182*
4,1,4,0.01298,-0.01927,-0.01927,0.01298,-0.01298,0.01927,0.01927,-0.01298,0.01298,-0.01927,0.0*
%
%ADD182ROTATEDRECTD182*%

G04:AMPARAMS|DCode=183|XSize=14.86mil|YSize=45.02mil|CornerRadius=0mil|HoleSize=0mil|Usage=FLASHONLY|Rotation=45.000|XOffset=0mil|YOffset=0mil|HoleType=Round|Shape=Rectangle|*
%AMROTATEDRECTD183*
4,1,4,0.01066,-0.02117,-0.02117,0.01066,-0.01066,0.02117,0.02117,-0.01066,0.01066,-0.02117,0.0*
%
%ADD183ROTATEDRECTD183*%

G04:AMPARAMS|DCode=184|XSize=76.01mil|YSize=41.72mil|CornerRadius=0mil|HoleSize=0mil|Usage=FLASHONLY|Rotation=45.000|XOffset=0mil|YOffset=0mil|HoleType=Round|Shape=Rectangle|*
%AMROTATEDRECTD184*
4,1,4,-0.01213,-0.04163,-0.04163,-0.01213,0.01213,0.04163,0.04163,0.01213,-0.01213,-0.04163,0.0*
%
%ADD184ROTATEDRECTD184*%

%ADD185R,0.11350X0.03407*%
G04:AMPARAMS|DCode=186|XSize=88.04mil|YSize=26.16mil|CornerRadius=0mil|HoleSize=0mil|Usage=FLASHONLY|Rotation=45.000|XOffset=0mil|YOffset=0mil|HoleType=Round|Shape=Rectangle|*
%AMROTATEDRECTD186*
4,1,4,-0.02188,-0.04038,-0.04038,-0.02188,0.02188,0.04038,0.04038,0.02188,-0.02188,-0.04038,0.0*
%
%ADD186ROTATEDRECTD186*%

%ADD187R,0.16950X0.05250*%
%ADD188R,0.26650X0.05100*%
%ADD189R,0.80250X0.04000*%
%ADD190R,0.05065X0.05200*%
%ADD191R,0.04215X0.07050*%
%ADD192R,0.05550X0.02200*%
%ADD193R,0.05250X0.02300*%
%ADD194R,0.04600X0.01828*%
%ADD195R,0.06250X0.02250*%
%ADD196R,0.09700X0.01850*%
%ADD197R,0.09825X0.01900*%
%ADD198R,0.07500X0.02050*%
%ADD199R,0.08400X0.02100*%
%ADD200R,0.04500X0.00950*%
%ADD201R,0.04600X0.02000*%
%ADD202R,0.06196X0.01600*%
%ADD203R,0.10850X0.04600*%
%ADD204R,0.11300X0.04300*%
%ADD205R,0.04350X0.05935*%
%ADD206R,0.04683X0.08778*%
%ADD207R,0.04632X0.06500*%
%ADD208R,0.03150X0.05678*%
%ADD209R,0.03950X0.07450*%
%ADD210R,0.05350X0.05600*%
%ADD211R,0.02250X0.08900*%
%ADD212R,0.04250X0.06950*%
%ADD213R,0.04550X0.06750*%
%ADD214R,0.03400X0.09050*%
%ADD215R,0.03813X0.15800*%
%ADD216R,0.05250X0.16900*%
%ADD217R,0.04650X0.17300*%
%ADD218R,0.04000X0.20100*%
%ADD219R,0.61500X0.03450*%
%ADD220R,0.61650X0.03500*%
%ADD221R,0.04750X0.08300*%
%ADD222R,0.04450X0.07622*%
%ADD223R,0.03800X0.08372*%
%ADD224R,0.03795X0.03650*%
%ADD225R,0.04100X0.08100*%
%ADD226R,0.04200X0.08300*%
%ADD227R,0.02050X0.07500*%
%ADD228R,0.15200X0.02400*%
%ADD229R,0.17441X0.01950*%
%ADD230R,0.16294X0.01600*%
%ADD231R,0.03300X0.02700*%
%ADD232R,0.04300X0.49800*%
%ADD233R,0.01800X0.02300*%
%ADD234R,0.03775X0.01225*%
%ADD235C,0.00200*%
%ADD236C,0.00787*%
%ADD237C,0.00600*%
%ADD238R,0.06800X0.05800*%
%ADD239R,0.02572X0.02375*%
%ADD240C,0.03162*%
%ADD241C,0.02769*%
%ADD242C,0.04737*%
%ADD243C,0.12611*%
%ADD244C,0.02800*%
%ADD245C,0.05906*%
%ADD246R,0.05524X0.01981*%
%ADD247R,0.01981X0.05524*%
%ADD248O,0.05524X0.01981*%
%ADD249R,0.24422X0.05918*%
G04:AMPARAMS|DCode=250|XSize=59.18mil|YSize=244.22mil|CornerRadius=0mil|HoleSize=0mil|Usage=FLASHONLY|Rotation=90.000|XOffset=0mil|YOffset=0mil|HoleType=Round|Shape=Octagon|*
%AMOCTAGOND250*
4,1,8,-0.12211,-0.01480,-0.12211,0.01480,-0.10731,0.02959,0.10731,0.02959,0.12211,0.01480,0.12211,-0.01480,0.10731,-0.02959,-0.10731,-0.02959,-0.12211,-0.01480,0.0*
%
%ADD250OCTAGOND250*%

%ADD251O,0.06706X0.02178*%
%ADD252R,0.06706X0.02178*%
%ADD253O,0.06706X0.02178*%
%ADD254O,0.06706X0.02178*%
%ADD255O,0.08800X0.03200*%
%ADD256R,0.14973X0.07099*%
%ADD257R,0.07493X0.06706*%
%ADD258C,0.29540*%
%ADD259C,0.28359*%
%ADD260R,0.40170X0.08674*%
%ADD261R,0.04300X0.03800*%
%ADD262R,0.03800X0.04300*%
D238*
X847500Y845000D02*
D03*
X838500D02*
D03*
Y835000D02*
D03*
X847500D02*
D03*
X808400Y825315D02*
D03*
X799400D02*
D03*
X557795Y362716D02*
D03*
X799400Y441457D02*
D03*
X799400Y431614D02*
D03*
X799400Y480827D02*
D03*
Y470984D02*
D03*
X799400Y559567D02*
D03*
Y549724D02*
D03*
Y520197D02*
D03*
Y510354D02*
D03*
X548795Y411929D02*
D03*
X548795Y402086D02*
D03*
X548795Y362716D02*
D03*
X548795Y333189D02*
D03*
Y323346D02*
D03*
Y293819D02*
D03*
X525500Y294000D02*
D03*
X548795Y372559D02*
D03*
X808400Y559567D02*
D03*
Y549724D02*
D03*
Y539882D02*
D03*
X799400D02*
D03*
X808400Y530039D02*
D03*
X799400D02*
D03*
X808400Y520197D02*
D03*
Y510354D02*
D03*
X808400Y500512D02*
D03*
X799400D02*
D03*
X808400Y490669D02*
D03*
X799400D02*
D03*
X808400Y480827D02*
D03*
Y470984D02*
D03*
Y461142D02*
D03*
X799400D02*
D03*
X808400Y451299D02*
D03*
X799400D02*
D03*
X808400Y441457D02*
D03*
X808400Y431614D02*
D03*
X808400Y421772D02*
D03*
X799400D02*
D03*
X808400Y411929D02*
D03*
X799400D02*
D03*
X557795Y411929D02*
D03*
X557795Y402086D02*
D03*
Y392244D02*
D03*
X548795D02*
D03*
X557795Y382401D02*
D03*
X548795D02*
D03*
X557795Y372559D02*
D03*
Y352874D02*
D03*
X548795D02*
D03*
X557795Y343031D02*
D03*
X548795D02*
D03*
X557795Y333189D02*
D03*
Y323346D02*
D03*
Y313504D02*
D03*
X548795D02*
D03*
X557795Y303661D02*
D03*
X548795D02*
D03*
X557795Y293819D02*
D03*
X516500Y294000D02*
D03*
Y304000D02*
D03*
X525500D02*
D03*
X516500Y313000D02*
D03*
X525500D02*
D03*
X557795Y726890D02*
D03*
X548795D02*
D03*
X621858Y762922D02*
D03*
X630858D02*
D03*
X621858Y752922D02*
D03*
Y742922D02*
D03*
X630858D02*
D03*
X621858Y772922D02*
D03*
X630858D02*
D03*
X847500Y825000D02*
D03*
X838500D02*
D03*
X799500Y835000D02*
D03*
X808500D02*
D03*
X548795Y717047D02*
D03*
X557795D02*
D03*
X548795Y707205D02*
D03*
X557795D02*
D03*
X548795Y697362D02*
D03*
X557795D02*
D03*
X548795Y687520D02*
D03*
X557795D02*
D03*
X548795Y667835D02*
D03*
X557795D02*
D03*
X548795Y648150D02*
D03*
X557795D02*
D03*
X548795Y638307D02*
D03*
X557795D02*
D03*
X548795Y628465D02*
D03*
X557795D02*
D03*
X548795Y618622D02*
D03*
X557795D02*
D03*
X548795Y608779D02*
D03*
X557795D02*
D03*
X548795Y598937D02*
D03*
X557795D02*
D03*
X548795Y589094D02*
D03*
X557795D02*
D03*
X548795Y677677D02*
D03*
X557795D02*
D03*
X548795Y657992D02*
D03*
X557795D02*
D03*
X548795Y579484D02*
D03*
X557795D02*
D03*
X630858Y752922D02*
D03*
X799400Y726890D02*
D03*
Y736732D02*
D03*
Y756417D02*
D03*
X799400Y746575D02*
D03*
X799400Y766260D02*
D03*
Y776102D02*
D03*
Y795787D02*
D03*
Y785945D02*
D03*
Y805630D02*
D03*
Y815472D02*
D03*
Y845000D02*
D03*
X808400D02*
D03*
Y815472D02*
D03*
Y805630D02*
D03*
Y795787D02*
D03*
Y785945D02*
D03*
Y776102D02*
D03*
Y766260D02*
D03*
Y756417D02*
D03*
X808400Y746575D02*
D03*
X808400Y736732D02*
D03*
Y726890D02*
D03*
D240*
X453450Y756250D02*
D03*
X945100Y293350D02*
D03*
D241*
X729567Y276291D02*
D03*
X443937Y280228D02*
D03*
X1015197D02*
D03*
Y854638D02*
D03*
X443937D02*
D03*
X729567Y858268D02*
D03*
D242*
X1046102Y307993D02*
D03*
Y302087D02*
D03*
Y296182D02*
D03*
Y290276D02*
D03*
Y284370D02*
D03*
Y278465D02*
D03*
Y272559D02*
D03*
Y266654D02*
D03*
Y260748D02*
D03*
Y254843D02*
D03*
Y826874D02*
D03*
Y832779D02*
D03*
Y838685D02*
D03*
Y844590D02*
D03*
Y850496D02*
D03*
Y856401D02*
D03*
Y862307D02*
D03*
Y868212D02*
D03*
Y874118D02*
D03*
Y880023D02*
D03*
X413031Y307993D02*
D03*
Y302087D02*
D03*
Y296182D02*
D03*
Y290276D02*
D03*
Y284370D02*
D03*
Y278465D02*
D03*
Y272559D02*
D03*
Y266654D02*
D03*
Y260748D02*
D03*
Y254843D02*
D03*
Y826874D02*
D03*
Y832779D02*
D03*
Y838685D02*
D03*
Y844590D02*
D03*
Y850496D02*
D03*
Y856401D02*
D03*
Y862307D02*
D03*
Y868212D02*
D03*
Y874118D02*
D03*
Y880023D02*
D03*
X408850Y335950D02*
D03*
X1050200Y817950D02*
D03*
D243*
X1057913Y331410D02*
D03*
Y803457D02*
D03*
X401221Y331410D02*
D03*
Y803457D02*
D03*
D244*
X730050Y875150D02*
D03*
X710050Y855800D02*
D03*
X749150Y265450D02*
D03*
X730000Y303750D02*
D03*
X446300Y263150D02*
D03*
X445950Y302200D02*
D03*
X1016769Y262531D02*
D03*
X1016700Y302300D02*
D03*
X572150Y402500D02*
D03*
X581900Y372450D02*
D03*
X581700Y382050D02*
D03*
X680050Y399700D02*
D03*
X867550Y460400D02*
D03*
X857750Y460500D02*
D03*
X827701Y470614D02*
D03*
X847300Y470600D02*
D03*
X866928Y479750D02*
D03*
X857085D02*
D03*
X847243D02*
D03*
X837400D02*
D03*
X788800Y569600D02*
D03*
X797250Y576150D02*
D03*
X532350Y322100D02*
D03*
X542700Y560500D02*
D03*
X847800Y795350D02*
D03*
X897150Y295200D02*
D03*
X631000Y501500D02*
D03*
X679150Y538600D02*
D03*
X563100Y539350D02*
D03*
X562500Y530850D02*
D03*
X641300D02*
D03*
X591450Y823850D02*
D03*
X581850Y824600D02*
D03*
X580900Y795000D02*
D03*
X600787Y810484D02*
D03*
X580350Y814250D02*
D03*
X600787Y820326D02*
D03*
X671050Y825400D02*
D03*
X669100Y823450D02*
D03*
X650000Y820326D02*
D03*
X996550Y499650D02*
D03*
X996600Y814550D02*
D03*
X995300Y489800D02*
D03*
X769000Y804650D02*
D03*
X641150Y451750D02*
D03*
X444450Y452500D02*
D03*
X453950Y795000D02*
D03*
X631500Y461500D02*
D03*
X453750Y462750D02*
D03*
X462700Y784600D02*
D03*
X573150Y460150D02*
D03*
X542600Y490000D02*
D03*
X639950Y460400D02*
D03*
X453700Y460150D02*
D03*
X453850Y776600D02*
D03*
X650000Y780956D02*
D03*
Y771114D02*
D03*
X659842D02*
D03*
X669685D02*
D03*
X453900Y470800D02*
D03*
X640850Y471800D02*
D03*
X454400Y745850D02*
D03*
X670450Y745800D02*
D03*
X679350Y430100D02*
D03*
X640150Y426600D02*
D03*
X463150Y431350D02*
D03*
X463850Y745700D02*
D03*
X680250Y747750D02*
D03*
X847600Y707850D02*
D03*
X827200Y702350D02*
D03*
X699250Y735100D02*
D03*
X699185Y731341D02*
D03*
X1004100Y430700D02*
D03*
X1005950Y508950D02*
D03*
X1003400Y745500D02*
D03*
X462650Y420550D02*
D03*
X462800Y736000D02*
D03*
X758750Y735400D02*
D03*
X454000Y716000D02*
D03*
X454150Y481500D02*
D03*
X896600Y727550D02*
D03*
X671150Y725300D02*
D03*
X896800Y706300D02*
D03*
X904900Y656800D02*
D03*
X887100Y492200D02*
D03*
X885800Y391100D02*
D03*
X995300Y410950D02*
D03*
X1004850Y708450D02*
D03*
X669200Y656700D02*
D03*
X684950Y655700D02*
D03*
X541650Y657300D02*
D03*
X542550Y659750D02*
D03*
X483400Y432450D02*
D03*
X640300Y430250D02*
D03*
X777150Y361389D02*
D03*
X867650Y403650D02*
D03*
X867500Y411950D02*
D03*
X827850Y382800D02*
D03*
X788550Y657650D02*
D03*
X423565Y643161D02*
D03*
X433465D02*
D03*
X443250D02*
D03*
X453150D02*
D03*
X462935D02*
D03*
X531890D02*
D03*
X541675D02*
D03*
X561417D02*
D03*
X571260D02*
D03*
X581045D02*
D03*
X590945D02*
D03*
X600730D02*
D03*
X620415D02*
D03*
X630315D02*
D03*
X659785D02*
D03*
X709055D02*
D03*
X720150Y647250D02*
D03*
X728740Y643161D02*
D03*
X748425D02*
D03*
X787795D02*
D03*
X797580D02*
D03*
X827165D02*
D03*
X856635D02*
D03*
X778400Y657850D02*
D03*
X769700Y736150D02*
D03*
X778850Y736500D02*
D03*
X789100Y736650D02*
D03*
X897100Y688300D02*
D03*
X916600Y687850D02*
D03*
X907250Y735800D02*
D03*
X876700Y680200D02*
D03*
X867900Y687800D02*
D03*
X866535Y682200D02*
D03*
X877450Y698550D02*
D03*
X865650Y685800D02*
D03*
X868150Y676650D02*
D03*
X877500Y676200D02*
D03*
X897000Y649100D02*
D03*
X887200Y726200D02*
D03*
X925600Y302250D02*
D03*
X905650Y617000D02*
D03*
X926350Y304850D02*
D03*
X924750Y312150D02*
D03*
X897400Y629550D02*
D03*
X926450Y314400D02*
D03*
X896550Y637250D02*
D03*
X925850Y321800D02*
D03*
X896950Y639800D02*
D03*
X926450Y324350D02*
D03*
X926200Y334000D02*
D03*
X769050Y827250D02*
D03*
X876550Y342289D02*
D03*
D03*
X877200Y430250D02*
D03*
X689550Y617550D02*
D03*
X688982Y647250D02*
D03*
X778950Y638300D02*
D03*
X690800Y637600D02*
D03*
X778600Y629450D02*
D03*
X689400Y628000D02*
D03*
X689550Y617550D02*
D03*
X759150Y619600D02*
D03*
X688300Y794050D02*
D03*
X709400Y696600D02*
D03*
X768600Y837400D02*
D03*
X680450Y835500D02*
D03*
X759000Y747961D02*
D03*
X758950Y785900D02*
D03*
X680550Y777300D02*
D03*
X759300Y775150D02*
D03*
X689650Y705700D02*
D03*
X777150Y676350D02*
D03*
X689600Y715950D02*
D03*
X671050Y705750D02*
D03*
X769050Y708850D02*
D03*
X759300Y814161D02*
D03*
X531450Y292950D02*
D03*
X532600Y302400D02*
D03*
X542500Y303450D02*
D03*
X816900Y509150D02*
D03*
X827111Y430789D02*
D03*
X857050Y834000D02*
D03*
X867100Y845800D02*
D03*
X857200Y844650D02*
D03*
X610050Y774650D02*
D03*
X573150Y775250D02*
D03*
X580950Y459200D02*
D03*
X630400Y814050D02*
D03*
X660578Y568100D02*
D03*
X650735D02*
D03*
X640893D02*
D03*
X631050D02*
D03*
X660578Y571050D02*
D03*
X650735D02*
D03*
X640893D02*
D03*
X886850Y736500D02*
D03*
X630700Y823350D02*
D03*
X670400Y451739D02*
D03*
X581900Y529289D02*
D03*
X562450Y501789D02*
D03*
X552500Y489839D02*
D03*
X601550Y490389D02*
D03*
X670400Y492450D02*
D03*
X502900Y439689D02*
D03*
X689500Y440739D02*
D03*
X847350Y342789D02*
D03*
X896650Y305289D02*
D03*
X689550Y302589D02*
D03*
X502000Y470100D02*
D03*
X893900Y499389D02*
D03*
X892441Y509039D02*
D03*
X660550Y441589D02*
D03*
X690250Y443039D02*
D03*
X680400Y442139D02*
D03*
X788800Y343039D02*
D03*
X611200Y470839D02*
D03*
X650950Y491839D02*
D03*
X689500Y440739D02*
D03*
X688300Y479089D02*
D03*
X690200Y362889D02*
D03*
X770000Y489693D02*
D03*
X631850Y411439D02*
D03*
X631200Y403600D02*
D03*
X621250Y529689D02*
D03*
X590400Y469439D02*
D03*
X611350Y510439D02*
D03*
Y451939D02*
D03*
X610600Y459200D02*
D03*
X610300Y498739D02*
D03*
X611200Y501789D02*
D03*
X631200Y510189D02*
D03*
X581450D02*
D03*
X580200Y322139D02*
D03*
X709650Y382750D02*
D03*
X905350Y322089D02*
D03*
X896900Y332339D02*
D03*
X688982Y332289D02*
D03*
X778950Y323339D02*
D03*
X690800Y322639D02*
D03*
X896450Y324889D02*
D03*
X897700Y322539D02*
D03*
X896350Y311889D02*
D03*
X897000Y314839D02*
D03*
X778600Y314489D02*
D03*
X689400Y313039D02*
D03*
X896750Y302339D02*
D03*
X896650Y305289D02*
D03*
X689550Y302589D02*
D03*
X759150Y304639D02*
D03*
X769200Y294989D02*
D03*
X867350Y393350D02*
D03*
X768600Y522439D02*
D03*
X769050Y512289D02*
D03*
X865900Y400350D02*
D03*
X680150Y510239D02*
D03*
X680450Y520539D02*
D03*
X679450Y499789D02*
D03*
X680350Y492439D02*
D03*
X759000Y433000D02*
D03*
X668700Y479339D02*
D03*
X679100Y469939D02*
D03*
X758950Y470939D02*
D03*
X660350Y462339D02*
D03*
X680550D02*
D03*
X680400Y459389D02*
D03*
X759300Y460189D02*
D03*
X639450Y420439D02*
D03*
X689650Y420239D02*
D03*
X708950D02*
D03*
X758750Y420439D02*
D03*
X768150Y410439D02*
D03*
X689650Y390739D02*
D03*
X671050Y381639D02*
D03*
X660550Y441589D02*
D03*
X689600Y400989D02*
D03*
X671450Y410639D02*
D03*
X669750Y389639D02*
D03*
X670150Y402600D02*
D03*
X650550Y399950D02*
D03*
X619900Y488939D02*
D03*
X630950Y479689D02*
D03*
X631550Y451300D02*
D03*
X610350Y440339D02*
D03*
X680300Y432739D02*
D03*
X769350Y393748D02*
D03*
X690250Y443039D02*
D03*
X680400Y442139D02*
D03*
X788800Y343039D02*
D03*
X610750Y410739D02*
D03*
X611150Y393039D02*
D03*
X611400Y423339D02*
D03*
X906550Y302689D02*
D03*
X591150Y273489D02*
D03*
X590800Y292039D02*
D03*
X728900Y255839D02*
D03*
X699700Y265189D02*
D03*
X691150Y263489D02*
D03*
X718950Y261239D02*
D03*
Y257589D02*
D03*
X710950Y263400D02*
D03*
X699950Y275739D02*
D03*
X712150Y272039D02*
D03*
X700150Y284689D02*
D03*
X713100Y282839D02*
D03*
X708050Y272339D02*
D03*
X631950Y272489D02*
D03*
X705400Y272289D02*
D03*
X688550Y489339D02*
D03*
X699850Y489839D02*
D03*
X945650Y460339D02*
D03*
X778750Y470339D02*
D03*
X687200Y448489D02*
D03*
X679542Y447039D02*
D03*
X669700D02*
D03*
X659850Y447089D02*
D03*
X709055Y328200D02*
D03*
X728740D02*
D03*
X748425D02*
D03*
X787795D02*
D03*
X797580D02*
D03*
X827165D02*
D03*
X856635D02*
D03*
X896006D02*
D03*
X905906D02*
D03*
X720150Y332289D02*
D03*
X925591Y328200D02*
D03*
X935433D02*
D03*
X994431D02*
D03*
X1004331D02*
D03*
X1014116D02*
D03*
X1024016D02*
D03*
X679300Y331839D02*
D03*
X680339Y325200D02*
D03*
X700250Y323889D02*
D03*
X719650Y442989D02*
D03*
X738550Y391739D02*
D03*
X718750Y370189D02*
D03*
X727750Y369889D02*
D03*
X729650Y380639D02*
D03*
X738550Y380539D02*
D03*
X729400Y401739D02*
D03*
X728500Y360689D02*
D03*
X729500Y344089D02*
D03*
X728450Y332339D02*
D03*
X720150Y322289D02*
D03*
X728450Y322339D02*
D03*
X748750Y302139D02*
D03*
X757950Y302089D02*
D03*
X728700Y468889D02*
D03*
Y478889D02*
D03*
X739400Y482539D02*
D03*
X729300Y481989D02*
D03*
X739200Y492239D02*
D03*
X727800Y527889D02*
D03*
X728650Y518689D02*
D03*
X739200Y507739D02*
D03*
X739250Y432089D02*
D03*
X728300Y429839D02*
D03*
X728750Y436039D02*
D03*
X729300Y423939D02*
D03*
X729500Y432889D02*
D03*
X739300Y442539D02*
D03*
X729300Y442439D02*
D03*
X749400Y441539D02*
D03*
X748850Y449739D02*
D03*
X739650Y452839D02*
D03*
X728850Y449839D02*
D03*
X729750Y452789D02*
D03*
X690450Y452839D02*
D03*
X618800Y429789D02*
D03*
X788700Y470589D02*
D03*
X825350Y410039D02*
D03*
X818550Y410439D02*
D03*
X821179Y410260D02*
D03*
X856700Y505000D02*
D03*
Y495150D02*
D03*
X825500Y498589D02*
D03*
X837000Y495100D02*
D03*
X728713Y367168D02*
D03*
X856693Y347483D02*
D03*
X867250Y350589D02*
D03*
X876350Y328539D02*
D03*
X866500Y328589D02*
D03*
X669500Y359989D02*
D03*
X659300Y359789D02*
D03*
X865400Y518950D02*
D03*
X602200Y529139D02*
D03*
X602100Y519239D02*
D03*
X602250Y509489D02*
D03*
X602150Y499439D02*
D03*
X569139Y497570D02*
D03*
Y507412D02*
D03*
X569150Y517789D02*
D03*
X569139Y527097D02*
D03*
X778750Y334689D02*
D03*
X709055Y318358D02*
D03*
X917250Y302639D02*
D03*
X884100Y300719D02*
D03*
X917050Y312539D02*
D03*
X916950Y322439D02*
D03*
X917900Y332239D02*
D03*
X915100Y340689D02*
D03*
X884137Y320039D02*
D03*
X884100Y310562D02*
D03*
Y330247D02*
D03*
X893943Y340089D02*
D03*
X884100D02*
D03*
X522900Y511489D02*
D03*
X433437Y495120D02*
D03*
X443222D02*
D03*
X453122D02*
D03*
X454050Y489639D02*
D03*
X1015300Y511089D02*
D03*
X618364Y400589D02*
D03*
X423537Y514805D02*
D03*
X433437D02*
D03*
X443222D02*
D03*
X453150Y515289D02*
D03*
X462950Y515239D02*
D03*
X472807Y514805D02*
D03*
X521962Y514252D02*
D03*
X531862Y514805D02*
D03*
X541647D02*
D03*
X551384D02*
D03*
X561390D02*
D03*
X581017D02*
D03*
X590917D02*
D03*
X618650Y518589D02*
D03*
X630287Y514805D02*
D03*
X640130D02*
D03*
X651550Y519139D02*
D03*
X659758Y514805D02*
D03*
X669658D02*
D03*
X679500D02*
D03*
X699185D02*
D03*
X748450Y495189D02*
D03*
X521962Y495120D02*
D03*
X531862D02*
D03*
X541647D02*
D03*
X551384D02*
D03*
X561390D02*
D03*
X581017D02*
D03*
X590917D02*
D03*
X618800Y498689D02*
D03*
X630287Y495120D02*
D03*
X639500Y499339D02*
D03*
X651250Y499189D02*
D03*
X658650Y499039D02*
D03*
X669150Y499089D02*
D03*
X679500Y495120D02*
D03*
X699185D02*
D03*
X709800Y499339D02*
D03*
X728000Y499139D02*
D03*
X777868Y495120D02*
D03*
X787768D02*
D03*
X807453D02*
D03*
X817238D02*
D03*
X846823D02*
D03*
X866508D02*
D03*
X876293D02*
D03*
X895978D02*
D03*
X905878D02*
D03*
X915663D02*
D03*
X925563D02*
D03*
X935406D02*
D03*
X1023988Y514805D02*
D03*
X1014088D02*
D03*
X1004303D02*
D03*
X994403D02*
D03*
X984618D02*
D03*
X974400Y516739D02*
D03*
X945248Y514805D02*
D03*
X935406D02*
D03*
X925563D02*
D03*
X915663D02*
D03*
X905878D02*
D03*
X895978D02*
D03*
X886193D02*
D03*
X876293D02*
D03*
X866508D02*
D03*
X856600Y514800D02*
D03*
X846823Y514805D02*
D03*
X836923D02*
D03*
X817238D02*
D03*
X807453D02*
D03*
X797553D02*
D03*
X787768D02*
D03*
X777868D02*
D03*
X423565Y278988D02*
D03*
X462935D02*
D03*
X472835D02*
D03*
X482620D02*
D03*
X492520D02*
D03*
X502305D02*
D03*
X512205D02*
D03*
X521990D02*
D03*
X531890D02*
D03*
X541675D02*
D03*
X551575D02*
D03*
X561417D02*
D03*
X571260D02*
D03*
X581045D02*
D03*
X590945D02*
D03*
X600730D02*
D03*
X620415D02*
D03*
X630315D02*
D03*
X640158D02*
D03*
X650000D02*
D03*
X659785D02*
D03*
X669685D02*
D03*
X679528D02*
D03*
X689370D02*
D03*
X699213D02*
D03*
X709100Y278789D02*
D03*
X758210Y278988D02*
D03*
X768110D02*
D03*
X777895D02*
D03*
X787795D02*
D03*
X797580D02*
D03*
X807480D02*
D03*
X817265D02*
D03*
X827165D02*
D03*
X836950D02*
D03*
X846850D02*
D03*
X856635D02*
D03*
X866535D02*
D03*
X876320D02*
D03*
X886220D02*
D03*
X896006D02*
D03*
X905906D02*
D03*
X915691D02*
D03*
X925591D02*
D03*
X935433D02*
D03*
X945276D02*
D03*
X955061D02*
D03*
X964961D02*
D03*
X974746D02*
D03*
X984646D02*
D03*
X651650Y469839D02*
D03*
X738525Y495523D02*
D03*
X838150Y380700D02*
D03*
X649700Y380589D02*
D03*
X615400Y400939D02*
D03*
X827165Y387255D02*
D03*
X836950D02*
D03*
X846850D02*
D03*
X856635D02*
D03*
X866535D02*
D03*
X876320D02*
D03*
X886220D02*
D03*
X896006D02*
D03*
X905906D02*
D03*
X915691D02*
D03*
X925591D02*
D03*
X935433D02*
D03*
X945276D02*
D03*
X955061D02*
D03*
X964961D02*
D03*
X974746D02*
D03*
X984646D02*
D03*
X994431D02*
D03*
X1004331D02*
D03*
X1014116D02*
D03*
X1024016D02*
D03*
X602350Y383739D02*
D03*
X606500Y390489D02*
D03*
X894050Y359939D02*
D03*
X896100Y377039D02*
D03*
X896050Y367189D02*
D03*
X637300Y390589D02*
D03*
X636005Y400989D02*
D03*
X650550Y372489D02*
D03*
X641150Y334039D02*
D03*
X453350Y511589D02*
D03*
X423600Y491939D02*
D03*
X976000Y519339D02*
D03*
X974650Y469839D02*
D03*
X757450Y507489D02*
D03*
X985000Y503039D02*
D03*
X935433Y505366D02*
D03*
X825100Y507639D02*
D03*
X748425Y505366D02*
D03*
X698400Y508389D02*
D03*
X679528Y505366D02*
D03*
X687262Y507949D02*
D03*
X640158Y505366D02*
D03*
X561417D02*
D03*
X512205D02*
D03*
X423565D02*
D03*
X433465D02*
D03*
X443250D02*
D03*
X453150D02*
D03*
X462935D02*
D03*
X521990D02*
D03*
X531890D02*
D03*
X541675D02*
D03*
X551575D02*
D03*
X581045D02*
D03*
X590945D02*
D03*
X610630D02*
D03*
X618600Y508589D02*
D03*
X630315Y505366D02*
D03*
X651350Y509239D02*
D03*
X659785Y505366D02*
D03*
X669685D02*
D03*
X709055D02*
D03*
X720200Y508837D02*
D03*
X728740Y505366D02*
D03*
X736475Y507239D02*
D03*
X768000Y507539D02*
D03*
X777895Y505366D02*
D03*
X787795D02*
D03*
X797580D02*
D03*
X807480D02*
D03*
X817265D02*
D03*
X836950D02*
D03*
X846800Y504900D02*
D03*
X866535Y505366D02*
D03*
X1033801D02*
D03*
X1024016D02*
D03*
X1014116D02*
D03*
X1004331D02*
D03*
X994431D02*
D03*
X925591D02*
D03*
X915691D02*
D03*
X905906D02*
D03*
X896006D02*
D03*
X886220D02*
D03*
X876320D02*
D03*
X757500Y458089D02*
D03*
X984646Y455350D02*
D03*
X935433Y456153D02*
D03*
X827165D02*
D03*
X748425D02*
D03*
X699213D02*
D03*
X679528D02*
D03*
X688600Y457889D02*
D03*
X640158Y456153D02*
D03*
X561450Y455600D02*
D03*
X512205Y456153D02*
D03*
X423565D02*
D03*
X433465D02*
D03*
X443250D02*
D03*
X453150D02*
D03*
X462935D02*
D03*
X470727Y458166D02*
D03*
X482620Y456153D02*
D03*
X492520D02*
D03*
X502305D02*
D03*
X520900Y457789D02*
D03*
X531890Y456153D02*
D03*
X541675D02*
D03*
X551575D02*
D03*
X571260D02*
D03*
X581045D02*
D03*
X590945D02*
D03*
X600730D02*
D03*
X610630D02*
D03*
X618500Y458839D02*
D03*
X630315Y456153D02*
D03*
X651550Y459839D02*
D03*
X659250Y458439D02*
D03*
X669200Y458939D02*
D03*
X709055Y456153D02*
D03*
X718500Y457824D02*
D03*
X728740Y456153D02*
D03*
X738150Y457839D02*
D03*
X767450Y458289D02*
D03*
X777895Y456153D02*
D03*
X787795D02*
D03*
X797580D02*
D03*
X807480D02*
D03*
X817265D02*
D03*
X836950D02*
D03*
X846850D02*
D03*
X856635D02*
D03*
X866535D02*
D03*
X1033801D02*
D03*
X1024016D02*
D03*
X1014116D02*
D03*
X1004331D02*
D03*
X994431D02*
D03*
X974746Y455350D02*
D03*
X964961D02*
D03*
X955061Y456153D02*
D03*
X943150Y458339D02*
D03*
X925591Y456153D02*
D03*
X915691D02*
D03*
X905906D02*
D03*
X896006D02*
D03*
X886220D02*
D03*
X876320D02*
D03*
X699350Y330289D02*
D03*
X700050Y314189D02*
D03*
X758950Y313366D02*
D03*
X758800Y295716D02*
D03*
X759050Y334939D02*
D03*
X758300Y318989D02*
D03*
X758950Y401949D02*
D03*
X756200Y389039D02*
D03*
X758950Y441319D02*
D03*
X758800Y423669D02*
D03*
X985350Y492689D02*
D03*
X687262Y497627D02*
D03*
X423565Y495523D02*
D03*
X463400Y492889D02*
D03*
X610630Y495523D02*
D03*
X721450Y499439D02*
D03*
X758900Y491889D02*
D03*
X770350Y499089D02*
D03*
X1033801Y495523D02*
D03*
X1024016Y495523D02*
D03*
X1014116D02*
D03*
X1004331D02*
D03*
X994431D02*
D03*
X497609Y538639D02*
D03*
X770650Y322139D02*
D03*
X770300Y331739D02*
D03*
X542950Y459350D02*
D03*
X689650Y336439D02*
D03*
X984646Y338043D02*
D03*
X935433D02*
D03*
X827150Y337139D02*
D03*
X748425Y338043D02*
D03*
X699213D02*
D03*
X678878Y338043D02*
D03*
X640150Y336639D02*
D03*
X561417Y338043D02*
D03*
X512205D02*
D03*
X423565D02*
D03*
X433465D02*
D03*
X443250D02*
D03*
X453150D02*
D03*
X462935D02*
D03*
X472835D02*
D03*
X482620D02*
D03*
X492520D02*
D03*
X502305D02*
D03*
X521990D02*
D03*
X531890D02*
D03*
X541675D02*
D03*
X551575D02*
D03*
X571260D02*
D03*
X581045D02*
D03*
X590945D02*
D03*
X600730D02*
D03*
X610630D02*
D03*
X620500Y337189D02*
D03*
X630300Y337039D02*
D03*
X650000Y338043D02*
D03*
X659785D02*
D03*
X669850Y337689D02*
D03*
X709055Y338043D02*
D03*
X718840D02*
D03*
X728740D02*
D03*
X738525D02*
D03*
X758210D02*
D03*
X768110D02*
D03*
X777895D02*
D03*
X787795D02*
D03*
X817550Y335789D02*
D03*
X856635Y338043D02*
D03*
X866535Y338043D02*
D03*
X1033801D02*
D03*
X1024016D02*
D03*
X1014116D02*
D03*
X1004331D02*
D03*
X994431D02*
D03*
X974746D02*
D03*
X964961D02*
D03*
X955061D02*
D03*
X945276D02*
D03*
X925591D02*
D03*
X906600Y341000D02*
D03*
X876320Y338043D02*
D03*
X863333Y321940D02*
D03*
X852411Y331318D02*
D03*
X1015791Y461089D02*
D03*
X984646Y416783D02*
D03*
X935433D02*
D03*
X827165D02*
D03*
X748425D02*
D03*
X699213D02*
D03*
X679528D02*
D03*
X689370D02*
D03*
X640158D02*
D03*
X561417D02*
D03*
X512205D02*
D03*
X423565D02*
D03*
X433465D02*
D03*
X443250D02*
D03*
X453150D02*
D03*
X462935D02*
D03*
X472835D02*
D03*
X482620D02*
D03*
X492520D02*
D03*
X502305D02*
D03*
X521990D02*
D03*
X531890D02*
D03*
X541675D02*
D03*
X551575D02*
D03*
X571260D02*
D03*
X581100Y416500D02*
D03*
X590945Y416783D02*
D03*
X600730D02*
D03*
X610650Y416350D02*
D03*
X618200Y418889D02*
D03*
X630315Y416783D02*
D03*
X651250Y420339D02*
D03*
X659785Y416783D02*
D03*
X669685D02*
D03*
X709055D02*
D03*
X718840D02*
D03*
X728740D02*
D03*
X738525Y417633D02*
D03*
X758210Y416783D02*
D03*
X768110D02*
D03*
X777895D02*
D03*
X787795D02*
D03*
X797580D02*
D03*
X807480D02*
D03*
X817265D02*
D03*
X836950D02*
D03*
X846850D02*
D03*
X856635D02*
D03*
X865800Y418600D02*
D03*
X1033801Y416783D02*
D03*
X1024016D02*
D03*
X1014116D02*
D03*
X1004331D02*
D03*
X994431D02*
D03*
X974746D02*
D03*
X964961D02*
D03*
X955061D02*
D03*
X945276D02*
D03*
X925591D02*
D03*
X915691D02*
D03*
X903798Y418942D02*
D03*
X896006Y416783D02*
D03*
X886220D02*
D03*
X876320D02*
D03*
X650000Y327953D02*
D03*
X690550Y340039D02*
D03*
X693161Y340139D02*
D03*
X767850Y378389D02*
D03*
X423565Y377413D02*
D03*
X433465D02*
D03*
X443250D02*
D03*
X453150D02*
D03*
X462935D02*
D03*
X472835D02*
D03*
X482620D02*
D03*
X492520D02*
D03*
X502305D02*
D03*
X512205D02*
D03*
X521990D02*
D03*
X531890D02*
D03*
X541675D02*
D03*
X551575D02*
D03*
X561417D02*
D03*
X571260D02*
D03*
X581045D02*
D03*
X590945D02*
D03*
X600730D02*
D03*
X638900Y379239D02*
D03*
X650000Y377413D02*
D03*
X689370D02*
D03*
X699213D02*
D03*
X709055D02*
D03*
X718840D02*
D03*
X728740D02*
D03*
X738525D02*
D03*
X748425D02*
D03*
X610150Y379289D02*
D03*
X630100D02*
D03*
X756200Y379389D02*
D03*
X817350Y378889D02*
D03*
X876320Y377413D02*
D03*
X886220D02*
D03*
X905906D02*
D03*
X915691D02*
D03*
X925591D02*
D03*
X945276D02*
D03*
X955061D02*
D03*
X964961D02*
D03*
X974746D02*
D03*
X994431D02*
D03*
X1004331D02*
D03*
X1014116D02*
D03*
X1024016D02*
D03*
X1033801D02*
D03*
X866500Y376800D02*
D03*
X856635Y377413D02*
D03*
X846850D02*
D03*
X835750Y379339D02*
D03*
X797580Y377413D02*
D03*
X787795D02*
D03*
X777950Y377139D02*
D03*
X827150Y379189D02*
D03*
X935433Y377413D02*
D03*
X984646D02*
D03*
X748425Y367570D02*
D03*
X749600Y380689D02*
D03*
X786350Y391350D02*
D03*
X779400Y382900D02*
D03*
X768450Y375889D02*
D03*
X758850Y380589D02*
D03*
X761600Y380989D02*
D03*
X752350Y380689D02*
D03*
X807900Y374789D02*
D03*
X797580Y495523D02*
D03*
X983900Y487350D02*
D03*
X935433Y485681D02*
D03*
X825100Y487939D02*
D03*
X748425Y485681D02*
D03*
X699213D02*
D03*
X679528D02*
D03*
X689370D02*
D03*
X640158D02*
D03*
X561417D02*
D03*
X511900Y487189D02*
D03*
X423565Y485681D02*
D03*
X433465D02*
D03*
X443250D02*
D03*
X453150D02*
D03*
X462935D02*
D03*
X521990D02*
D03*
X530100Y487450D02*
D03*
X541675Y485681D02*
D03*
X551575D02*
D03*
X571260D02*
D03*
X581045D02*
D03*
X590945D02*
D03*
X600730D02*
D03*
X610630D02*
D03*
X620415D02*
D03*
X630315D02*
D03*
X650000D02*
D03*
X659785D02*
D03*
X669685D02*
D03*
X709055D02*
D03*
X718840D02*
D03*
X728740D02*
D03*
X737700Y487339D02*
D03*
X758210Y485681D02*
D03*
X768110D02*
D03*
X777895D02*
D03*
X787795D02*
D03*
X797580D02*
D03*
X807480D02*
D03*
X817265D02*
D03*
X836950D02*
D03*
X846850D02*
D03*
X1033801D02*
D03*
X1024016D02*
D03*
X1014116D02*
D03*
X1004331D02*
D03*
X994431D02*
D03*
X925591D02*
D03*
X915691D02*
D03*
X905906D02*
D03*
X896006D02*
D03*
X886220D02*
D03*
X876320D02*
D03*
X984600Y475700D02*
D03*
X935433Y475838D02*
D03*
X827165D02*
D03*
X748425D02*
D03*
X699050Y479739D02*
D03*
X679528Y475838D02*
D03*
X689400Y475089D02*
D03*
X640150Y475189D02*
D03*
X561417Y475838D02*
D03*
X512205D02*
D03*
X423565D02*
D03*
X433465D02*
D03*
X443250D02*
D03*
X453150D02*
D03*
X462935D02*
D03*
X472835D02*
D03*
X521990D02*
D03*
X531890D02*
D03*
X541700Y474950D02*
D03*
X552050Y473250D02*
D03*
X571260Y475838D02*
D03*
X581045D02*
D03*
X590945D02*
D03*
X600730D02*
D03*
X610630D02*
D03*
X618600Y479139D02*
D03*
X630350Y474989D02*
D03*
X651550Y479589D02*
D03*
X659785Y475838D02*
D03*
X669685D02*
D03*
X709055D02*
D03*
X720150Y480339D02*
D03*
X728750Y474689D02*
D03*
X738250Y479989D02*
D03*
X758950Y480689D02*
D03*
X769200Y479889D02*
D03*
X777895Y475838D02*
D03*
X787795Y475838D02*
D03*
X797580Y475838D02*
D03*
X807480D02*
D03*
X817265D02*
D03*
X1033801D02*
D03*
X1024016D02*
D03*
X1014116D02*
D03*
X1004331D02*
D03*
X994431D02*
D03*
X974800Y474489D02*
D03*
X965000Y475039D02*
D03*
X955150Y474989D02*
D03*
X945276Y475838D02*
D03*
X925591D02*
D03*
X915691D02*
D03*
X905906D02*
D03*
X896006D02*
D03*
X886220D02*
D03*
X876320D02*
D03*
X984646Y464960D02*
D03*
X687350Y468189D02*
D03*
X470650Y468789D02*
D03*
X480450Y468239D02*
D03*
X492520Y465996D02*
D03*
X522050Y465439D02*
D03*
X531900Y465389D02*
D03*
X610630Y465996D02*
D03*
X720650Y470039D02*
D03*
X736550Y468239D02*
D03*
X758800Y463039D02*
D03*
X769650Y469989D02*
D03*
X1033801Y465996D02*
D03*
X1004331Y465354D02*
D03*
X994431D02*
D03*
X974800Y466989D02*
D03*
X953650Y467789D02*
D03*
X943900Y467939D02*
D03*
X984646Y446311D02*
D03*
X935433D02*
D03*
X827165D02*
D03*
X748425D02*
D03*
X699213D02*
D03*
X561417D02*
D03*
X512205D02*
D03*
X423565D02*
D03*
X433465D02*
D03*
X443250D02*
D03*
X453150D02*
D03*
X462935D02*
D03*
X472835D02*
D03*
X482620D02*
D03*
X492520D02*
D03*
X502305D02*
D03*
X521990D02*
D03*
X531890D02*
D03*
X541675D02*
D03*
X551575D02*
D03*
X571260D02*
D03*
X581045D02*
D03*
X590945D02*
D03*
X600730D02*
D03*
X610630D02*
D03*
X618700Y449289D02*
D03*
X651500Y449839D02*
D03*
X709055Y446311D02*
D03*
X718840Y446311D02*
D03*
X728740D02*
D03*
X738525D02*
D03*
X758210D02*
D03*
X768110D02*
D03*
X777895D02*
D03*
X787795D02*
D03*
X797580D02*
D03*
X807480D02*
D03*
X817265D02*
D03*
X836950D02*
D03*
X846850D02*
D03*
X856635D02*
D03*
X866535D02*
D03*
X1033801D02*
D03*
X1024016D02*
D03*
X1014116D02*
D03*
X1004331D02*
D03*
X994431D02*
D03*
X974746D02*
D03*
X964961D02*
D03*
X955061D02*
D03*
X945276D02*
D03*
X925591D02*
D03*
X915691D02*
D03*
X905906D02*
D03*
X896006D02*
D03*
X886220D02*
D03*
X876320D02*
D03*
X984646Y436468D02*
D03*
X935433D02*
D03*
X827165D02*
D03*
X748425D02*
D03*
X698850Y440489D02*
D03*
X679528Y436468D02*
D03*
X687250Y438189D02*
D03*
X640158Y436468D02*
D03*
X561417D02*
D03*
X512205D02*
D03*
X423565D02*
D03*
X433465D02*
D03*
X443250D02*
D03*
X453150D02*
D03*
X462935D02*
D03*
X472835D02*
D03*
X482620D02*
D03*
X492520D02*
D03*
X502305D02*
D03*
X521990D02*
D03*
X531890D02*
D03*
X541675D02*
D03*
X551575D02*
D03*
X571260D02*
D03*
X581045D02*
D03*
X590945D02*
D03*
X600730D02*
D03*
X610630D02*
D03*
X618150Y438289D02*
D03*
X630315Y436468D02*
D03*
X651850Y439839D02*
D03*
X659750Y435939D02*
D03*
X669685Y436468D02*
D03*
X709055D02*
D03*
X720200Y440439D02*
D03*
X736475Y439214D02*
D03*
X768500Y441089D02*
D03*
X777895Y436468D02*
D03*
X787795D02*
D03*
X797580D02*
D03*
X807480D02*
D03*
X817265D02*
D03*
X836950D02*
D03*
X846850D02*
D03*
X856635D02*
D03*
X866535D02*
D03*
X1033801D02*
D03*
X1024016D02*
D03*
X1014116D02*
D03*
X1004331D02*
D03*
X994431D02*
D03*
X974746D02*
D03*
X964961D02*
D03*
X955061D02*
D03*
X945276D02*
D03*
X925591D02*
D03*
X915691D02*
D03*
X905906D02*
D03*
X896006D02*
D03*
X886220D02*
D03*
X876320D02*
D03*
X984646Y426625D02*
D03*
X935433D02*
D03*
X827165D02*
D03*
X748425D02*
D03*
X699250Y420139D02*
D03*
X679528Y426625D02*
D03*
X687700Y429139D02*
D03*
X561417Y426625D02*
D03*
X512205D02*
D03*
X423565D02*
D03*
X433465D02*
D03*
X443250D02*
D03*
X453150D02*
D03*
X462935D02*
D03*
X472835D02*
D03*
X482620D02*
D03*
X492520D02*
D03*
X502305D02*
D03*
X521990D02*
D03*
X531890D02*
D03*
X541675D02*
D03*
X551575D02*
D03*
X571260D02*
D03*
X581045D02*
D03*
X590945D02*
D03*
X600730D02*
D03*
X610650Y427100D02*
D03*
X630315Y426625D02*
D03*
X651500Y430539D02*
D03*
X659785Y426625D02*
D03*
X669685D02*
D03*
X709055D02*
D03*
X720950Y430689D02*
D03*
X736550Y429289D02*
D03*
X769150Y430589D02*
D03*
X777895Y426625D02*
D03*
X787795D02*
D03*
X797580D02*
D03*
X807480D02*
D03*
X836950D02*
D03*
X846150Y428989D02*
D03*
X856635Y426625D02*
D03*
X866535D02*
D03*
X1033801D02*
D03*
X1024016D02*
D03*
X1014116D02*
D03*
X1004331D02*
D03*
X994431D02*
D03*
X974746D02*
D03*
X964961D02*
D03*
X955061D02*
D03*
X945276D02*
D03*
X925591D02*
D03*
X915691D02*
D03*
X905906D02*
D03*
X895300Y429689D02*
D03*
X886220Y426625D02*
D03*
X876320D02*
D03*
X984646Y406941D02*
D03*
X935433D02*
D03*
X827165D02*
D03*
X748425D02*
D03*
X699213D02*
D03*
X679528D02*
D03*
X689370D02*
D03*
X640158D02*
D03*
X561417D02*
D03*
X512205D02*
D03*
X423565D02*
D03*
X433465D02*
D03*
X443250D02*
D03*
X453150D02*
D03*
X462935D02*
D03*
X472835D02*
D03*
X482620D02*
D03*
X492520D02*
D03*
X502305D02*
D03*
X521990D02*
D03*
X531890D02*
D03*
X541675D02*
D03*
X551575D02*
D03*
X571260D02*
D03*
X581045D02*
D03*
X590945D02*
D03*
X600730D02*
D03*
X610630D02*
D03*
X618500Y410039D02*
D03*
X630300Y406639D02*
D03*
X651250Y410539D02*
D03*
X659785Y406941D02*
D03*
X669685D02*
D03*
X709055D02*
D03*
X718840D02*
D03*
X728740D02*
D03*
X738525D02*
D03*
X758210D02*
D03*
X768110D02*
D03*
X777895D02*
D03*
X787795D02*
D03*
X797580D02*
D03*
X807480D02*
D03*
X817265D02*
D03*
X836950D02*
D03*
X846850D02*
D03*
X856635D02*
D03*
X866535D02*
D03*
X1033801D02*
D03*
X1024016D02*
D03*
X1014116D02*
D03*
X1004331D02*
D03*
X994431D02*
D03*
X974746D02*
D03*
X964961D02*
D03*
X955061D02*
D03*
X945276D02*
D03*
X925591D02*
D03*
X915691D02*
D03*
X903798Y409187D02*
D03*
X896006Y406941D02*
D03*
X888000Y410689D02*
D03*
X876320Y406941D02*
D03*
X984646Y397098D02*
D03*
X935433D02*
D03*
X827165D02*
D03*
X748425D02*
D03*
X699950Y401339D02*
D03*
X679550Y396750D02*
D03*
X687300Y399039D02*
D03*
X640158Y397098D02*
D03*
X561417D02*
D03*
X512205D02*
D03*
X423565D02*
D03*
X433465D02*
D03*
X443250D02*
D03*
X453150D02*
D03*
X462935D02*
D03*
X472835D02*
D03*
X482620D02*
D03*
X492520D02*
D03*
X502305D02*
D03*
X521990D02*
D03*
X531890D02*
D03*
X541675D02*
D03*
X551575D02*
D03*
X571260D02*
D03*
X581045D02*
D03*
X590945D02*
D03*
X600730D02*
D03*
X610630D02*
D03*
X620415D02*
D03*
X630315D02*
D03*
X650000Y396639D02*
D03*
X659850Y396539D02*
D03*
X669650Y396200D02*
D03*
X709055Y397098D02*
D03*
X720300Y401239D02*
D03*
X727950Y399089D02*
D03*
X736400Y399539D02*
D03*
X768850Y401589D02*
D03*
X777895Y397098D02*
D03*
X787795D02*
D03*
X797650Y397439D02*
D03*
X807480Y397098D02*
D03*
X817265D02*
D03*
X836950D02*
D03*
X846850D02*
D03*
X856635D02*
D03*
X866535D02*
D03*
X1033801D02*
D03*
X1024016D02*
D03*
X1014116D02*
D03*
X1004331D02*
D03*
X994431D02*
D03*
X974746D02*
D03*
X964961D02*
D03*
X955061D02*
D03*
X945276D02*
D03*
X925591Y397098D02*
D03*
X915700Y397789D02*
D03*
X903798Y399737D02*
D03*
X896006Y397098D02*
D03*
X887850Y400889D02*
D03*
X876320Y397098D02*
D03*
X748425Y387255D02*
D03*
X699213D02*
D03*
X679528D02*
D03*
X687262Y389352D02*
D03*
X640158Y387255D02*
D03*
X561417D02*
D03*
X512205D02*
D03*
X423565D02*
D03*
X433465D02*
D03*
X443250D02*
D03*
X453150D02*
D03*
X462935D02*
D03*
X472835D02*
D03*
X482620D02*
D03*
X492520D02*
D03*
X502305D02*
D03*
X521990D02*
D03*
X531890D02*
D03*
X541675D02*
D03*
X551575D02*
D03*
X571260D02*
D03*
X581045D02*
D03*
X590945D02*
D03*
X600730D02*
D03*
X610630Y387005D02*
D03*
X620415Y387255D02*
D03*
X630315D02*
D03*
X650000Y387489D02*
D03*
X659785Y387255D02*
D03*
X709055D02*
D03*
X720500Y391339D02*
D03*
X728740Y387255D02*
D03*
X736475Y389564D02*
D03*
X768450Y386289D02*
D03*
X777895Y387795D02*
D03*
X787795Y387649D02*
D03*
X797580D02*
D03*
X807480Y387677D02*
D03*
X1033801Y387255D02*
D03*
X984646Y367570D02*
D03*
X935433D02*
D03*
X699213D02*
D03*
X679528D02*
D03*
X689370D02*
D03*
X561417D02*
D03*
X512205D02*
D03*
X423565D02*
D03*
X433465D02*
D03*
X443250D02*
D03*
X453150D02*
D03*
X462935D02*
D03*
X472835D02*
D03*
X482620D02*
D03*
X492520D02*
D03*
X502305D02*
D03*
X521990D02*
D03*
X531890D02*
D03*
X541675D02*
D03*
X551575D02*
D03*
X571260D02*
D03*
X581045D02*
D03*
X590945D02*
D03*
X600730D02*
D03*
X650000Y367789D02*
D03*
X659785Y367570D02*
D03*
X669685D02*
D03*
X709055D02*
D03*
X718850Y366739D02*
D03*
X738650Y367189D02*
D03*
X768110Y368139D02*
D03*
X787795D02*
D03*
X797580D02*
D03*
X847650Y364739D02*
D03*
X856635Y367570D02*
D03*
X866535D02*
D03*
X1033801D02*
D03*
X1024016D02*
D03*
X1014116D02*
D03*
X1004331D02*
D03*
X994431D02*
D03*
X974746D02*
D03*
X964961D02*
D03*
X955061D02*
D03*
X945276D02*
D03*
X926550Y364189D02*
D03*
X915750Y367039D02*
D03*
X903950Y369989D02*
D03*
X888700Y371389D02*
D03*
X876320Y367570D02*
D03*
X984646Y357728D02*
D03*
X935433D02*
D03*
X748400Y358739D02*
D03*
X699213Y357728D02*
D03*
X679528D02*
D03*
X687350Y359389D02*
D03*
X561417Y357728D02*
D03*
X512205D02*
D03*
X423565D02*
D03*
X433465D02*
D03*
X443250D02*
D03*
X453150D02*
D03*
X462935D02*
D03*
X472835D02*
D03*
X482620D02*
D03*
X492520D02*
D03*
X502305D02*
D03*
X521990D02*
D03*
X531890D02*
D03*
X541675D02*
D03*
X551575D02*
D03*
X571150Y359289D02*
D03*
X581045Y357728D02*
D03*
X590945D02*
D03*
X600800Y356589D02*
D03*
X650000Y357728D02*
D03*
X709000Y358639D02*
D03*
X720350Y361389D02*
D03*
X728700Y357339D02*
D03*
X736350Y359339D02*
D03*
X758800Y354989D02*
D03*
X769650Y361389D02*
D03*
X777895Y357828D02*
D03*
X787795Y357728D02*
D03*
X797580D02*
D03*
X847150Y355439D02*
D03*
X856635Y357728D02*
D03*
X866535D02*
D03*
X1033801D02*
D03*
X1024016D02*
D03*
X1014116D02*
D03*
X1004331D02*
D03*
X994431D02*
D03*
X974746D02*
D03*
X964961D02*
D03*
X955061D02*
D03*
X945276D02*
D03*
X925591D02*
D03*
X915700Y357189D02*
D03*
X903900Y360289D02*
D03*
X887950Y361339D02*
D03*
X876320Y357728D02*
D03*
X984646Y347885D02*
D03*
X935433D02*
D03*
X749400Y351289D02*
D03*
X699213Y347885D02*
D03*
X679528D02*
D03*
X687900Y350589D02*
D03*
X561417Y347885D02*
D03*
X512205D02*
D03*
X423565D02*
D03*
X433465D02*
D03*
X443250D02*
D03*
X453150D02*
D03*
X462935D02*
D03*
X472835D02*
D03*
X482620D02*
D03*
X492520D02*
D03*
X502305D02*
D03*
X521990D02*
D03*
X531890D02*
D03*
X541675D02*
D03*
X551575D02*
D03*
X571260D02*
D03*
X581045D02*
D03*
X590950Y347389D02*
D03*
X600750Y347539D02*
D03*
X650000Y347885D02*
D03*
X659785D02*
D03*
X669600Y347039D02*
D03*
X709055Y347885D02*
D03*
X720850Y352039D02*
D03*
X728740Y347885D02*
D03*
X736250Y349689D02*
D03*
X758950Y345239D02*
D03*
X769700Y351889D02*
D03*
X777895Y347885D02*
D03*
X787795D02*
D03*
X797580D02*
D03*
X846850Y347244D02*
D03*
X1033801Y347885D02*
D03*
X1024016D02*
D03*
X1014116D02*
D03*
X1004331D02*
D03*
X994431D02*
D03*
X974746D02*
D03*
X964961D02*
D03*
X955061D02*
D03*
X945276D02*
D03*
X925591D02*
D03*
X915691D02*
D03*
X905906D02*
D03*
X896006D02*
D03*
X886220D02*
D03*
X876320D02*
D03*
X984650Y327939D02*
D03*
X679528Y328200D02*
D03*
X687500Y329989D02*
D03*
X640158Y327953D02*
D03*
X561417Y328200D02*
D03*
X512205Y326771D02*
D03*
X423565Y328200D02*
D03*
X433465D02*
D03*
X443250D02*
D03*
X453150D02*
D03*
X462935D02*
D03*
X472835Y326771D02*
D03*
X482620D02*
D03*
X492520D02*
D03*
X502305D02*
D03*
X521990D02*
D03*
X531890Y328200D02*
D03*
X541675D02*
D03*
X551575D02*
D03*
X571260D02*
D03*
X581045D02*
D03*
X590945D02*
D03*
X600730D02*
D03*
X610630D02*
D03*
X620415D02*
D03*
X630315D02*
D03*
X659785D02*
D03*
X718840D02*
D03*
X736600Y330439D02*
D03*
X777895Y328200D02*
D03*
X805600Y330539D02*
D03*
X816350Y330039D02*
D03*
X837000Y327539D02*
D03*
X846850Y327639D02*
D03*
X1033801Y328200D02*
D03*
X974800Y327789D02*
D03*
X964961Y326771D02*
D03*
X955150Y327839D02*
D03*
X945300D02*
D03*
X984646Y316929D02*
D03*
X935433Y318358D02*
D03*
X827165D02*
D03*
X748400Y318939D02*
D03*
X679528Y318358D02*
D03*
X687262Y320827D02*
D03*
X640158Y318358D02*
D03*
X561417D02*
D03*
X512205Y316929D02*
D03*
X423565Y318358D02*
D03*
X433465D02*
D03*
X443250D02*
D03*
X453150D02*
D03*
X462935D02*
D03*
X472835Y316929D02*
D03*
X482620D02*
D03*
X492520D02*
D03*
X502305D02*
D03*
X521990D02*
D03*
X531890Y318358D02*
D03*
X541675D02*
D03*
X551575D02*
D03*
X571260D02*
D03*
X581045D02*
D03*
X590945D02*
D03*
X600730D02*
D03*
X610630D02*
D03*
X620415D02*
D03*
X630315D02*
D03*
X650000D02*
D03*
X659785D02*
D03*
X669685D02*
D03*
X718840D02*
D03*
X728740D02*
D03*
X736475Y320864D02*
D03*
X787795Y318358D02*
D03*
X797580D02*
D03*
X805600Y320689D02*
D03*
X817265Y318358D02*
D03*
X836950D02*
D03*
X846850Y318039D02*
D03*
X857250Y315389D02*
D03*
X867050Y315689D02*
D03*
X1033801Y318358D02*
D03*
X1024016D02*
D03*
X1014116D02*
D03*
X1004331D02*
D03*
X994431D02*
D03*
X974746Y316929D02*
D03*
X964961D02*
D03*
X955061D02*
D03*
X945276D02*
D03*
X925591Y318358D02*
D03*
X905906D02*
D03*
X896006D02*
D03*
X876293Y317955D02*
D03*
X984646Y308515D02*
D03*
X935433D02*
D03*
X827165D02*
D03*
X748425D02*
D03*
X699213D02*
D03*
X679528D02*
D03*
X687250Y310789D02*
D03*
X640158Y308515D02*
D03*
X561417D02*
D03*
X512205D02*
D03*
X423565D02*
D03*
X433465D02*
D03*
X443250D02*
D03*
X453150D02*
D03*
X462935D02*
D03*
X472835D02*
D03*
X482620D02*
D03*
X492520D02*
D03*
X502305D02*
D03*
X521990D02*
D03*
X531890D02*
D03*
X541675D02*
D03*
X551575D02*
D03*
X571260D02*
D03*
X581045D02*
D03*
X590945D02*
D03*
X600730D02*
D03*
X610630D02*
D03*
X620415D02*
D03*
X630315D02*
D03*
X650000D02*
D03*
X659785D02*
D03*
X669685D02*
D03*
X709055D02*
D03*
X719800Y313539D02*
D03*
X728740Y308515D02*
D03*
X736475Y310765D02*
D03*
X769200Y313589D02*
D03*
X777895Y308515D02*
D03*
X787795D02*
D03*
X797580D02*
D03*
X807480D02*
D03*
X817265D02*
D03*
X836950D02*
D03*
X846850Y308039D02*
D03*
X856635Y308515D02*
D03*
X866535D02*
D03*
X1033801D02*
D03*
X1024016D02*
D03*
X1014116D02*
D03*
X1004331D02*
D03*
X994431D02*
D03*
X974746D02*
D03*
X964961D02*
D03*
X955061D02*
D03*
X945276D02*
D03*
X925591D02*
D03*
X905906D02*
D03*
X896006D02*
D03*
X876320D02*
D03*
X984646Y298673D02*
D03*
X935433D02*
D03*
X827165D02*
D03*
X748425D02*
D03*
X699213D02*
D03*
X679528D02*
D03*
X687400Y301039D02*
D03*
X640158Y298673D02*
D03*
X561417D02*
D03*
X512205D02*
D03*
X423565D02*
D03*
X433465D02*
D03*
X443250D02*
D03*
X453150D02*
D03*
X462935Y298673D02*
D03*
X472835Y298673D02*
D03*
X482620D02*
D03*
X492520D02*
D03*
X502305D02*
D03*
X521990D02*
D03*
X531890D02*
D03*
X541675D02*
D03*
X551575D02*
D03*
X571260D02*
D03*
X581045D02*
D03*
X590945D02*
D03*
X600730D02*
D03*
X610630D02*
D03*
X620415D02*
D03*
X630315D02*
D03*
X650000D02*
D03*
X659785D02*
D03*
X669685D02*
D03*
X709055D02*
D03*
X720850Y302889D02*
D03*
X728750Y300239D02*
D03*
X738500Y297989D02*
D03*
X769350Y303289D02*
D03*
X777895Y298673D02*
D03*
X787795D02*
D03*
X797580D02*
D03*
X807480D02*
D03*
X817265D02*
D03*
X836950D02*
D03*
X846850D02*
D03*
X856635D02*
D03*
X866535D02*
D03*
X1033801D02*
D03*
X1024016D02*
D03*
X1014116D02*
D03*
X1004331D02*
D03*
X994431D02*
D03*
X974746D02*
D03*
X964961D02*
D03*
X955061D02*
D03*
X945276D02*
D03*
X925591D02*
D03*
X905906D02*
D03*
X896006D02*
D03*
X876320D02*
D03*
X984646Y288830D02*
D03*
X935433D02*
D03*
X827165D02*
D03*
X748100Y292189D02*
D03*
X699213Y288830D02*
D03*
X679528D02*
D03*
X689370D02*
D03*
X640158D02*
D03*
X561417D02*
D03*
X512205D02*
D03*
X423565D02*
D03*
X462935D02*
D03*
X472835D02*
D03*
X482620D02*
D03*
X492520D02*
D03*
X502305D02*
D03*
X521990D02*
D03*
X531890D02*
D03*
X541675D02*
D03*
X551575D02*
D03*
X571260D02*
D03*
X581045D02*
D03*
X590945D02*
D03*
X600730D02*
D03*
X610630D02*
D03*
X620415D02*
D03*
X630315D02*
D03*
X650000D02*
D03*
X659785D02*
D03*
X669685D02*
D03*
X707200Y291939D02*
D03*
X718300Y290850D02*
D03*
X758210Y288830D02*
D03*
X768110D02*
D03*
X777895D02*
D03*
X787795D02*
D03*
X797580D02*
D03*
X807480D02*
D03*
X817265D02*
D03*
X836950D02*
D03*
X846850D02*
D03*
X856635D02*
D03*
X866535D02*
D03*
X1033801D02*
D03*
X993650Y290500D02*
D03*
X974746Y288830D02*
D03*
X964961D02*
D03*
X955061D02*
D03*
X945276D02*
D03*
X925591D02*
D03*
X915691D02*
D03*
X905906D02*
D03*
X896006D02*
D03*
X886220D02*
D03*
X876320D02*
D03*
X610630Y278988D02*
D03*
X1033801D02*
D03*
X748425Y269145D02*
D03*
X610630D02*
D03*
X1033801D02*
D03*
X984646Y259303D02*
D03*
X935433D02*
D03*
X827165D02*
D03*
X748450Y261339D02*
D03*
X699213Y259303D02*
D03*
X679528D02*
D03*
X689370D02*
D03*
X640157D02*
D03*
X561417D02*
D03*
X512205D02*
D03*
X433464D02*
D03*
X443250D02*
D03*
X453150D02*
D03*
X462935D02*
D03*
X472835D02*
D03*
X482620D02*
D03*
X492520D02*
D03*
X502305D02*
D03*
X521990D02*
D03*
X531890D02*
D03*
X541675D02*
D03*
X551575D02*
D03*
X571260D02*
D03*
X581045D02*
D03*
X590945D02*
D03*
X600730D02*
D03*
X610630D02*
D03*
X620415D02*
D03*
X630315D02*
D03*
X650000D02*
D03*
X659785D02*
D03*
X669685D02*
D03*
X707300Y262450D02*
D03*
X728700Y258539D02*
D03*
X738350Y261339D02*
D03*
X759300Y264139D02*
D03*
X768650D02*
D03*
X777895Y259303D02*
D03*
X787795D02*
D03*
X797580D02*
D03*
X807480D02*
D03*
X817265D02*
D03*
X836950D02*
D03*
X846850D02*
D03*
X856635D02*
D03*
X866535D02*
D03*
X1033801D02*
D03*
X1024016D02*
D03*
X994431D02*
D03*
X974746D02*
D03*
X964961D02*
D03*
X955061D02*
D03*
X945275D02*
D03*
X925591D02*
D03*
X915691D02*
D03*
X905906D02*
D03*
X896006D02*
D03*
X886220D02*
D03*
X876320D02*
D03*
X817350Y387639D02*
D03*
X695700Y341039D02*
D03*
X682400Y341889D02*
D03*
X680400Y344289D02*
D03*
X686850Y361889D02*
D03*
X674200Y341889D02*
D03*
X671250Y344389D02*
D03*
X676500Y351089D02*
D03*
X776200Y381750D02*
D03*
X771908Y391397D02*
D03*
X774400Y390989D02*
D03*
X777900Y368139D02*
D03*
X758500Y367989D02*
D03*
X670150Y354339D02*
D03*
X665300Y351689D02*
D03*
X662000Y351839D02*
D03*
X655650Y361689D02*
D03*
X660200Y364089D02*
D03*
X651500Y354789D02*
D03*
X648350Y361189D02*
D03*
X641650Y393989D02*
D03*
X650950Y364139D02*
D03*
X628050Y381039D02*
D03*
X631800Y392089D02*
D03*
X626100Y391239D02*
D03*
X621900Y392289D02*
D03*
X612650Y400939D02*
D03*
X619050Y380739D02*
D03*
X611050Y383139D02*
D03*
X595700Y380689D02*
D03*
X592450Y373739D02*
D03*
X598700Y371039D02*
D03*
X590000Y361439D02*
D03*
X586100Y361639D02*
D03*
X582950Y362139D02*
D03*
X576250Y360939D02*
D03*
X580750Y352089D02*
D03*
X573450Y361089D02*
D03*
X670050Y328189D02*
D03*
X610800Y341239D02*
D03*
X641296Y373968D02*
D03*
X816600Y401239D02*
D03*
X812570Y400868D02*
D03*
X808550Y402689D02*
D03*
X791300Y400539D02*
D03*
X797910Y393768D02*
D03*
X803660Y400768D02*
D03*
X800900Y400639D02*
D03*
X807950Y394239D02*
D03*
X793800Y401189D02*
D03*
X846500Y371250D02*
D03*
X782533Y390546D02*
D03*
X880800Y322089D02*
D03*
X878350Y321289D02*
D03*
X883650Y322539D02*
D03*
X874800Y322218D02*
D03*
X872261Y322118D02*
D03*
X869161Y322368D02*
D03*
X858650Y322939D02*
D03*
X855261Y332418D02*
D03*
X849661Y331868D02*
D03*
X841800Y331339D02*
D03*
X807750Y341189D02*
D03*
X838950Y331689D02*
D03*
X846850Y334089D02*
D03*
X832100Y331339D02*
D03*
X829850Y332539D02*
D03*
X834811Y332068D02*
D03*
X838147Y373968D02*
D03*
X758750Y374389D02*
D03*
X739600Y363239D02*
D03*
X743411Y371418D02*
D03*
X739850Y372189D02*
D03*
X749600Y364439D02*
D03*
X734961Y371268D02*
D03*
X732200Y371339D02*
D03*
X502050Y537639D02*
D03*
X494359Y538539D02*
D03*
X970050Y538639D02*
D03*
X966800Y538539D02*
D03*
X974100Y537589D02*
D03*
X-163660Y512456D02*
D03*
X-155310Y506456D02*
D03*
X-171160Y503306D02*
D03*
X-173710Y504106D02*
D03*
X947041Y537539D02*
D03*
X955391Y531539D02*
D03*
X939541Y528389D02*
D03*
X936991Y529189D02*
D03*
X474600Y537539D02*
D03*
X482950Y531539D02*
D03*
X467100Y528389D02*
D03*
X464550Y529189D02*
D03*
X1038700Y459889D02*
D03*
X1036250Y459239D02*
D03*
X1041593Y460389D02*
D03*
X1032691Y459989D02*
D03*
X1029741Y459889D02*
D03*
X1026641Y460139D02*
D03*
X1020813Y459712D02*
D03*
X1017991Y459289D02*
D03*
X1012741Y470189D02*
D03*
X1009891Y469089D02*
D03*
X1007141Y469639D02*
D03*
X998791Y469689D02*
D03*
X945700Y479139D02*
D03*
X996241Y470789D02*
D03*
X1004500Y472339D02*
D03*
X989700Y469739D02*
D03*
X987100Y469000D02*
D03*
X992291Y469839D02*
D03*
X980741Y479489D02*
D03*
X982441Y489389D02*
D03*
X961141Y538539D02*
D03*
X956191Y540789D02*
D03*
X965691Y531239D02*
D03*
X950891Y538589D02*
D03*
X984241Y509539D02*
D03*
X975942Y511739D02*
D03*
X943141Y528139D02*
D03*
X929891Y518839D02*
D03*
X927300Y519139D02*
D03*
X934500Y519489D02*
D03*
X920941Y518839D02*
D03*
X917991Y519189D02*
D03*
X923900Y519189D02*
D03*
X911941Y509239D02*
D03*
X915941Y509089D02*
D03*
X908941Y509239D02*
D03*
X900891Y509189D02*
D03*
X897850Y508800D02*
D03*
X906300Y501739D02*
D03*
X889617Y499199D02*
D03*
X567000Y459589D02*
D03*
X564200Y459889D02*
D03*
X569550Y459900D02*
D03*
X560350Y459650D02*
D03*
X557350Y459500D02*
D03*
X554700Y459450D02*
D03*
X548373Y459712D02*
D03*
X545550Y459289D02*
D03*
X540300Y470189D02*
D03*
X537550Y469800D02*
D03*
X535000D02*
D03*
X526350Y469689D02*
D03*
X473150Y479189D02*
D03*
X482677Y475039D02*
D03*
X492550Y474239D02*
D03*
X502400Y474389D02*
D03*
X523800Y470789D02*
D03*
X532100Y472289D02*
D03*
X517100Y469089D02*
D03*
X514150Y469189D02*
D03*
X519850Y469839D02*
D03*
X508450Y479850D02*
D03*
X510000Y489389D02*
D03*
X504150Y472439D02*
D03*
X491800Y538489D02*
D03*
X488700Y538539D02*
D03*
X483750Y540789D02*
D03*
X493250Y531239D02*
D03*
X478450Y538589D02*
D03*
X511800Y509539D02*
D03*
X503501Y511739D02*
D03*
X503950Y519539D02*
D03*
X470700Y528139D02*
D03*
X457450Y518839D02*
D03*
X455100Y520000D02*
D03*
X462200Y519339D02*
D03*
X448500Y518839D02*
D03*
X445550Y519189D02*
D03*
X511128Y517589D02*
D03*
X501800D02*
D03*
X492392Y517939D02*
D03*
X439500Y509239D02*
D03*
X443500Y509089D02*
D03*
X436500Y509239D02*
D03*
X748300Y514889D02*
D03*
X687262Y517677D02*
D03*
X482500Y518389D02*
D03*
X610630Y515208D02*
D03*
X709250Y513039D02*
D03*
X720450Y518466D02*
D03*
X728740Y515208D02*
D03*
X736475Y517514D02*
D03*
X758300Y513489D02*
D03*
X769400Y518589D02*
D03*
X1033801Y515208D02*
D03*
X965500Y517850D02*
D03*
X954800Y518139D02*
D03*
X984646Y525451D02*
D03*
X935450Y525439D02*
D03*
X827165Y525051D02*
D03*
X747600Y528589D02*
D03*
X699213Y525051D02*
D03*
X679528D02*
D03*
X687262Y527202D02*
D03*
X640158Y525051D02*
D03*
X561417D02*
D03*
X512200Y525489D02*
D03*
X423565Y525051D02*
D03*
X433465D02*
D03*
X443250D02*
D03*
X453150D02*
D03*
X462935D02*
D03*
X472850Y525389D02*
D03*
X482600D02*
D03*
X492520Y525051D02*
D03*
X502305D02*
D03*
X521990D02*
D03*
X531890D02*
D03*
X541675D02*
D03*
X551600Y524650D02*
D03*
X581045Y525051D02*
D03*
X590945D02*
D03*
X610630D02*
D03*
X618300Y527839D02*
D03*
X630315Y525051D02*
D03*
X650600Y529539D02*
D03*
X659785Y525051D02*
D03*
X669685D02*
D03*
X709055D02*
D03*
X720200Y528839D02*
D03*
X728740Y525051D02*
D03*
X736475Y527514D02*
D03*
X758850Y530939D02*
D03*
X769000Y531089D02*
D03*
X777895Y525051D02*
D03*
X787795D02*
D03*
X797580D02*
D03*
X807480Y525051D02*
D03*
X817265Y525051D02*
D03*
X837650Y530389D02*
D03*
X847600Y529489D02*
D03*
X856635Y525051D02*
D03*
X866535D02*
D03*
X1033801D02*
D03*
X1024016D02*
D03*
X1014950Y521439D02*
D03*
X1004300Y524750D02*
D03*
X994431Y525051D02*
D03*
X974746D02*
D03*
X964961D02*
D03*
X955061Y525451D02*
D03*
X945300Y525389D02*
D03*
X925591Y525051D02*
D03*
X915691D02*
D03*
X905906D02*
D03*
X896006D02*
D03*
X886220D02*
D03*
X876320D02*
D03*
X984646Y534893D02*
D03*
X935433D02*
D03*
X827165D02*
D03*
X748425D02*
D03*
X679528D02*
D03*
X689370D02*
D03*
X640158D02*
D03*
X561417D02*
D03*
X512205D02*
D03*
X423565D02*
D03*
X443250D02*
D03*
X453150D02*
D03*
X462935D02*
D03*
X472835D02*
D03*
X482620D02*
D03*
X492520D02*
D03*
X502305D02*
D03*
X521990D02*
D03*
X531890D02*
D03*
X541675D02*
D03*
X551575D02*
D03*
X571260D02*
D03*
X581045D02*
D03*
X590945D02*
D03*
X600730D02*
D03*
X610630D02*
D03*
X620415D02*
D03*
X630315D02*
D03*
X650000D02*
D03*
X659785D02*
D03*
X669685D02*
D03*
X709250Y528539D02*
D03*
X719300Y531189D02*
D03*
X728740Y534893D02*
D03*
X739500Y531139D02*
D03*
X758210Y534893D02*
D03*
X768110D02*
D03*
X787795D02*
D03*
X797580D02*
D03*
X807480D02*
D03*
X817265D02*
D03*
X836950D02*
D03*
X846850D02*
D03*
X856635D02*
D03*
X866535D02*
D03*
X1033801D02*
D03*
X1024016D02*
D03*
X1014116D02*
D03*
X1004331D02*
D03*
X994500Y529339D02*
D03*
X974746Y534893D02*
D03*
X964961D02*
D03*
X955061D02*
D03*
X945276D02*
D03*
X925591D02*
D03*
X915691D02*
D03*
X905906D02*
D03*
X896006D02*
D03*
X886200Y534600D02*
D03*
X876320Y534893D02*
D03*
X984646Y544736D02*
D03*
X935433D02*
D03*
X827165D02*
D03*
X748425D02*
D03*
X699213D02*
D03*
X689370D02*
D03*
X640158D02*
D03*
X561417D02*
D03*
X512205D02*
D03*
X423565D02*
D03*
X433465D02*
D03*
X443250D02*
D03*
X453150D02*
D03*
X462935D02*
D03*
X472835D02*
D03*
X482620D02*
D03*
X492520D02*
D03*
X502305D02*
D03*
X521990D02*
D03*
X531890D02*
D03*
X541675D02*
D03*
X551575D02*
D03*
X571260D02*
D03*
X581045D02*
D03*
X590945D02*
D03*
X600730D02*
D03*
X610630D02*
D03*
X620415D02*
D03*
X630315D02*
D03*
X650000D02*
D03*
X659785D02*
D03*
X669685D02*
D03*
X709055D02*
D03*
X718840D02*
D03*
X728740D02*
D03*
X738525D02*
D03*
X758210D02*
D03*
X768110D02*
D03*
X777895D02*
D03*
X787795D02*
D03*
X797580D02*
D03*
X807480D02*
D03*
X817265D02*
D03*
X836950D02*
D03*
X846850D02*
D03*
X856635D02*
D03*
X866535D02*
D03*
X1033801D02*
D03*
X1024016D02*
D03*
X1014116D02*
D03*
X1004331D02*
D03*
X991300Y547739D02*
D03*
X974746Y544736D02*
D03*
X964961Y544736D02*
D03*
X955061D02*
D03*
X945276D02*
D03*
X925591D02*
D03*
X915691D02*
D03*
X905906D02*
D03*
X896006D02*
D03*
X886220D02*
D03*
X876320D02*
D03*
X984646Y554578D02*
D03*
X935433D02*
D03*
X827165D02*
D03*
X748425D02*
D03*
X699213D02*
D03*
X679528D02*
D03*
X689370D02*
D03*
X640158D02*
D03*
X561417D02*
D03*
X512205D02*
D03*
X423565D02*
D03*
X433465D02*
D03*
X462935D02*
D03*
X472835D02*
D03*
X482620D02*
D03*
X492520D02*
D03*
X502305D02*
D03*
X521990D02*
D03*
X531890D02*
D03*
X541675D02*
D03*
X551575D02*
D03*
X571260D02*
D03*
X581045D02*
D03*
X590945D02*
D03*
X600730D02*
D03*
X610630D02*
D03*
X620415D02*
D03*
X630315D02*
D03*
X650000D02*
D03*
X659785D02*
D03*
X669685D02*
D03*
X709055D02*
D03*
X716700Y556789D02*
D03*
X728740Y554578D02*
D03*
X758210D02*
D03*
X768110D02*
D03*
X777895D02*
D03*
X787795D02*
D03*
X797580D02*
D03*
X807480D02*
D03*
X817265D02*
D03*
X836950D02*
D03*
X846850D02*
D03*
X856635D02*
D03*
X866535D02*
D03*
X1033801D02*
D03*
X1023750Y557489D02*
D03*
X1014116Y554578D02*
D03*
X1004331D02*
D03*
X994431D02*
D03*
X974746D02*
D03*
X964961D02*
D03*
X955061D02*
D03*
X945276D02*
D03*
X925591D02*
D03*
X915691D02*
D03*
X905906D02*
D03*
X896006D02*
D03*
X886220D02*
D03*
X876320D02*
D03*
X699950Y560689D02*
D03*
X689434Y564407D02*
D03*
X610694D02*
D03*
X710050Y560689D02*
D03*
X719650Y560939D02*
D03*
X1033865Y564407D02*
D03*
X915755D02*
D03*
X428450Y509189D02*
D03*
X425050Y501439D02*
D03*
X433800Y501389D02*
D03*
X420000Y509039D02*
D03*
X417298Y558448D02*
D03*
X417298Y538869D02*
D03*
X417176Y528778D02*
D03*
Y518957D02*
D03*
X417176Y509253D02*
D03*
X417176Y499199D02*
D03*
Y489496D02*
D03*
Y479840D02*
D03*
Y469832D02*
D03*
Y459917D02*
D03*
Y449840D02*
D03*
Y440230D02*
D03*
Y430316D02*
D03*
Y420706D02*
D03*
Y410722D02*
D03*
Y400902D02*
D03*
Y390731D02*
D03*
Y381331D02*
D03*
Y371465D02*
D03*
Y351682D02*
D03*
Y341862D02*
D03*
Y331808D02*
D03*
Y322291D02*
D03*
Y312447D02*
D03*
Y302651D02*
D03*
Y292667D02*
D03*
Y282963D02*
D03*
Y273115D02*
D03*
X417176Y263404D02*
D03*
X417175Y361480D02*
D03*
X417298Y548605D02*
D03*
X860650Y321389D02*
D03*
X1024016Y465996D02*
D03*
X1014116D02*
D03*
X964961D02*
D03*
X935433D02*
D03*
X925591D02*
D03*
X915691D02*
D03*
X905906D02*
D03*
X896006D02*
D03*
X886220D02*
D03*
X876320D02*
D03*
X866535D02*
D03*
X856635D02*
D03*
X846850D02*
D03*
X836950D02*
D03*
X827165D02*
D03*
X817265D02*
D03*
X807480D02*
D03*
X797580D02*
D03*
X787795D02*
D03*
X777895D02*
D03*
X748425D02*
D03*
X728740D02*
D03*
X709055D02*
D03*
X699213D02*
D03*
X679528D02*
D03*
X669685D02*
D03*
X659785D02*
D03*
X640150Y465189D02*
D03*
X630315Y465996D02*
D03*
X600730D02*
D03*
X590945D02*
D03*
X581045D02*
D03*
X571260D02*
D03*
X561417D02*
D03*
X551575D02*
D03*
X541675D02*
D03*
X512205D02*
D03*
X502305D02*
D03*
X462935D02*
D03*
X453150D02*
D03*
X443250D02*
D03*
X433465D02*
D03*
X423565D02*
D03*
X618800Y469239D02*
D03*
X679200Y361189D02*
D03*
X531250Y479000D02*
D03*
X483500Y492089D02*
D03*
X493500D02*
D03*
X483500Y500289D02*
D03*
X493500D02*
D03*
X621295Y354318D02*
D03*
X631295Y354318D02*
D03*
X621295Y362518D02*
D03*
X631295D02*
D03*
X818146Y354318D02*
D03*
X828146Y354318D02*
D03*
X818146Y362518D02*
D03*
X828146D02*
D03*
X955941Y492089D02*
D03*
X965941Y492089D02*
D03*
X955941Y500289D02*
D03*
X965941D02*
D03*
X629150Y449539D02*
D03*
X669658Y386853D02*
D03*
X660000Y375489D02*
D03*
X669842D02*
D03*
X679685D02*
D03*
X757250Y361089D02*
D03*
X760050D02*
D03*
X778850Y354489D02*
D03*
X700350Y304089D02*
D03*
X778250Y402239D02*
D03*
X787050Y400589D02*
D03*
X789350Y410489D02*
D03*
X776850Y410439D02*
D03*
X779550Y410489D02*
D03*
X786800Y410389D02*
D03*
X749950Y401239D02*
D03*
X758750Y410589D02*
D03*
X639550Y448289D02*
D03*
X984646Y269145D02*
D03*
X974746D02*
D03*
X964961D02*
D03*
X955061D02*
D03*
X945275D02*
D03*
X935433D02*
D03*
X925591D02*
D03*
X915691D02*
D03*
X905906D02*
D03*
X896006D02*
D03*
X886220D02*
D03*
X876320D02*
D03*
X866535D02*
D03*
X856635D02*
D03*
X846850D02*
D03*
X836950D02*
D03*
X827165D02*
D03*
X817265D02*
D03*
X807480D02*
D03*
X797580D02*
D03*
X787795D02*
D03*
X777895D02*
D03*
X768110D02*
D03*
X758210D02*
D03*
X709050Y267939D02*
D03*
X699213Y269145D02*
D03*
X689370D02*
D03*
X679528D02*
D03*
X669685D02*
D03*
X659785D02*
D03*
X650000D02*
D03*
X640157D02*
D03*
X630315D02*
D03*
X620415D02*
D03*
X600730D02*
D03*
X590945D02*
D03*
X581045D02*
D03*
X571260D02*
D03*
X561417D02*
D03*
X551575D02*
D03*
X541675D02*
D03*
X531890D02*
D03*
X521990D02*
D03*
X512205D02*
D03*
X502305D02*
D03*
X492520D02*
D03*
X482620D02*
D03*
X472835D02*
D03*
X462935D02*
D03*
X423564D02*
D03*
X757650Y260939D02*
D03*
X767850Y260739D02*
D03*
X757900Y272539D02*
D03*
X749650Y272839D02*
D03*
X699550Y292639D02*
D03*
X729550Y294839D02*
D03*
X708850Y283189D02*
D03*
X797850Y335889D02*
D03*
X807950Y335339D02*
D03*
X420150Y261289D02*
D03*
X422550Y262839D02*
D03*
X1041350Y556539D02*
D03*
Y546697D02*
D03*
Y536854D02*
D03*
Y527012D02*
D03*
Y517169D02*
D03*
Y507327D02*
D03*
Y497484D02*
D03*
Y487642D02*
D03*
Y477799D02*
D03*
Y467957D02*
D03*
Y448272D02*
D03*
X1041350Y438429D02*
D03*
Y428586D02*
D03*
X1041350Y418744D02*
D03*
Y408902D02*
D03*
Y399059D02*
D03*
Y389216D02*
D03*
Y379374D02*
D03*
Y369531D02*
D03*
Y359689D02*
D03*
Y349846D02*
D03*
Y340004D02*
D03*
Y330161D02*
D03*
Y320319D02*
D03*
Y310476D02*
D03*
Y300634D02*
D03*
Y290791D02*
D03*
Y280949D02*
D03*
Y271106D02*
D03*
Y261264D02*
D03*
X987500Y548139D02*
D03*
X989200Y558339D02*
D03*
X994900Y479250D02*
D03*
X846823Y337640D02*
D03*
X836923D02*
D03*
X660900Y342889D02*
D03*
X808350Y321339D02*
D03*
X1041800Y457839D02*
D03*
X738600Y554289D02*
D03*
X699700Y528839D02*
D03*
X1034500Y560239D02*
D03*
X1037550Y548289D02*
D03*
X1037650Y557789D02*
D03*
X777868Y317955D02*
D03*
X443800Y558539D02*
D03*
X433250Y528839D02*
D03*
X453350Y558989D02*
D03*
X522500Y492089D02*
D03*
X1024080Y564407D02*
D03*
X1014180D02*
D03*
X1004395D02*
D03*
X994495D02*
D03*
X984710D02*
D03*
X974810D02*
D03*
X965025D02*
D03*
X955125D02*
D03*
X945340D02*
D03*
X935497D02*
D03*
X925655D02*
D03*
X905970D02*
D03*
X896070D02*
D03*
X886285D02*
D03*
X876385D02*
D03*
X866600D02*
D03*
X856700D02*
D03*
X846914D02*
D03*
X837014D02*
D03*
X827229D02*
D03*
X817330D02*
D03*
X807544D02*
D03*
X797644D02*
D03*
X787859D02*
D03*
X777959D02*
D03*
X768174D02*
D03*
X758274D02*
D03*
X748489D02*
D03*
X738589D02*
D03*
X728804Y563779D02*
D03*
X679592Y564407D02*
D03*
X669749D02*
D03*
X620479D02*
D03*
X600794D02*
D03*
X591009D02*
D03*
X581109D02*
D03*
X571324D02*
D03*
X561481D02*
D03*
X551639D02*
D03*
X541739D02*
D03*
X531954D02*
D03*
X522054D02*
D03*
X512269D02*
D03*
X502369D02*
D03*
X492584D02*
D03*
X482684D02*
D03*
X472899D02*
D03*
X462999D02*
D03*
X453214D02*
D03*
X443314D02*
D03*
X433529D02*
D03*
X423629D02*
D03*
X631100Y735950D02*
D03*
X590400Y646850D02*
D03*
X591150Y588450D02*
D03*
X590250Y607050D02*
D03*
X718950Y576200D02*
D03*
Y572550D02*
D03*
X710350Y577550D02*
D03*
X712150Y587000D02*
D03*
X713100Y597800D02*
D03*
X708050Y587300D02*
D03*
X704500Y606700D02*
D03*
X945650Y775300D02*
D03*
X687200Y763450D02*
D03*
X679542Y762000D02*
D03*
X669700D02*
D03*
X659850Y762050D02*
D03*
X502900Y754650D02*
D03*
X896006Y643161D02*
D03*
X905906D02*
D03*
X925591D02*
D03*
X935433D02*
D03*
X994431D02*
D03*
X1004331D02*
D03*
X1014116D02*
D03*
X1024016D02*
D03*
X728750Y606750D02*
D03*
X728650Y593550D02*
D03*
X719650Y757950D02*
D03*
X738550Y706700D02*
D03*
X718750Y685150D02*
D03*
X727750Y684850D02*
D03*
X729650Y695600D02*
D03*
X738550Y695500D02*
D03*
X729400Y716700D02*
D03*
X728500Y675650D02*
D03*
X729500Y659050D02*
D03*
X728450Y647300D02*
D03*
X720150Y637250D02*
D03*
X728450Y637300D02*
D03*
X748750Y617100D02*
D03*
X757950Y617050D02*
D03*
X728700Y783850D02*
D03*
Y793850D02*
D03*
X739400Y797500D02*
D03*
X729300Y796950D02*
D03*
X739200Y807200D02*
D03*
X727750Y841800D02*
D03*
X728650Y833650D02*
D03*
X739200Y822700D02*
D03*
X739250Y747050D02*
D03*
X728300Y744800D02*
D03*
X728750Y751000D02*
D03*
X729300Y738900D02*
D03*
X729500Y747850D02*
D03*
X621250Y738100D02*
D03*
X610550Y764450D02*
D03*
X825350Y725000D02*
D03*
X818550Y725400D02*
D03*
X821179Y725220D02*
D03*
X858550Y804900D02*
D03*
X857200Y817800D02*
D03*
X856700Y810150D02*
D03*
X825500Y813550D02*
D03*
X837850Y814150D02*
D03*
X866000Y833850D02*
D03*
X847250Y725900D02*
D03*
X728713Y682128D02*
D03*
X856693Y662443D02*
D03*
X866550Y662450D02*
D03*
X876350Y643500D02*
D03*
X866500Y643550D02*
D03*
X463600Y669550D02*
D03*
X669500Y674950D02*
D03*
X659300Y674750D02*
D03*
X877350Y668150D02*
D03*
X867100Y825650D02*
D03*
X877178Y688928D02*
D03*
X602200Y844100D02*
D03*
X602100Y834200D02*
D03*
X569139Y812530D02*
D03*
Y822373D02*
D03*
X569150Y832750D02*
D03*
X569139Y842058D02*
D03*
X778750Y649650D02*
D03*
X709055Y633319D02*
D03*
X917250Y617600D02*
D03*
X884100Y615680D02*
D03*
X917050Y627500D02*
D03*
X916950Y637400D02*
D03*
X917900Y647200D02*
D03*
X915100Y655650D02*
D03*
X884137Y635000D02*
D03*
X884100Y625522D02*
D03*
Y645208D02*
D03*
X896100Y652750D02*
D03*
X884400Y655500D02*
D03*
X522900Y826450D02*
D03*
X433437Y810081D02*
D03*
X443222D02*
D03*
X453122D02*
D03*
X454050Y804600D02*
D03*
X464700Y686950D02*
D03*
X874150Y705350D02*
D03*
X895950Y685600D02*
D03*
X1015550Y689000D02*
D03*
X1015300Y826050D02*
D03*
X618364Y715550D02*
D03*
X423537Y829766D02*
D03*
X433437D02*
D03*
X443222D02*
D03*
X453150Y830250D02*
D03*
X462950Y830200D02*
D03*
X472807Y829766D02*
D03*
X521962D02*
D03*
X531862D02*
D03*
X541647D02*
D03*
X551384D02*
D03*
X561390D02*
D03*
X581017D02*
D03*
X590917D02*
D03*
X618650Y833550D02*
D03*
X630100Y833150D02*
D03*
X640130Y829766D02*
D03*
X651550Y834100D02*
D03*
X659758Y829766D02*
D03*
X669658D02*
D03*
X679500D02*
D03*
X699185D02*
D03*
X748450Y810150D02*
D03*
X521962Y810081D02*
D03*
X531862D02*
D03*
X541647D02*
D03*
X551384D02*
D03*
X561390D02*
D03*
X581017D02*
D03*
X590917D02*
D03*
X621150Y806300D02*
D03*
X630287Y810081D02*
D03*
X641350Y815300D02*
D03*
X651250Y814150D02*
D03*
X658650Y814000D02*
D03*
X669150Y814050D02*
D03*
X679500Y810081D02*
D03*
X699185D02*
D03*
X709800Y814300D02*
D03*
X728000Y814100D02*
D03*
X777868Y810081D02*
D03*
X787768D02*
D03*
X807453D02*
D03*
X817238D02*
D03*
X846650Y812450D02*
D03*
X866508Y810081D02*
D03*
X876293D02*
D03*
X886193D02*
D03*
X895978D02*
D03*
X905878D02*
D03*
X915663D02*
D03*
X925563D02*
D03*
X935406D02*
D03*
X1023988Y829766D02*
D03*
X1014088D02*
D03*
X1004303D02*
D03*
X994403D02*
D03*
X984618D02*
D03*
X974400Y831700D02*
D03*
X945248Y829766D02*
D03*
X935406D02*
D03*
X925563D02*
D03*
X915663D02*
D03*
X905878D02*
D03*
X895978D02*
D03*
X886193D02*
D03*
X876293D02*
D03*
X866508D02*
D03*
X857300Y826900D02*
D03*
X846823Y829766D02*
D03*
X836923D02*
D03*
X825200Y832350D02*
D03*
X817238Y829766D02*
D03*
X807453D02*
D03*
X797553D02*
D03*
X787768D02*
D03*
X777868D02*
D03*
X423565Y593948D02*
D03*
X433465D02*
D03*
X443250D02*
D03*
X453150D02*
D03*
X462935D02*
D03*
X472835D02*
D03*
X482620D02*
D03*
X492520D02*
D03*
X502305D02*
D03*
X512205D02*
D03*
X521990D02*
D03*
X531890D02*
D03*
X541675D02*
D03*
X551575D02*
D03*
X561417D02*
D03*
X571260D02*
D03*
X581045D02*
D03*
X590945D02*
D03*
X600730D02*
D03*
X620415D02*
D03*
X630315D02*
D03*
X640158D02*
D03*
X650000D02*
D03*
X659785D02*
D03*
X669685D02*
D03*
X679528D02*
D03*
X689370D02*
D03*
X699213D02*
D03*
X709100Y593750D02*
D03*
X718750Y595750D02*
D03*
X738525Y593948D02*
D03*
X749050Y597500D02*
D03*
X758210Y593948D02*
D03*
X768110D02*
D03*
X777895D02*
D03*
X787795D02*
D03*
X797580D02*
D03*
X807480D02*
D03*
X817265D02*
D03*
X827165D02*
D03*
X836950D02*
D03*
X846850D02*
D03*
X856635D02*
D03*
X866535D02*
D03*
X876320D02*
D03*
X886220D02*
D03*
X896006D02*
D03*
X905906D02*
D03*
X915691D02*
D03*
X925591D02*
D03*
X935433D02*
D03*
X945276D02*
D03*
X955061D02*
D03*
X964961D02*
D03*
X974746D02*
D03*
X984646D02*
D03*
X994431D02*
D03*
X1004331D02*
D03*
X1014116D02*
D03*
X1024016D02*
D03*
X728750Y584450D02*
D03*
X738525Y810484D02*
D03*
X846300Y695500D02*
D03*
X649700Y695550D02*
D03*
X615400Y715900D02*
D03*
X836950Y702216D02*
D03*
X846850D02*
D03*
X856635D02*
D03*
X866535D02*
D03*
X876320D02*
D03*
X886220D02*
D03*
X896006D02*
D03*
X905906D02*
D03*
X915691D02*
D03*
X925591D02*
D03*
X935433D02*
D03*
X945276D02*
D03*
X955061D02*
D03*
X964961D02*
D03*
X974746D02*
D03*
X984646D02*
D03*
X994431D02*
D03*
X1004331D02*
D03*
X1014116D02*
D03*
X1024016D02*
D03*
X602350Y698700D02*
D03*
X606500Y705450D02*
D03*
X532250Y696900D02*
D03*
X473650Y668750D02*
D03*
X472950Y677200D02*
D03*
X532200Y686900D02*
D03*
X473300Y696950D02*
D03*
X532800Y707050D02*
D03*
X533150Y727000D02*
D03*
X904550Y666150D02*
D03*
X916150Y666400D02*
D03*
X924350Y666150D02*
D03*
X926300Y668950D02*
D03*
X917150Y675900D02*
D03*
X905200Y696350D02*
D03*
X915500Y705750D02*
D03*
X995300Y686900D02*
D03*
X926400Y687000D02*
D03*
X995300Y696900D02*
D03*
Y706900D02*
D03*
X926650Y707000D02*
D03*
X995000Y726900D02*
D03*
X916800Y727200D02*
D03*
X994950Y716950D02*
D03*
X926650Y717000D02*
D03*
X896100Y671650D02*
D03*
Y692000D02*
D03*
Y681850D02*
D03*
X637300Y705550D02*
D03*
X636005Y715950D02*
D03*
X650550Y687450D02*
D03*
X453350Y826550D02*
D03*
X423600Y806900D02*
D03*
X974650Y784800D02*
D03*
X757450Y822450D02*
D03*
X985000Y818000D02*
D03*
X935433Y820326D02*
D03*
X827200Y820000D02*
D03*
X748425Y820326D02*
D03*
X698400Y823350D02*
D03*
X679528Y820326D02*
D03*
X687262Y822910D02*
D03*
X639550Y822950D02*
D03*
X561417Y820326D02*
D03*
X512205D02*
D03*
X423565D02*
D03*
X433465D02*
D03*
X443250D02*
D03*
X453150D02*
D03*
X462935D02*
D03*
X521990D02*
D03*
X531890D02*
D03*
X541675D02*
D03*
X551575D02*
D03*
X581045D02*
D03*
X590945D02*
D03*
X610100Y822400D02*
D03*
X621150Y817150D02*
D03*
X630700Y816850D02*
D03*
X659785Y820326D02*
D03*
X669685D02*
D03*
X709055D02*
D03*
X720200Y823798D02*
D03*
X728740Y820326D02*
D03*
X736475Y822200D02*
D03*
X768000Y822500D02*
D03*
X777895Y820326D02*
D03*
X787795D02*
D03*
X797580D02*
D03*
X807480D02*
D03*
X817265D02*
D03*
X836950D02*
D03*
X847250Y817700D02*
D03*
X866535Y820326D02*
D03*
X1033801D02*
D03*
X1024016D02*
D03*
X1014116D02*
D03*
X1004331D02*
D03*
X994431D02*
D03*
X925591D02*
D03*
X915691D02*
D03*
X905906D02*
D03*
X896006D02*
D03*
X886220D02*
D03*
X876320D02*
D03*
X757500Y773050D02*
D03*
X984646Y770311D02*
D03*
X935433Y771114D02*
D03*
X827165D02*
D03*
X748425D02*
D03*
X699213D02*
D03*
X679528D02*
D03*
X688600Y772850D02*
D03*
X640200Y769750D02*
D03*
X561417Y771114D02*
D03*
X512205D02*
D03*
X423565D02*
D03*
X433465D02*
D03*
X443250D02*
D03*
X453150D02*
D03*
X462935D02*
D03*
X472850Y770700D02*
D03*
X482620Y771114D02*
D03*
X492520D02*
D03*
X502305D02*
D03*
X520900Y772750D02*
D03*
X531890Y771114D02*
D03*
X541675D02*
D03*
X551575D02*
D03*
X571260D02*
D03*
X581045D02*
D03*
X590945D02*
D03*
X600730D02*
D03*
X610630D02*
D03*
X621300Y777300D02*
D03*
X631300D02*
D03*
X709055Y771114D02*
D03*
X718500Y772785D02*
D03*
X728740Y771114D02*
D03*
X738150Y772800D02*
D03*
X767450Y773250D02*
D03*
X777895Y771114D02*
D03*
X787795D02*
D03*
X797580D02*
D03*
X807480D02*
D03*
X817265D02*
D03*
X836950D02*
D03*
X846850D02*
D03*
X856635D02*
D03*
X866535D02*
D03*
X1033801D02*
D03*
X1024016D02*
D03*
X1014116D02*
D03*
X1004331D02*
D03*
X994431D02*
D03*
X974746Y770311D02*
D03*
X964961D02*
D03*
X955061Y771114D02*
D03*
X943150Y773300D02*
D03*
X925591Y771114D02*
D03*
X915691D02*
D03*
X905906D02*
D03*
X896006D02*
D03*
X886220D02*
D03*
X876320D02*
D03*
X699350Y645250D02*
D03*
X700050Y629150D02*
D03*
X758950Y628327D02*
D03*
X758800Y610677D02*
D03*
X759050Y649900D02*
D03*
X758300Y633950D02*
D03*
X758950Y716910D02*
D03*
X756200Y704000D02*
D03*
X758950Y756280D02*
D03*
X758800Y738630D02*
D03*
X985350Y807650D02*
D03*
X687262Y812588D02*
D03*
X423565Y810484D02*
D03*
X463400Y807850D02*
D03*
X610300Y810400D02*
D03*
X721450Y814400D02*
D03*
X758900Y806850D02*
D03*
X770350Y814050D02*
D03*
X1033801Y810484D02*
D03*
X1024016Y810484D02*
D03*
X1014116D02*
D03*
X1004331D02*
D03*
X994431D02*
D03*
X497609Y853600D02*
D03*
X770650Y637100D02*
D03*
X770300Y646700D02*
D03*
X543350Y776050D02*
D03*
X689650Y651400D02*
D03*
X984646Y653004D02*
D03*
X935433D02*
D03*
X827150Y651450D02*
D03*
X748425Y653004D02*
D03*
X699213D02*
D03*
X679500Y652600D02*
D03*
X640150Y651600D02*
D03*
X561417Y653004D02*
D03*
X512205D02*
D03*
X423565D02*
D03*
X433465D02*
D03*
X443250D02*
D03*
X453150D02*
D03*
X462935D02*
D03*
X472835D02*
D03*
X482620D02*
D03*
X492520D02*
D03*
X502305D02*
D03*
X521990D02*
D03*
X531890D02*
D03*
X541675D02*
D03*
X551575D02*
D03*
X571260D02*
D03*
X581045D02*
D03*
X590945D02*
D03*
X600730D02*
D03*
X610650Y652100D02*
D03*
X620500Y652150D02*
D03*
X630300Y652000D02*
D03*
X650000Y653004D02*
D03*
X659700Y651850D02*
D03*
X669850Y652650D02*
D03*
X709055Y653004D02*
D03*
X718840D02*
D03*
X728740D02*
D03*
X738525D02*
D03*
X758210D02*
D03*
X768110D02*
D03*
X777895D02*
D03*
X787795D02*
D03*
X817550Y650750D02*
D03*
X856635Y653004D02*
D03*
X866535Y653004D02*
D03*
X1033801D02*
D03*
X1024016D02*
D03*
X1014116D02*
D03*
X1004331D02*
D03*
X994431D02*
D03*
X974746D02*
D03*
X964961D02*
D03*
X955061D02*
D03*
X945276D02*
D03*
X925591D02*
D03*
X905906D02*
D03*
X876320D02*
D03*
X863333Y636901D02*
D03*
X852411Y646278D02*
D03*
X1015791Y776050D02*
D03*
X984646Y731744D02*
D03*
X935433D02*
D03*
X827165D02*
D03*
X748425D02*
D03*
X679528D02*
D03*
X689370D02*
D03*
X640158D02*
D03*
X561417D02*
D03*
X512205D02*
D03*
X423565D02*
D03*
X433465D02*
D03*
X443250D02*
D03*
X453150D02*
D03*
X462935D02*
D03*
X472835D02*
D03*
X482620D02*
D03*
X492520D02*
D03*
X502305D02*
D03*
X521990D02*
D03*
X531890D02*
D03*
X541675D02*
D03*
X551575D02*
D03*
X571260D02*
D03*
X579250Y734200D02*
D03*
X590945Y731744D02*
D03*
X600730D02*
D03*
X609900Y734600D02*
D03*
X618200Y733850D02*
D03*
X630315Y731744D02*
D03*
X650000Y731450D02*
D03*
X659785Y731744D02*
D03*
X669685D02*
D03*
X709055D02*
D03*
X718840D02*
D03*
X728740D02*
D03*
X738525Y732594D02*
D03*
X758210Y731744D02*
D03*
X768110D02*
D03*
X777895D02*
D03*
X787795D02*
D03*
X797580D02*
D03*
X807480D02*
D03*
X817265D02*
D03*
X836950D02*
D03*
X846850D02*
D03*
X856635D02*
D03*
X866535D02*
D03*
X1033801D02*
D03*
X1024016D02*
D03*
X1014116D02*
D03*
X1004331D02*
D03*
X994431D02*
D03*
X974746D02*
D03*
X964961D02*
D03*
X955061D02*
D03*
X945276D02*
D03*
X925591D02*
D03*
X915691D02*
D03*
X903798Y733902D02*
D03*
X896006Y731744D02*
D03*
X886220D02*
D03*
X876320D02*
D03*
X650000Y642913D02*
D03*
X690550Y655000D02*
D03*
X693161Y655100D02*
D03*
X767850Y693350D02*
D03*
X423565Y692374D02*
D03*
X433465D02*
D03*
X443250D02*
D03*
X453150D02*
D03*
X462935D02*
D03*
X472835D02*
D03*
X482620D02*
D03*
X492520D02*
D03*
X502305D02*
D03*
X512205D02*
D03*
X521990D02*
D03*
X531890D02*
D03*
X541675D02*
D03*
X551575D02*
D03*
X561417D02*
D03*
X571260D02*
D03*
X581045D02*
D03*
X590945D02*
D03*
X600730D02*
D03*
X638900Y694200D02*
D03*
X650000Y692374D02*
D03*
X689370D02*
D03*
X699213D02*
D03*
X709055D02*
D03*
X718840D02*
D03*
X728740D02*
D03*
X738525D02*
D03*
X748425D02*
D03*
X610650Y692000D02*
D03*
X630100Y694250D02*
D03*
X756200Y694350D02*
D03*
X817350Y693850D02*
D03*
X876350Y691900D02*
D03*
X886220Y692374D02*
D03*
X905906D02*
D03*
X915691D02*
D03*
X925591D02*
D03*
X945276D02*
D03*
X955061D02*
D03*
X964961D02*
D03*
X974746D02*
D03*
X994431D02*
D03*
X1004331D02*
D03*
X1014116D02*
D03*
X1024016D02*
D03*
X1033801D02*
D03*
X866535D02*
D03*
X856635D02*
D03*
X846850D02*
D03*
X835750Y694300D02*
D03*
X797580Y692374D02*
D03*
X787795D02*
D03*
X777950Y692100D02*
D03*
X827150Y694150D02*
D03*
X935433Y692374D02*
D03*
X984646D02*
D03*
X748425Y682531D02*
D03*
X749600Y695650D02*
D03*
X786450Y705650D02*
D03*
X779983Y706307D02*
D03*
X768450Y690850D02*
D03*
X758850Y695550D02*
D03*
X761600Y695950D02*
D03*
X752350Y695650D02*
D03*
X807900Y689750D02*
D03*
X501950Y784900D02*
D03*
X797580Y810484D02*
D03*
X984646Y800641D02*
D03*
X935433D02*
D03*
X825100Y802900D02*
D03*
X748425Y800641D02*
D03*
X699213D02*
D03*
X679528D02*
D03*
X689370D02*
D03*
X641800Y804650D02*
D03*
X561417Y800641D02*
D03*
X511900Y802150D02*
D03*
X423565Y800641D02*
D03*
X433465D02*
D03*
X443250D02*
D03*
X453150D02*
D03*
X462935D02*
D03*
X521990D02*
D03*
X531890D02*
D03*
X541675D02*
D03*
X551575D02*
D03*
X571260D02*
D03*
X581045D02*
D03*
X590945D02*
D03*
X600730D02*
D03*
X608550Y803700D02*
D03*
X620415Y800641D02*
D03*
X630315D02*
D03*
X650000D02*
D03*
X659785D02*
D03*
X669685D02*
D03*
X709055D02*
D03*
X718840D02*
D03*
X728740D02*
D03*
X737700Y802300D02*
D03*
X758210Y800641D02*
D03*
X768110D02*
D03*
X777895D02*
D03*
X787795D02*
D03*
X797580D02*
D03*
X807480D02*
D03*
X817265D02*
D03*
X836950D02*
D03*
X846850D02*
D03*
X866500Y803250D02*
D03*
X1033801Y800641D02*
D03*
X1024016D02*
D03*
X1014116D02*
D03*
X1004331D02*
D03*
X994431D02*
D03*
X925591D02*
D03*
X915691D02*
D03*
X905906D02*
D03*
X896006D02*
D03*
X886220D02*
D03*
X876320D02*
D03*
X984400Y792200D02*
D03*
X935433Y790799D02*
D03*
X827165D02*
D03*
X748425D02*
D03*
X699050Y794700D02*
D03*
X679528Y790799D02*
D03*
X689400Y790050D02*
D03*
X641650Y795200D02*
D03*
X561417Y790799D02*
D03*
X512205D02*
D03*
X423565D02*
D03*
X433465D02*
D03*
X443250D02*
D03*
X453150D02*
D03*
X462935D02*
D03*
X472835D02*
D03*
X521990D02*
D03*
X531890D02*
D03*
X541675D02*
D03*
X551575D02*
D03*
X571260D02*
D03*
X581045D02*
D03*
X590945D02*
D03*
X600730D02*
D03*
X609500Y784900D02*
D03*
X620400Y790400D02*
D03*
X630350Y789950D02*
D03*
X651550Y794550D02*
D03*
X659785Y790799D02*
D03*
X669685D02*
D03*
X709055D02*
D03*
X720150Y795300D02*
D03*
X728750Y789650D02*
D03*
X738250Y794950D02*
D03*
X758950Y795650D02*
D03*
X769200Y794850D02*
D03*
X777895Y790799D02*
D03*
X787795Y790799D02*
D03*
X797580Y790799D02*
D03*
X807480D02*
D03*
X817265D02*
D03*
X836950D02*
D03*
X846850D02*
D03*
X856635D02*
D03*
X864700Y793350D02*
D03*
X1033801Y790799D02*
D03*
X1024016D02*
D03*
X1014116D02*
D03*
X1004331D02*
D03*
X994431D02*
D03*
X974800Y789450D02*
D03*
X965000Y790000D02*
D03*
X955150Y789950D02*
D03*
X945276Y790799D02*
D03*
X925591D02*
D03*
X915691D02*
D03*
X905906D02*
D03*
X896006D02*
D03*
X886220D02*
D03*
X876320D02*
D03*
X984646Y779921D02*
D03*
X687350Y783150D02*
D03*
X470650Y783750D02*
D03*
X480450Y783200D02*
D03*
X492520Y780956D02*
D03*
X522050Y780400D02*
D03*
X531900Y780350D02*
D03*
X610600Y780050D02*
D03*
X720650Y785000D02*
D03*
X736550Y783200D02*
D03*
X758800Y778000D02*
D03*
X769650Y784950D02*
D03*
X1033801Y780956D02*
D03*
X1004331Y780315D02*
D03*
X994431D02*
D03*
X974800Y781950D02*
D03*
X953650Y782750D02*
D03*
X943900Y782900D02*
D03*
X984646Y761271D02*
D03*
X935433D02*
D03*
X827165D02*
D03*
X748425D02*
D03*
X699213D02*
D03*
X561417D02*
D03*
X512205D02*
D03*
X423565D02*
D03*
X433465D02*
D03*
X443250D02*
D03*
X453150D02*
D03*
X462935D02*
D03*
X472835D02*
D03*
X482620D02*
D03*
X492520D02*
D03*
X502305D02*
D03*
X521990D02*
D03*
X531890D02*
D03*
X541675D02*
D03*
X551575D02*
D03*
X571260D02*
D03*
X581045D02*
D03*
X590945D02*
D03*
X600730D02*
D03*
X610600Y760950D02*
D03*
X621400Y767100D02*
D03*
X651500Y764800D02*
D03*
X709055Y761271D02*
D03*
X718840Y761271D02*
D03*
X728740D02*
D03*
X738525D02*
D03*
X758210D02*
D03*
X768110D02*
D03*
X777895D02*
D03*
X787795D02*
D03*
X797580D02*
D03*
X807480D02*
D03*
X817265D02*
D03*
X836950D02*
D03*
X846850D02*
D03*
X856635D02*
D03*
X866535D02*
D03*
X1033801D02*
D03*
X1024016D02*
D03*
X1014116D02*
D03*
X1004331D02*
D03*
X994431D02*
D03*
X974746D02*
D03*
X964961D02*
D03*
X955061D02*
D03*
X945276D02*
D03*
X925591D02*
D03*
X915691D02*
D03*
X905906D02*
D03*
X896006D02*
D03*
X886220D02*
D03*
X876320D02*
D03*
X984646Y751429D02*
D03*
X935433D02*
D03*
X827165D02*
D03*
X748425D02*
D03*
X698850Y755450D02*
D03*
X679528Y751429D02*
D03*
X687250Y753150D02*
D03*
X640158Y751429D02*
D03*
X561417D02*
D03*
X512205D02*
D03*
X423565D02*
D03*
X433465D02*
D03*
X443250D02*
D03*
X453150D02*
D03*
X462935D02*
D03*
X472835D02*
D03*
X482620D02*
D03*
X492520D02*
D03*
X502305D02*
D03*
X521990D02*
D03*
X531890D02*
D03*
X541675D02*
D03*
X551575D02*
D03*
X571260D02*
D03*
X581045D02*
D03*
X590945D02*
D03*
X600730D02*
D03*
X611300Y748300D02*
D03*
X621600Y747750D02*
D03*
X630950Y748100D02*
D03*
X650000Y751000D02*
D03*
X659750Y750900D02*
D03*
X669685Y751429D02*
D03*
X709055D02*
D03*
X720200Y755400D02*
D03*
X736475Y754175D02*
D03*
X768500Y756050D02*
D03*
X777895Y751429D02*
D03*
X787795D02*
D03*
X797580D02*
D03*
X807480D02*
D03*
X817265D02*
D03*
X836950D02*
D03*
X846850D02*
D03*
X856635D02*
D03*
X866535D02*
D03*
X1033801D02*
D03*
X1024016D02*
D03*
X1014116D02*
D03*
X1004331D02*
D03*
X994431D02*
D03*
X974746D02*
D03*
X964961D02*
D03*
X955061D02*
D03*
X945276D02*
D03*
X925591D02*
D03*
X915691D02*
D03*
X905906D02*
D03*
X896006D02*
D03*
X886220D02*
D03*
X876320D02*
D03*
X984646Y741586D02*
D03*
X935433D02*
D03*
X827165D02*
D03*
X748425D02*
D03*
X679528D02*
D03*
X687700Y744100D02*
D03*
X640158Y741586D02*
D03*
X561417D02*
D03*
X512205D02*
D03*
X423565D02*
D03*
X433465D02*
D03*
X443250D02*
D03*
X453150D02*
D03*
X462935D02*
D03*
X472835D02*
D03*
X482620D02*
D03*
X492520D02*
D03*
X502305D02*
D03*
X521990D02*
D03*
X531890D02*
D03*
X541675D02*
D03*
X551575D02*
D03*
X571260D02*
D03*
X581045D02*
D03*
X590945D02*
D03*
X600730D02*
D03*
X610650Y741350D02*
D03*
X630800Y738550D02*
D03*
X650000Y741250D02*
D03*
X659785Y741586D02*
D03*
X669685D02*
D03*
X709055D02*
D03*
X720950Y745650D02*
D03*
X736550Y744250D02*
D03*
X769150Y745550D02*
D03*
X777895Y741586D02*
D03*
X787795D02*
D03*
X797580D02*
D03*
X807480D02*
D03*
X817350Y742400D02*
D03*
X836950Y741586D02*
D03*
X846150Y743950D02*
D03*
X856635Y741586D02*
D03*
X866535D02*
D03*
X1033801D02*
D03*
X1024016D02*
D03*
X1014116D02*
D03*
X1004331D02*
D03*
X994431D02*
D03*
X974746D02*
D03*
X964961D02*
D03*
X955061D02*
D03*
X945276D02*
D03*
X925591D02*
D03*
X915691D02*
D03*
X905906D02*
D03*
X895300Y744650D02*
D03*
X886220Y741586D02*
D03*
X876320D02*
D03*
X984646Y721901D02*
D03*
X935433D02*
D03*
X827165D02*
D03*
X748425D02*
D03*
X699213D02*
D03*
X679528D02*
D03*
X689370D02*
D03*
X640158D02*
D03*
X561417D02*
D03*
X512205D02*
D03*
X423565D02*
D03*
X433465D02*
D03*
X443250D02*
D03*
X453150D02*
D03*
X462935D02*
D03*
X472835D02*
D03*
X482620D02*
D03*
X492520D02*
D03*
X502305D02*
D03*
X521990D02*
D03*
X531890D02*
D03*
X541675D02*
D03*
X551575D02*
D03*
X571260D02*
D03*
X581045D02*
D03*
X590945D02*
D03*
X600730D02*
D03*
X610630D02*
D03*
X618500Y725000D02*
D03*
X630300Y721600D02*
D03*
X651250Y725500D02*
D03*
X659785Y721901D02*
D03*
X669685D02*
D03*
X709055D02*
D03*
X718840D02*
D03*
X728740D02*
D03*
X738525D02*
D03*
X758210D02*
D03*
X768110D02*
D03*
X777895D02*
D03*
X787795D02*
D03*
X797580D02*
D03*
X807480D02*
D03*
X817265D02*
D03*
X836950D02*
D03*
X846850D02*
D03*
X856635D02*
D03*
X1033801D02*
D03*
X1024016D02*
D03*
X1014116D02*
D03*
X1004331D02*
D03*
X994431D02*
D03*
X974746D02*
D03*
X964961D02*
D03*
X955061D02*
D03*
X945276D02*
D03*
X925591D02*
D03*
X915691D02*
D03*
X903798Y724148D02*
D03*
X896006Y721901D02*
D03*
X887250Y718550D02*
D03*
X984646Y712059D02*
D03*
X935433D02*
D03*
X827165D02*
D03*
X748425D02*
D03*
X699950Y716300D02*
D03*
X680100Y714000D02*
D03*
X687300D02*
D03*
X640158Y712059D02*
D03*
X561417D02*
D03*
X512205D02*
D03*
X423565D02*
D03*
X433465D02*
D03*
X443250D02*
D03*
X453150D02*
D03*
X462935D02*
D03*
X472835D02*
D03*
X482620D02*
D03*
X492520D02*
D03*
X502305D02*
D03*
X521990D02*
D03*
X531890D02*
D03*
X541675D02*
D03*
X551575D02*
D03*
X571260D02*
D03*
X581045D02*
D03*
X590945D02*
D03*
X600730D02*
D03*
X610630D02*
D03*
X620415D02*
D03*
X630315D02*
D03*
X650000Y711600D02*
D03*
X659850Y711500D02*
D03*
X669650Y713750D02*
D03*
X709055Y712059D02*
D03*
X720300Y716200D02*
D03*
X727950Y714050D02*
D03*
X736400Y714500D02*
D03*
X768850Y716550D02*
D03*
X777895Y712059D02*
D03*
X787795D02*
D03*
X797650Y712400D02*
D03*
X806550Y713800D02*
D03*
X817265Y712059D02*
D03*
X836950D02*
D03*
X846850D02*
D03*
X856635D02*
D03*
X866535D02*
D03*
X1033801D02*
D03*
X1024016D02*
D03*
X1014116D02*
D03*
X1004331D02*
D03*
X994431D02*
D03*
X974746D02*
D03*
X964961D02*
D03*
X955061D02*
D03*
X945276D02*
D03*
X925591Y712059D02*
D03*
X915700Y712750D02*
D03*
X903798Y714698D02*
D03*
X896006Y712059D02*
D03*
X887850Y715850D02*
D03*
X876320Y712059D02*
D03*
X748425Y702216D02*
D03*
X699213D02*
D03*
X679528D02*
D03*
X687262Y704312D02*
D03*
X640158Y702216D02*
D03*
X561417D02*
D03*
X512205D02*
D03*
X423565D02*
D03*
X433465D02*
D03*
X443250D02*
D03*
X453150D02*
D03*
X462935D02*
D03*
X472835D02*
D03*
X482620D02*
D03*
X492520D02*
D03*
X502305D02*
D03*
X521990D02*
D03*
X531890D02*
D03*
X541675D02*
D03*
X551575D02*
D03*
X571260D02*
D03*
X581045D02*
D03*
X590945D02*
D03*
X600730D02*
D03*
X610630Y701966D02*
D03*
X620415Y702216D02*
D03*
X630315D02*
D03*
X650000Y702450D02*
D03*
X659785Y702216D02*
D03*
X709055D02*
D03*
X720500Y706300D02*
D03*
X728740Y702216D02*
D03*
X736475Y704525D02*
D03*
X768450Y701250D02*
D03*
X777895Y702756D02*
D03*
X787795Y702610D02*
D03*
X797580D02*
D03*
X807450Y702550D02*
D03*
X1033801Y702216D02*
D03*
X984646Y682531D02*
D03*
X935433D02*
D03*
X699213D02*
D03*
X679528D02*
D03*
X689370D02*
D03*
X561417D02*
D03*
X512205D02*
D03*
X423565D02*
D03*
X433465D02*
D03*
X443250D02*
D03*
X453150D02*
D03*
X462935D02*
D03*
X472835D02*
D03*
X482620D02*
D03*
X492520D02*
D03*
X502305D02*
D03*
X521990D02*
D03*
X531890D02*
D03*
X541675D02*
D03*
X551575D02*
D03*
X571260D02*
D03*
X581045D02*
D03*
X590945D02*
D03*
X600730D02*
D03*
X650000Y682750D02*
D03*
X659785Y682531D02*
D03*
X669685D02*
D03*
X709055D02*
D03*
X718850Y681700D02*
D03*
X738650Y682150D02*
D03*
X768110Y683100D02*
D03*
X787795D02*
D03*
X797580D02*
D03*
X847200Y681250D02*
D03*
X856635Y682531D02*
D03*
X1033801D02*
D03*
X1024016D02*
D03*
X1014116D02*
D03*
X1004331D02*
D03*
X994431D02*
D03*
X974746D02*
D03*
X964961D02*
D03*
X955061D02*
D03*
X945276D02*
D03*
X926550Y679150D02*
D03*
X915750Y682000D02*
D03*
X903950Y684950D02*
D03*
X888700Y686350D02*
D03*
X876300Y683250D02*
D03*
X984646Y672689D02*
D03*
X935433D02*
D03*
X748400Y673700D02*
D03*
X699213Y672689D02*
D03*
X679528D02*
D03*
X687350Y674350D02*
D03*
X561417Y672689D02*
D03*
X512205D02*
D03*
X423565D02*
D03*
X433465D02*
D03*
X443250D02*
D03*
X453150D02*
D03*
X462935D02*
D03*
X472835D02*
D03*
X482620D02*
D03*
X492520D02*
D03*
X502305D02*
D03*
X521990D02*
D03*
X531890D02*
D03*
X541675D02*
D03*
X551575D02*
D03*
X571250Y672350D02*
D03*
X581045Y672689D02*
D03*
X590945D02*
D03*
X600800Y671550D02*
D03*
X650000Y672689D02*
D03*
X709000Y673600D02*
D03*
X720350Y676350D02*
D03*
X728700Y672300D02*
D03*
X736350Y674300D02*
D03*
X758800Y669950D02*
D03*
X769650Y676350D02*
D03*
X777895Y672789D02*
D03*
X787795Y672689D02*
D03*
X797580D02*
D03*
X847150Y670400D02*
D03*
X856635Y672689D02*
D03*
X866535D02*
D03*
X1033801D02*
D03*
X1024016D02*
D03*
X1014116D02*
D03*
X1004331D02*
D03*
X994431D02*
D03*
X974746D02*
D03*
X964961D02*
D03*
X955061D02*
D03*
X945276D02*
D03*
X925591D02*
D03*
X915700Y672150D02*
D03*
X903900Y674450D02*
D03*
X887000Y669800D02*
D03*
X876293Y672286D02*
D03*
X984646Y662846D02*
D03*
X935433D02*
D03*
X749400Y666250D02*
D03*
X699213Y662846D02*
D03*
X679528D02*
D03*
X687900Y665550D02*
D03*
X561417Y662846D02*
D03*
X512205D02*
D03*
X423565D02*
D03*
X433465D02*
D03*
X443250D02*
D03*
X453150D02*
D03*
X462935D02*
D03*
X472835D02*
D03*
X482620D02*
D03*
X492520D02*
D03*
X502305D02*
D03*
X521990D02*
D03*
X531890D02*
D03*
X541675D02*
D03*
X551575D02*
D03*
X571260D02*
D03*
X581045D02*
D03*
X590950Y662350D02*
D03*
X600750Y662500D02*
D03*
X650000Y662846D02*
D03*
X659785D02*
D03*
X669600Y662000D02*
D03*
X709055Y662846D02*
D03*
X720850Y667000D02*
D03*
X728740Y662846D02*
D03*
X736250Y664650D02*
D03*
X758950Y660200D02*
D03*
X769700Y666850D02*
D03*
X777895Y662846D02*
D03*
X787795D02*
D03*
X797580Y662846D02*
D03*
X846850Y663450D02*
D03*
X1033801Y662846D02*
D03*
X1024016D02*
D03*
X1014116D02*
D03*
X1004331D02*
D03*
X994431D02*
D03*
X974746D02*
D03*
X964961D02*
D03*
X955061D02*
D03*
X945276D02*
D03*
X925591D02*
D03*
X915691D02*
D03*
X905906D02*
D03*
X896006D02*
D03*
X886220D02*
D03*
X876320D02*
D03*
X984650Y642900D02*
D03*
X679528Y643161D02*
D03*
X687500Y644950D02*
D03*
X640158Y642913D02*
D03*
X512205Y641732D02*
D03*
X472835D02*
D03*
X482620D02*
D03*
X492520D02*
D03*
X502305D02*
D03*
X521990D02*
D03*
X551575Y643161D02*
D03*
X610630D02*
D03*
X718840D02*
D03*
X736600Y645400D02*
D03*
X777895Y643161D02*
D03*
X805600Y645500D02*
D03*
X816350Y645000D02*
D03*
X837000Y642500D02*
D03*
X846850Y642600D02*
D03*
X1033801Y643161D02*
D03*
X974800Y642750D02*
D03*
X964961Y641732D02*
D03*
X955150Y642800D02*
D03*
X945300D02*
D03*
X984646Y631890D02*
D03*
X935433Y633319D02*
D03*
X827165D02*
D03*
X748400Y633900D02*
D03*
X679528Y633319D02*
D03*
X687262Y635788D02*
D03*
X640158Y633319D02*
D03*
X561417D02*
D03*
X512205Y631890D02*
D03*
X423565Y633319D02*
D03*
X433465D02*
D03*
X443250D02*
D03*
X453150D02*
D03*
X462935D02*
D03*
X472835Y631890D02*
D03*
X482620D02*
D03*
X492520D02*
D03*
X502305D02*
D03*
X521990D02*
D03*
X531890Y633319D02*
D03*
X541675D02*
D03*
X551575D02*
D03*
X571260D02*
D03*
X581045D02*
D03*
X590945D02*
D03*
X600730D02*
D03*
X610630D02*
D03*
X620415D02*
D03*
X630315D02*
D03*
X650000D02*
D03*
X659785D02*
D03*
X669685D02*
D03*
X718840D02*
D03*
X728740D02*
D03*
X736475Y635825D02*
D03*
X787795Y633319D02*
D03*
X797580D02*
D03*
X807500Y632950D02*
D03*
X817265Y633319D02*
D03*
X836950D02*
D03*
X846850Y633000D02*
D03*
X857250Y630350D02*
D03*
X867050Y630650D02*
D03*
X1033801Y633319D02*
D03*
X1024016D02*
D03*
X1014116D02*
D03*
X1004331D02*
D03*
X994431D02*
D03*
X974746Y631890D02*
D03*
X964961D02*
D03*
X955061D02*
D03*
X945276D02*
D03*
X925591Y633319D02*
D03*
X905906D02*
D03*
X896006D02*
D03*
X876293Y632916D02*
D03*
X984646Y623476D02*
D03*
X935433D02*
D03*
X827165D02*
D03*
X748425D02*
D03*
X699213D02*
D03*
X679528D02*
D03*
X687250Y625750D02*
D03*
X640158Y623476D02*
D03*
X561417D02*
D03*
X512205D02*
D03*
X423565D02*
D03*
X433465D02*
D03*
X443250D02*
D03*
X453150D02*
D03*
X462935D02*
D03*
X472835D02*
D03*
X482620D02*
D03*
X492520D02*
D03*
X502305D02*
D03*
X521990D02*
D03*
X531890D02*
D03*
X541675D02*
D03*
X551575D02*
D03*
X571260D02*
D03*
X581045D02*
D03*
X590945D02*
D03*
X600730D02*
D03*
X610630D02*
D03*
X620415D02*
D03*
X630315D02*
D03*
X650000D02*
D03*
X659785D02*
D03*
X669685D02*
D03*
X709055D02*
D03*
X719800Y628500D02*
D03*
X728740Y623476D02*
D03*
X736475Y625725D02*
D03*
X769200Y628550D02*
D03*
X777895Y623476D02*
D03*
X787795D02*
D03*
X797580D02*
D03*
X807480D02*
D03*
X817265D02*
D03*
X836950D02*
D03*
X846850Y623000D02*
D03*
X856635Y623476D02*
D03*
X866535D02*
D03*
X1033801D02*
D03*
X1024016D02*
D03*
X1014116D02*
D03*
X1004331D02*
D03*
X994431D02*
D03*
X974746D02*
D03*
X964961D02*
D03*
X955061D02*
D03*
X945276D02*
D03*
X925591D02*
D03*
X905906D02*
D03*
X896006D02*
D03*
X876150Y625350D02*
D03*
X984646Y613633D02*
D03*
X935433D02*
D03*
X827165D02*
D03*
X748425D02*
D03*
X699213D02*
D03*
X679528D02*
D03*
X687400Y616000D02*
D03*
X640158Y613633D02*
D03*
X561417D02*
D03*
X512205D02*
D03*
X423565D02*
D03*
X433465D02*
D03*
X443250D02*
D03*
X453150D02*
D03*
X462935D02*
D03*
X472835D02*
D03*
X482620D02*
D03*
X492520D02*
D03*
X502305D02*
D03*
X521990D02*
D03*
X531890D02*
D03*
X541675D02*
D03*
X551575D02*
D03*
X571260D02*
D03*
X581045D02*
D03*
X590945D02*
D03*
X600730D02*
D03*
X610630D02*
D03*
X620415D02*
D03*
X630315D02*
D03*
X650000D02*
D03*
X659785D02*
D03*
X669685D02*
D03*
X709055D02*
D03*
X720850Y617850D02*
D03*
X728750Y615200D02*
D03*
X738500Y612950D02*
D03*
X769350Y618250D02*
D03*
X777895Y613633D02*
D03*
X787795D02*
D03*
X797580D02*
D03*
X807480D02*
D03*
X817265D02*
D03*
X836950D02*
D03*
X846850D02*
D03*
X856635D02*
D03*
X866535D02*
D03*
X1033801D02*
D03*
X1024016D02*
D03*
X1014116D02*
D03*
X1004331D02*
D03*
X994431D02*
D03*
X974746D02*
D03*
X964961D02*
D03*
X955061D02*
D03*
X945276D02*
D03*
X925591D02*
D03*
X905906D02*
D03*
X896700Y610750D02*
D03*
X876320Y613633D02*
D03*
X984646Y603791D02*
D03*
X935433D02*
D03*
X827165D02*
D03*
X748100Y607150D02*
D03*
X699213Y603791D02*
D03*
X679528D02*
D03*
X689370D02*
D03*
X640158D02*
D03*
X561417D02*
D03*
X512205D02*
D03*
X423565D02*
D03*
X433465D02*
D03*
X443250D02*
D03*
X453150D02*
D03*
X462935D02*
D03*
X472835D02*
D03*
X482620D02*
D03*
X492520D02*
D03*
X502305D02*
D03*
X521990D02*
D03*
X531890D02*
D03*
X541675D02*
D03*
X551575D02*
D03*
X571260D02*
D03*
X581045D02*
D03*
X590945D02*
D03*
X600730D02*
D03*
X610630D02*
D03*
X620415D02*
D03*
X630315D02*
D03*
X650000D02*
D03*
X659785D02*
D03*
X669685D02*
D03*
X707200Y606900D02*
D03*
X718900Y604750D02*
D03*
X758210Y603791D02*
D03*
X768110D02*
D03*
X777895D02*
D03*
X787795D02*
D03*
X797580D02*
D03*
X807480D02*
D03*
X817265D02*
D03*
X836950D02*
D03*
X846850D02*
D03*
X856635D02*
D03*
X866535D02*
D03*
X1033801D02*
D03*
X1024016D02*
D03*
X1014116D02*
D03*
X1004331D02*
D03*
X994431D02*
D03*
X974746D02*
D03*
X964961D02*
D03*
X955061D02*
D03*
X945276D02*
D03*
X925591D02*
D03*
X915691D02*
D03*
X905906D02*
D03*
X896006D02*
D03*
X886220D02*
D03*
X876320D02*
D03*
X610630Y593948D02*
D03*
X1033801D02*
D03*
X748425Y584106D02*
D03*
X610630D02*
D03*
X738350Y586400D02*
D03*
X1033801Y584106D02*
D03*
X984646Y574263D02*
D03*
X935433D02*
D03*
X827165D02*
D03*
X748450Y576300D02*
D03*
X699213Y574263D02*
D03*
X679528D02*
D03*
X689370D02*
D03*
X561417D02*
D03*
X512205D02*
D03*
X433464D02*
D03*
X443250D02*
D03*
X453150D02*
D03*
X462935D02*
D03*
X472835D02*
D03*
X482620D02*
D03*
X492520D02*
D03*
X502305D02*
D03*
X521990D02*
D03*
X531890D02*
D03*
X541675D02*
D03*
X551575D02*
D03*
X571260D02*
D03*
X581045D02*
D03*
X590945D02*
D03*
X600730D02*
D03*
X610630D02*
D03*
X620415D02*
D03*
X631050Y571050D02*
D03*
X669685Y574263D02*
D03*
X707550Y577650D02*
D03*
X728700Y573500D02*
D03*
X738350Y576300D02*
D03*
X759300Y579100D02*
D03*
X768650D02*
D03*
X777895Y574263D02*
D03*
X787795D02*
D03*
X807200Y576150D02*
D03*
X817265Y574263D02*
D03*
X836950D02*
D03*
X846850D02*
D03*
X856635D02*
D03*
X866535D02*
D03*
X1033801D02*
D03*
X1024016D02*
D03*
X1014116D02*
D03*
X1004331D02*
D03*
X994431D02*
D03*
X974746D02*
D03*
X964961D02*
D03*
X955061D02*
D03*
X945276D02*
D03*
X925591D02*
D03*
X915691D02*
D03*
X905906D02*
D03*
X896006D02*
D03*
X886220D02*
D03*
X876320D02*
D03*
X817350Y702600D02*
D03*
X695700Y656000D02*
D03*
X682400Y656850D02*
D03*
X680400Y659250D02*
D03*
X686850Y676850D02*
D03*
X674200Y656850D02*
D03*
X671250Y659750D02*
D03*
X676500Y666050D02*
D03*
X778300Y697850D02*
D03*
X771908Y706358D02*
D03*
X774450Y706150D02*
D03*
X777900Y683100D02*
D03*
X758500Y682950D02*
D03*
X670150Y669300D02*
D03*
X665300Y666650D02*
D03*
X662000Y666800D02*
D03*
X655650Y676650D02*
D03*
X660200Y679050D02*
D03*
X651500Y669750D02*
D03*
X648350Y676150D02*
D03*
X641650Y708950D02*
D03*
X650950Y679100D02*
D03*
X628050Y696000D02*
D03*
X631800Y707050D02*
D03*
X626100Y706200D02*
D03*
X621900Y707250D02*
D03*
X612650Y715900D02*
D03*
X619050Y695700D02*
D03*
X611050Y698100D02*
D03*
X595700Y695650D02*
D03*
X592450Y688150D02*
D03*
X598050Y685650D02*
D03*
X590000Y676400D02*
D03*
X586100Y676600D02*
D03*
X582950Y677100D02*
D03*
X577350Y676700D02*
D03*
X580750Y667050D02*
D03*
X574850Y676400D02*
D03*
X670050Y643150D02*
D03*
X610750Y655200D02*
D03*
X641296Y688928D02*
D03*
X816600Y716200D02*
D03*
X812650Y716050D02*
D03*
X808800Y718600D02*
D03*
X791300Y715500D02*
D03*
X797911Y708728D02*
D03*
X803550Y716300D02*
D03*
X800900Y715600D02*
D03*
X807950Y709200D02*
D03*
X793800Y716150D02*
D03*
X846850Y687000D02*
D03*
X782533Y705507D02*
D03*
X880800Y637050D02*
D03*
X878350Y636250D02*
D03*
X883650Y637500D02*
D03*
X874800Y637178D02*
D03*
X872261Y637078D02*
D03*
X869161Y637328D02*
D03*
X858650Y637900D02*
D03*
X855261Y647378D02*
D03*
X849661Y646828D02*
D03*
X841800Y646300D02*
D03*
X807450Y654600D02*
D03*
X838950Y646650D02*
D03*
X846850Y649050D02*
D03*
X832100Y646300D02*
D03*
X829750Y647200D02*
D03*
X834811Y647028D02*
D03*
X838147Y688928D02*
D03*
X758750Y689350D02*
D03*
X739600Y678200D02*
D03*
X743411Y686378D02*
D03*
X739850Y687150D02*
D03*
X749600Y679400D02*
D03*
X734961Y686228D02*
D03*
X732200Y686300D02*
D03*
X502050Y852600D02*
D03*
X494359Y853500D02*
D03*
X970050Y853600D02*
D03*
X966800Y853500D02*
D03*
X974100Y852550D02*
D03*
X-163660Y827417D02*
D03*
X-155310Y821417D02*
D03*
X-171160Y818267D02*
D03*
X-173710Y819067D02*
D03*
X947041Y852500D02*
D03*
X955391Y846500D02*
D03*
X939541Y843350D02*
D03*
X936991Y844150D02*
D03*
X474600Y852500D02*
D03*
X482950Y846500D02*
D03*
X467100Y843350D02*
D03*
X464550Y844150D02*
D03*
X1038700Y774850D02*
D03*
X1036250Y774200D02*
D03*
X1041593Y775350D02*
D03*
X1032691Y774950D02*
D03*
X1029741Y774850D02*
D03*
X1026641Y775100D02*
D03*
X1020814Y774673D02*
D03*
X1017991Y774250D02*
D03*
X1012741Y785150D02*
D03*
X1009891Y784050D02*
D03*
X1007141Y784600D02*
D03*
X998550Y784600D02*
D03*
X945700Y794100D02*
D03*
X996241Y785750D02*
D03*
X1004500Y787300D02*
D03*
X989700Y784700D02*
D03*
X986800Y785100D02*
D03*
X992291Y784800D02*
D03*
X980741Y794450D02*
D03*
X982441Y804350D02*
D03*
X976600Y787300D02*
D03*
X961141Y853500D02*
D03*
X956200Y854750D02*
D03*
X965691Y846200D02*
D03*
X950891Y853550D02*
D03*
X984241Y824500D02*
D03*
X975942Y826700D02*
D03*
X943141Y843100D02*
D03*
X929891Y833800D02*
D03*
X927300Y834100D02*
D03*
X934500Y834450D02*
D03*
X920941Y833800D02*
D03*
X917991Y834150D02*
D03*
X923900Y834150D02*
D03*
X911941Y824200D02*
D03*
X915941Y824050D02*
D03*
X908941Y824200D02*
D03*
X893900Y814350D02*
D03*
X900891Y824150D02*
D03*
X897900Y823900D02*
D03*
X906300Y816700D02*
D03*
X892441Y824000D02*
D03*
X889617Y814160D02*
D03*
X567000Y774550D02*
D03*
X564200Y774850D02*
D03*
X570550D02*
D03*
X560250Y774950D02*
D03*
X557300Y774850D02*
D03*
X554200Y775100D02*
D03*
X548373Y774673D02*
D03*
X545550Y774250D02*
D03*
X540300Y785150D02*
D03*
X537450Y784050D02*
D03*
X534700Y784600D02*
D03*
X526350Y784650D02*
D03*
X473150Y794150D02*
D03*
X482677Y790000D02*
D03*
X492550Y789200D02*
D03*
X502400Y789350D02*
D03*
X523800Y785750D02*
D03*
X532100Y787250D02*
D03*
X517100Y784050D02*
D03*
X514150Y784150D02*
D03*
X519850Y784800D02*
D03*
X508300Y794900D02*
D03*
X510000Y804350D02*
D03*
X505650Y794900D02*
D03*
X491800Y853450D02*
D03*
X488700Y853500D02*
D03*
X483750Y855750D02*
D03*
X493250Y846200D02*
D03*
X478450Y853550D02*
D03*
X511800Y824500D02*
D03*
X503501Y826700D02*
D03*
X503950Y834500D02*
D03*
X470700Y843100D02*
D03*
X457450Y833800D02*
D03*
X454750Y834600D02*
D03*
X462200Y834300D02*
D03*
X448500Y833800D02*
D03*
X445550Y834150D02*
D03*
X512028Y833050D02*
D03*
X501800Y832550D02*
D03*
X492392Y832900D02*
D03*
X439500Y824200D02*
D03*
X443500Y824050D02*
D03*
X436500Y824200D02*
D03*
X748300Y829850D02*
D03*
X687262Y832638D02*
D03*
X482500Y833350D02*
D03*
X610630Y830169D02*
D03*
X709250Y828000D02*
D03*
X720450Y833426D02*
D03*
X728740Y830169D02*
D03*
X736475Y832475D02*
D03*
X758300Y828450D02*
D03*
X769400Y833550D02*
D03*
X1033801Y830169D02*
D03*
X964650Y833200D02*
D03*
X954800Y833100D02*
D03*
X984646Y840411D02*
D03*
X935450Y840400D02*
D03*
X827165Y840011D02*
D03*
X747750Y842850D02*
D03*
X699213Y840011D02*
D03*
X679528D02*
D03*
X687262Y842162D02*
D03*
X640158Y840011D02*
D03*
X561417D02*
D03*
X512200Y840450D02*
D03*
X423565Y840011D02*
D03*
X433465D02*
D03*
X443450Y838050D02*
D03*
X453150Y840011D02*
D03*
X462935D02*
D03*
X472850Y840350D02*
D03*
X482600D02*
D03*
X492520Y840011D02*
D03*
X502305D02*
D03*
X521990D02*
D03*
X531890D02*
D03*
X541675D02*
D03*
X550750Y842600D02*
D03*
X581045Y840011D02*
D03*
X590945D02*
D03*
X610630D02*
D03*
X618300Y842800D02*
D03*
X630315Y840011D02*
D03*
X650600Y844500D02*
D03*
X659785Y840011D02*
D03*
X669685D02*
D03*
X709055D02*
D03*
X720200Y843800D02*
D03*
X728740Y839528D02*
D03*
X736475Y842475D02*
D03*
X758850Y845900D02*
D03*
X769000Y846050D02*
D03*
X777895Y840011D02*
D03*
X787795D02*
D03*
X797580D02*
D03*
X807480Y840011D02*
D03*
X817265Y840011D02*
D03*
X837000Y839800D02*
D03*
X846850Y839950D02*
D03*
X856635Y840011D02*
D03*
X866535D02*
D03*
X1033801D02*
D03*
X1024016D02*
D03*
X1014950Y836400D02*
D03*
X1005150Y836700D02*
D03*
X994431Y840011D02*
D03*
X974750Y840700D02*
D03*
X964950D02*
D03*
X955061Y840411D02*
D03*
X945300Y840350D02*
D03*
X925591Y840011D02*
D03*
X915691D02*
D03*
X905906D02*
D03*
X896006D02*
D03*
X886220D02*
D03*
X876320D02*
D03*
X984646Y849854D02*
D03*
X935433D02*
D03*
X827165D02*
D03*
X679528D02*
D03*
X689370D02*
D03*
X640158D02*
D03*
X561417D02*
D03*
X512205D02*
D03*
X423565D02*
D03*
X462935D02*
D03*
X472835D02*
D03*
X482620D02*
D03*
X492520D02*
D03*
X502305D02*
D03*
X521990D02*
D03*
X531890D02*
D03*
X541675D02*
D03*
X551575D02*
D03*
X571260D02*
D03*
X581045D02*
D03*
X590945D02*
D03*
X600730D02*
D03*
X610630D02*
D03*
X620415D02*
D03*
X630315D02*
D03*
X650000D02*
D03*
X659785D02*
D03*
X669685D02*
D03*
X709250Y843500D02*
D03*
X719300Y846150D02*
D03*
X739550Y845800D02*
D03*
X758210Y849854D02*
D03*
X768110D02*
D03*
X777895D02*
D03*
X787795D02*
D03*
X797580D02*
D03*
X807480D02*
D03*
X817265D02*
D03*
X836950D02*
D03*
X846850D02*
D03*
X856635D02*
D03*
X866535D02*
D03*
X1033900Y848350D02*
D03*
X994500Y844300D02*
D03*
X974746Y849854D02*
D03*
X964961D02*
D03*
X955061D02*
D03*
X945276D02*
D03*
X925591D02*
D03*
X915691D02*
D03*
X905906D02*
D03*
X896006D02*
D03*
X886700Y852900D02*
D03*
X876320Y849854D02*
D03*
X689370Y859696D02*
D03*
X422500Y861750D02*
D03*
X610630Y859696D02*
D03*
X758210D02*
D03*
X856635D02*
D03*
X1033801Y859696D02*
D03*
X991300Y862700D02*
D03*
X984646Y869539D02*
D03*
X935433D02*
D03*
X827165D02*
D03*
X748425D02*
D03*
X699213D02*
D03*
X679528D02*
D03*
X689370D02*
D03*
X640158D02*
D03*
X561417D02*
D03*
X512205D02*
D03*
X423565D02*
D03*
X432500Y873400D02*
D03*
X462935Y869539D02*
D03*
X472835D02*
D03*
X482620D02*
D03*
X492520D02*
D03*
X502305D02*
D03*
X521990D02*
D03*
X531890D02*
D03*
X541675D02*
D03*
X551575D02*
D03*
X571260D02*
D03*
X581045D02*
D03*
X590945D02*
D03*
X600730D02*
D03*
X610630D02*
D03*
X620415D02*
D03*
X630315D02*
D03*
X650000D02*
D03*
X659785D02*
D03*
X669685D02*
D03*
X709055D02*
D03*
X716700Y871750D02*
D03*
X758210Y869539D02*
D03*
X768110D02*
D03*
X777895D02*
D03*
X787795D02*
D03*
X797580D02*
D03*
X807480D02*
D03*
X817265D02*
D03*
X836950D02*
D03*
X846850D02*
D03*
X856635D02*
D03*
X866535D02*
D03*
X1033801D02*
D03*
X1024350Y874250D02*
D03*
X1004331Y869539D02*
D03*
X994431Y869539D02*
D03*
X974746D02*
D03*
X964961D02*
D03*
X955061D02*
D03*
X945276D02*
D03*
X925591D02*
D03*
X915691D02*
D03*
X905906D02*
D03*
X896006D02*
D03*
X886220D02*
D03*
X876320D02*
D03*
X699950Y875650D02*
D03*
X689434Y879368D02*
D03*
X610694D02*
D03*
X710050Y875650D02*
D03*
X719650Y875900D02*
D03*
X1033865Y879368D02*
D03*
X915755D02*
D03*
X428450Y824150D02*
D03*
X425050Y816400D02*
D03*
X433800Y816350D02*
D03*
X420000Y824000D02*
D03*
X417298Y873408D02*
D03*
X417298Y853830D02*
D03*
X417176Y843739D02*
D03*
Y833918D02*
D03*
X417176Y824214D02*
D03*
X417176Y814160D02*
D03*
Y804457D02*
D03*
Y794801D02*
D03*
Y784793D02*
D03*
Y774878D02*
D03*
Y764801D02*
D03*
Y755191D02*
D03*
Y745277D02*
D03*
Y735667D02*
D03*
Y725683D02*
D03*
Y715863D02*
D03*
Y705692D02*
D03*
Y696292D02*
D03*
Y686426D02*
D03*
Y666643D02*
D03*
Y656823D02*
D03*
Y646769D02*
D03*
Y637252D02*
D03*
Y627408D02*
D03*
Y617612D02*
D03*
Y607628D02*
D03*
Y597924D02*
D03*
Y588076D02*
D03*
X417176Y578365D02*
D03*
X417175Y676441D02*
D03*
X417298Y863566D02*
D03*
X860650Y636350D02*
D03*
X1024016Y780956D02*
D03*
X1014116D02*
D03*
X964961D02*
D03*
X935433D02*
D03*
X925591D02*
D03*
X915691D02*
D03*
X905906D02*
D03*
X896006D02*
D03*
X886220D02*
D03*
X876320D02*
D03*
X866535D02*
D03*
X856635D02*
D03*
X846850D02*
D03*
X836950D02*
D03*
X827165D02*
D03*
X817265D02*
D03*
X807480D02*
D03*
X797580D02*
D03*
X787795D02*
D03*
X777895D02*
D03*
X748425D02*
D03*
X728740D02*
D03*
X709055D02*
D03*
X699213D02*
D03*
X679528D02*
D03*
X669685D02*
D03*
X659785D02*
D03*
X640150Y780150D02*
D03*
X629950Y784050D02*
D03*
X600730Y780956D02*
D03*
X590945D02*
D03*
X581045D02*
D03*
X571260D02*
D03*
X561417D02*
D03*
X551575D02*
D03*
X541675D02*
D03*
X512205D02*
D03*
X502305D02*
D03*
X462935D02*
D03*
X453150D02*
D03*
X443250D02*
D03*
X433465D02*
D03*
X423565D02*
D03*
X621450Y785050D02*
D03*
X679200Y676150D02*
D03*
X532400Y794950D02*
D03*
X483500Y807050D02*
D03*
X493500D02*
D03*
X483500Y815250D02*
D03*
X493500D02*
D03*
X621295Y669278D02*
D03*
X631295Y669278D02*
D03*
X621295Y677478D02*
D03*
X631295D02*
D03*
X818146Y669278D02*
D03*
X828146Y669278D02*
D03*
X818146Y677478D02*
D03*
X828146D02*
D03*
X955941Y807050D02*
D03*
X965941Y807050D02*
D03*
X955941Y815250D02*
D03*
X965941D02*
D03*
X631000Y767200D02*
D03*
X669658Y701813D02*
D03*
X660000Y690450D02*
D03*
X669842D02*
D03*
X679685D02*
D03*
X639550Y763250D02*
D03*
X1024016Y584106D02*
D03*
X1014116D02*
D03*
X1004331D02*
D03*
X994431D02*
D03*
X984646D02*
D03*
X974746D02*
D03*
X964961D02*
D03*
X955061D02*
D03*
X945276D02*
D03*
X935433D02*
D03*
X925591D02*
D03*
X915691D02*
D03*
X905906D02*
D03*
X896006D02*
D03*
X886220D02*
D03*
X876320D02*
D03*
X866535D02*
D03*
X856635D02*
D03*
X846850D02*
D03*
X836950D02*
D03*
X827165D02*
D03*
X817265D02*
D03*
X807480D02*
D03*
X797580D02*
D03*
X787795D02*
D03*
X777895D02*
D03*
X768110D02*
D03*
X758210D02*
D03*
X718840D02*
D03*
X709050Y582900D02*
D03*
X699213Y584106D02*
D03*
X689370D02*
D03*
X679528D02*
D03*
X669685D02*
D03*
X659785D02*
D03*
X650000D02*
D03*
X640158D02*
D03*
X630315D02*
D03*
X620415D02*
D03*
X600730D02*
D03*
X590945D02*
D03*
X581045D02*
D03*
X571260D02*
D03*
X561417D02*
D03*
X551575D02*
D03*
X541675D02*
D03*
X531890D02*
D03*
X521990D02*
D03*
X512205D02*
D03*
X502305D02*
D03*
X492520D02*
D03*
X482620D02*
D03*
X472835D02*
D03*
X462935D02*
D03*
X453150D02*
D03*
X443250D02*
D03*
X433464D02*
D03*
X423564D02*
D03*
X757650Y575900D02*
D03*
X767850Y575700D02*
D03*
X757900Y587500D02*
D03*
X749650Y587800D02*
D03*
X738700Y607800D02*
D03*
X700100Y606600D02*
D03*
X729550Y609800D02*
D03*
X709250Y597400D02*
D03*
X926250Y699150D02*
D03*
X797850Y650850D02*
D03*
X807950Y650300D02*
D03*
X420150Y576250D02*
D03*
X422550Y577800D02*
D03*
X1041350Y871500D02*
D03*
Y861658D02*
D03*
Y851815D02*
D03*
Y841972D02*
D03*
Y832130D02*
D03*
Y822287D02*
D03*
Y812445D02*
D03*
Y802602D02*
D03*
Y792760D02*
D03*
Y782917D02*
D03*
Y763232D02*
D03*
X1041350Y753390D02*
D03*
Y743547D02*
D03*
X1041350Y733705D02*
D03*
Y723862D02*
D03*
Y714020D02*
D03*
Y704177D02*
D03*
Y694335D02*
D03*
Y684492D02*
D03*
Y674650D02*
D03*
Y664807D02*
D03*
Y654965D02*
D03*
Y645122D02*
D03*
Y635280D02*
D03*
Y625437D02*
D03*
Y615594D02*
D03*
Y605752D02*
D03*
Y595910D02*
D03*
Y586067D02*
D03*
Y576224D02*
D03*
X987500Y863100D02*
D03*
X989200Y873300D02*
D03*
X523500Y647100D02*
D03*
Y657350D02*
D03*
X523300Y637150D02*
D03*
X472900Y646900D02*
D03*
X473050Y636900D02*
D03*
X523200Y677050D02*
D03*
X523050Y668050D02*
D03*
X876950Y726700D02*
D03*
X905200Y744650D02*
D03*
X995100Y794050D02*
D03*
X846823Y652601D02*
D03*
X837150Y650950D02*
D03*
X995200Y638200D02*
D03*
X995550Y648150D02*
D03*
X944950Y646900D02*
D03*
X944650Y636800D02*
D03*
X995100Y667800D02*
D03*
X994950Y657700D02*
D03*
X995350Y677700D02*
D03*
X885731Y685819D02*
D03*
X661450Y657200D02*
D03*
X808350Y636300D02*
D03*
X1041800Y772800D02*
D03*
X739300Y873850D02*
D03*
X699700Y843800D02*
D03*
X1034500Y875200D02*
D03*
X1037550Y863250D02*
D03*
X1037650Y872750D02*
D03*
X777868Y632916D02*
D03*
X443750Y874300D02*
D03*
X432450Y843150D02*
D03*
X453350Y873950D02*
D03*
X522500Y807050D02*
D03*
X1024080Y879368D02*
D03*
X1014180D02*
D03*
X1004395D02*
D03*
X994495D02*
D03*
X984710D02*
D03*
X974810D02*
D03*
X965025D02*
D03*
X955125D02*
D03*
X945340D02*
D03*
X935497D02*
D03*
X925655D02*
D03*
X905970D02*
D03*
X896070D02*
D03*
X886285D02*
D03*
X876385D02*
D03*
X866600D02*
D03*
X856700D02*
D03*
X846914D02*
D03*
X837014D02*
D03*
X827229D02*
D03*
X817330D02*
D03*
X807545D02*
D03*
X797645D02*
D03*
X787859D02*
D03*
X777959D02*
D03*
X768174D02*
D03*
X758274D02*
D03*
X748489D02*
D03*
X738589D02*
D03*
X728804D02*
D03*
X679592D02*
D03*
X669749D02*
D03*
X659849D02*
D03*
X650064D02*
D03*
X640222D02*
D03*
X630379D02*
D03*
X620479D02*
D03*
X600794D02*
D03*
X591009D02*
D03*
X581109D02*
D03*
X571324D02*
D03*
X561482D02*
D03*
X551639D02*
D03*
X541739D02*
D03*
X531954D02*
D03*
X522054D02*
D03*
X512269D02*
D03*
X502369D02*
D03*
X492584D02*
D03*
X482684D02*
D03*
X472899D02*
D03*
X462999D02*
D03*
X453214D02*
D03*
X443314D02*
D03*
X433529D02*
D03*
X423629D02*
D03*
X702350Y292189D02*
D03*
X688550Y489339D02*
D03*
X699850Y489839D02*
D03*
X778750Y470339D02*
D03*
X679300Y331839D02*
D03*
X680339Y325200D02*
D03*
X700250Y323889D02*
D03*
X739300Y442539D02*
D03*
X729300Y442439D02*
D03*
X749400Y441539D02*
D03*
X778300Y449689D02*
D03*
X778750Y452439D02*
D03*
X768400Y449839D02*
D03*
X769100Y452639D02*
D03*
X758500Y449839D02*
D03*
X759000Y452839D02*
D03*
X749500Y452589D02*
D03*
X738800Y449889D02*
D03*
X718850D02*
D03*
X719850Y452739D02*
D03*
X690300Y449739D02*
D03*
X699250Y449639D02*
D03*
X700000Y452839D02*
D03*
X709800Y451739D02*
D03*
X788700Y470589D02*
D03*
X641150Y334039D02*
D03*
X757250Y361089D02*
D03*
X760050D02*
D03*
X778850Y354489D02*
D03*
X700350Y304089D02*
D03*
X788050Y333250D02*
D03*
X788400Y322900D02*
D03*
X786850Y312350D02*
D03*
X778250Y402239D02*
D03*
X787050Y400589D02*
D03*
X789350Y410489D02*
D03*
X776850Y410439D02*
D03*
X779550Y410489D02*
D03*
X786800Y410389D02*
D03*
X749950Y401239D02*
D03*
X758750Y410589D02*
D03*
X886800Y698450D02*
D03*
X867600Y725750D02*
D03*
X621300Y796900D02*
D03*
X759300Y499200D02*
D03*
X493300Y716650D02*
D03*
X867700Y716200D02*
D03*
X876950Y816050D02*
D03*
X690400Y844000D02*
D03*
X906750Y619900D02*
D03*
X857500Y501800D02*
D03*
X827080Y514805D02*
D03*
X866450Y485278D02*
D03*
X856608D02*
D03*
X817238Y426223D02*
D03*
X886650Y657600D02*
D03*
X877200Y354450D02*
D03*
X777650Y351350D02*
D03*
X684700Y340589D02*
D03*
X768900Y344378D02*
D03*
X894850Y675950D02*
D03*
X896000Y656500D02*
D03*
X905250Y627200D02*
D03*
X875750Y361550D02*
D03*
X640800Y433039D02*
D03*
X473900Y432900D02*
D03*
X571700Y695550D02*
D03*
X867350Y747750D02*
D03*
X995500Y747550D02*
D03*
X995100Y551000D02*
D03*
X680150Y550700D02*
D03*
X689300Y853000D02*
D03*
X983600Y853600D02*
D03*
X995400Y548300D02*
D03*
X678400Y548350D02*
D03*
X689800Y856050D02*
D03*
X985300Y856150D02*
D03*
X983550Y548250D02*
D03*
X679800Y542450D02*
D03*
X679850Y546200D02*
D03*
X1013600Y823750D02*
D03*
X493350Y637250D02*
D03*
X513221Y636900D02*
D03*
X512450Y647600D02*
D03*
X493250Y647350D02*
D03*
X1004850Y519400D02*
D03*
X866508Y721498D02*
D03*
X876293D02*
D03*
X1005650Y725300D02*
D03*
X1014850Y706700D02*
D03*
X885600Y705350D02*
D03*
X887500Y707300D02*
D03*
X542650Y698250D02*
D03*
X542250Y669200D02*
D03*
X471300Y666250D02*
D03*
X462900Y666450D02*
D03*
X532400Y715500D02*
D03*
X661000Y577550D02*
D03*
X650400Y577650D02*
D03*
X640950D02*
D03*
X630800Y577550D02*
D03*
X660850Y580500D02*
D03*
X650700D02*
D03*
X640950Y580450D02*
D03*
X630700D02*
D03*
X601300Y580600D02*
D03*
X601050Y577300D02*
D03*
X611300Y580500D02*
D03*
Y577600D02*
D03*
X621350Y580600D02*
D03*
Y577600D02*
D03*
X670500Y580600D02*
D03*
X670300Y577500D02*
D03*
X680300Y580900D02*
D03*
X680200Y577500D02*
D03*
X601500Y561100D02*
D03*
Y558200D02*
D03*
X680700Y561200D02*
D03*
X680500Y558700D02*
D03*
X611450Y561000D02*
D03*
X611000Y558400D02*
D03*
X621450Y561100D02*
D03*
X620800Y558400D02*
D03*
X631350Y561350D02*
D03*
X630800Y558700D02*
D03*
X641250Y561200D02*
D03*
X640350Y558500D02*
D03*
X651300Y561000D02*
D03*
X650350Y558250D02*
D03*
X660700Y561000D02*
D03*
X660050Y558450D02*
D03*
X670600Y560900D02*
D03*
X669650Y558450D02*
D03*
X689300Y597100D02*
D03*
X704650Y598000D02*
D03*
X621150Y620300D02*
D03*
X621000Y616900D02*
D03*
X631050Y620000D02*
D03*
X630850Y616800D02*
D03*
X650750Y620050D02*
D03*
Y616900D02*
D03*
X660700Y620250D02*
D03*
X660600Y616800D02*
D03*
X700350Y590800D02*
D03*
X699850Y580950D02*
D03*
X699350Y578450D02*
D03*
X789600Y312500D02*
D03*
X778000Y785550D02*
D03*
X787150Y784900D02*
D03*
X788900Y787150D02*
D03*
X837400Y738550D02*
D03*
X837350Y734950D02*
D03*
X828100Y738200D02*
D03*
X827600Y735050D02*
D03*
X857550Y745050D02*
D03*
X768700Y609750D02*
D03*
X1014150Y608150D02*
D03*
X680200Y757350D02*
D03*
X670500Y757850D02*
D03*
X669650Y755050D02*
D03*
X641050Y756100D02*
D03*
X789100Y725600D02*
D03*
X768400Y726050D02*
D03*
X779150Y725850D02*
D03*
X758600Y726200D02*
D03*
X748300Y725500D02*
D03*
X749250Y657100D02*
D03*
X759000Y638850D02*
D03*
X788400Y648600D02*
D03*
Y627400D02*
D03*
X650650Y294950D02*
D03*
X621450Y302000D02*
D03*
X631250Y305300D02*
D03*
X630350Y301800D02*
D03*
X621550Y305100D02*
D03*
X719100Y587850D02*
D03*
X719700Y590350D02*
D03*
X719650Y580150D02*
D03*
X729250Y589700D02*
D03*
X729600Y579250D02*
D03*
X700000Y569300D02*
D03*
X680300Y568650D02*
D03*
X690300Y568850D02*
D03*
X670550Y569200D02*
D03*
X734400Y568150D02*
D03*
X725850Y567600D02*
D03*
X707650Y567850D02*
D03*
X727150Y587500D02*
D03*
X777868Y534490D02*
D03*
X483400Y726700D02*
D03*
X493400Y726850D02*
D03*
X513050Y727300D02*
D03*
X523300Y727350D02*
D03*
X482700Y627700D02*
D03*
X522850Y627400D02*
D03*
X945900Y627800D02*
D03*
X936050Y628550D02*
D03*
X975300Y637600D02*
D03*
X975500Y647650D02*
D03*
X955450Y647500D02*
D03*
X955550Y637300D02*
D03*
X935750Y638400D02*
D03*
X994850Y627950D02*
D03*
X945700Y736250D02*
D03*
X956200Y736300D02*
D03*
X964750Y735550D02*
D03*
X975750Y736200D02*
D03*
X986000Y736100D02*
D03*
X994650Y736300D02*
D03*
X955700Y697250D02*
D03*
X945800Y697150D02*
D03*
X975500Y677100D02*
D03*
X955700Y677150D02*
D03*
X975050Y667100D02*
D03*
X955800Y667350D02*
D03*
X974350Y657100D02*
D03*
X956500Y657000D02*
D03*
X651000Y649150D02*
D03*
X680150Y646650D02*
D03*
X670550Y620200D02*
D03*
X670400Y617150D02*
D03*
X543200Y509500D02*
D03*
X581600Y687700D02*
D03*
X876600Y371450D02*
D03*
X877200Y511400D02*
D03*
X453900Y285150D02*
D03*
X442950Y292500D02*
D03*
X434100Y284350D02*
D03*
X434400Y273800D02*
D03*
X453850Y273550D02*
D03*
X442650Y272300D02*
D03*
X453000Y282400D02*
D03*
X444050Y284750D02*
D03*
X432950Y282150D02*
D03*
X1024363Y285322D02*
D03*
X1013413Y292672D02*
D03*
X1004563Y284522D02*
D03*
X1004863Y273972D02*
D03*
X1024313Y273722D02*
D03*
X1013113Y272472D02*
D03*
X1023463Y282572D02*
D03*
X1014513Y284922D02*
D03*
X1003413Y282322D02*
D03*
X1005950Y863750D02*
D03*
X1014950Y866150D02*
D03*
X1014250Y862950D02*
D03*
X1024250Y863600D02*
D03*
X1024850Y856000D02*
D03*
X1023950Y853150D02*
D03*
X1024600Y846100D02*
D03*
X1014950Y846350D02*
D03*
X1014150Y843350D02*
D03*
X1005250Y846150D02*
D03*
X729500Y866200D02*
D03*
X739500Y866000D02*
D03*
X739850Y863150D02*
D03*
X719700Y865950D02*
D03*
X718000Y863350D02*
D03*
X739150Y855800D02*
D03*
X729650Y846100D02*
D03*
X719700Y855300D02*
D03*
X433200Y853100D02*
D03*
X434350Y856050D02*
D03*
X434500Y863300D02*
D03*
X444050Y866150D02*
D03*
X443350Y862950D02*
D03*
X453850Y855900D02*
D03*
X452850Y852950D02*
D03*
X453850Y845750D02*
D03*
X444150Y845800D02*
D03*
X443150Y843050D02*
D03*
X729350Y285900D02*
D03*
X739500Y284200D02*
D03*
X719350Y276200D02*
D03*
X718550Y272300D02*
D03*
X729300Y265200D02*
D03*
X739500Y275150D02*
D03*
X493350Y521739D02*
D03*
X642000Y342350D02*
D03*
X572300Y343950D02*
D03*
X523600Y519850D02*
D03*
X867650Y521350D02*
D03*
X965900Y521550D02*
D03*
X503800Y479750D02*
D03*
X541700Y479650D02*
D03*
X837400Y383200D02*
D03*
X571850Y470450D02*
D03*
X551250Y477700D02*
D03*
X641850Y381750D02*
D03*
X867150Y383600D02*
D03*
X978150Y479950D02*
D03*
X1004850Y490150D02*
D03*
X1005200Y383650D02*
D03*
X1005450Y373500D02*
D03*
X866050Y379850D02*
D03*
X965750Y837100D02*
D03*
X877500Y834650D02*
D03*
X975750Y835950D02*
D03*
X847350Y853400D02*
D03*
X984646Y859696D02*
D03*
X974746Y859696D02*
D03*
X964961Y859696D02*
D03*
X955061D02*
D03*
X945276D02*
D03*
X935433D02*
D03*
X925591D02*
D03*
X915691D02*
D03*
X905906D02*
D03*
X896006D02*
D03*
X886220D02*
D03*
X876320D02*
D03*
X866535D02*
D03*
X846850D02*
D03*
X836950D02*
D03*
X827165D02*
D03*
X817265D02*
D03*
X807480D02*
D03*
X797580D02*
D03*
X787795D02*
D03*
X777895D02*
D03*
X768110D02*
D03*
X748425D02*
D03*
X709055D02*
D03*
X699213D02*
D03*
X679528D02*
D03*
X669685D02*
D03*
X659785D02*
D03*
X650000D02*
D03*
X640158D02*
D03*
X630315D02*
D03*
X620415D02*
D03*
X600730D02*
D03*
X590945D02*
D03*
X581045D02*
D03*
X571260D02*
D03*
X561417D02*
D03*
X551575D02*
D03*
X541675D02*
D03*
X531890D02*
D03*
X521990D02*
D03*
X512205D02*
D03*
X502305D02*
D03*
X492520D02*
D03*
X482620D02*
D03*
X472835D02*
D03*
X462935D02*
D03*
X1005650Y696850D02*
D03*
X1013700Y794500D02*
D03*
X976604Y794813D02*
D03*
X838750Y696550D02*
D03*
X1004800Y804950D02*
D03*
X838200Y658550D02*
D03*
X572600Y657050D02*
D03*
X641600Y656600D02*
D03*
X493550Y836750D02*
D03*
X442750Y833600D02*
D03*
Y656700D02*
D03*
X541550Y725850D02*
D03*
X591900Y776700D02*
D03*
X473200Y774950D02*
D03*
X847800Y658300D02*
D03*
X866550Y656800D02*
D03*
X865850Y341700D02*
D03*
X896700Y343000D02*
D03*
X660850Y391450D02*
D03*
X592250Y332500D02*
D03*
X472950Y459850D02*
D03*
X609800Y449650D02*
D03*
X611300Y492400D02*
D03*
X611400Y481850D02*
D03*
X581950Y481500D02*
D03*
D245*
X963789Y811005D02*
G03*
X963789Y811005I-2953J0D01*
G01*
X629143Y673233D02*
G03*
X629143Y673233I-2953J0D01*
G01*
X491348Y811005D02*
G03*
X491348Y811005I-2953J0D01*
G01*
X825994Y358272D02*
G03*
X825994Y358272I-2953J0D01*
G01*
X963789Y496044D02*
G03*
X963789Y496044I-2953J0D01*
G01*
X629143Y358272D02*
G03*
X629143Y358272I-2953J0D01*
G01*
X491348Y496044D02*
G03*
X491348Y496044I-2953J0D01*
G01*
X825994Y673233D02*
G03*
X825994Y673233I-2953J0D01*
G01*
D246*
X944334Y806084D02*
D03*
Y800178D02*
D03*
X977405Y804115D02*
D03*
Y810021D02*
D03*
Y815926D02*
D03*
Y821832D02*
D03*
X944334Y823800D02*
D03*
Y817895D02*
D03*
Y811989D02*
D03*
Y802147D02*
D03*
Y804115D02*
D03*
Y808052D02*
D03*
Y810021D02*
D03*
Y813958D02*
D03*
Y815926D02*
D03*
Y819863D02*
D03*
Y821832D02*
D03*
X977405Y823800D02*
D03*
Y819863D02*
D03*
Y817895D02*
D03*
Y813958D02*
D03*
Y811989D02*
D03*
Y808052D02*
D03*
Y806084D02*
D03*
Y802147D02*
D03*
Y800178D02*
D03*
X642759Y660438D02*
D03*
Y662406D02*
D03*
Y664375D02*
D03*
Y668312D02*
D03*
Y670280D02*
D03*
Y674217D02*
D03*
Y676186D02*
D03*
Y680123D02*
D03*
Y682091D02*
D03*
Y686028D02*
D03*
X609689Y684060D02*
D03*
Y682091D02*
D03*
Y678154D02*
D03*
Y676186D02*
D03*
Y672249D02*
D03*
Y670280D02*
D03*
Y666343D02*
D03*
Y664375D02*
D03*
Y674217D02*
D03*
Y680123D02*
D03*
Y686028D02*
D03*
X642759Y684060D02*
D03*
Y678154D02*
D03*
Y672249D02*
D03*
Y666343D02*
D03*
X609689Y662406D02*
D03*
Y668312D02*
D03*
X471893Y806083D02*
D03*
Y800178D02*
D03*
X504964Y804115D02*
D03*
Y810021D02*
D03*
Y815926D02*
D03*
Y821832D02*
D03*
X471893Y823800D02*
D03*
Y817894D02*
D03*
Y811989D02*
D03*
Y802147D02*
D03*
Y804115D02*
D03*
Y808052D02*
D03*
Y810021D02*
D03*
Y813958D02*
D03*
Y815926D02*
D03*
Y819863D02*
D03*
Y821832D02*
D03*
X504964Y823800D02*
D03*
Y819863D02*
D03*
Y817894D02*
D03*
Y813958D02*
D03*
Y811989D02*
D03*
Y808052D02*
D03*
Y806083D02*
D03*
Y802147D02*
D03*
Y800178D02*
D03*
X839610Y345477D02*
D03*
Y347446D02*
D03*
Y349414D02*
D03*
Y353351D02*
D03*
Y355320D02*
D03*
Y359257D02*
D03*
Y361225D02*
D03*
Y365162D02*
D03*
Y367131D02*
D03*
Y371068D02*
D03*
X806539Y369099D02*
D03*
Y367131D02*
D03*
Y363194D02*
D03*
Y361225D02*
D03*
Y357288D02*
D03*
Y355320D02*
D03*
Y351383D02*
D03*
Y349414D02*
D03*
Y359257D02*
D03*
Y365162D02*
D03*
Y371068D02*
D03*
X839610Y369099D02*
D03*
Y363194D02*
D03*
Y357288D02*
D03*
Y351383D02*
D03*
X806539Y347446D02*
D03*
Y353351D02*
D03*
X944334Y491123D02*
D03*
Y485217D02*
D03*
X977405Y489154D02*
D03*
Y495060D02*
D03*
Y500965D02*
D03*
Y506871D02*
D03*
X944334Y508839D02*
D03*
Y502934D02*
D03*
Y497028D02*
D03*
Y487186D02*
D03*
Y489154D02*
D03*
Y493091D02*
D03*
Y495060D02*
D03*
Y498997D02*
D03*
Y500965D02*
D03*
Y504902D02*
D03*
Y506871D02*
D03*
X977405Y508839D02*
D03*
Y504902D02*
D03*
Y502934D02*
D03*
Y498997D02*
D03*
Y497028D02*
D03*
Y493091D02*
D03*
Y491123D02*
D03*
Y487186D02*
D03*
Y485217D02*
D03*
X642759Y345477D02*
D03*
Y347446D02*
D03*
Y349414D02*
D03*
Y353351D02*
D03*
Y355320D02*
D03*
Y359257D02*
D03*
Y361225D02*
D03*
Y365162D02*
D03*
Y367131D02*
D03*
Y371068D02*
D03*
X609689Y369099D02*
D03*
Y367131D02*
D03*
Y363194D02*
D03*
Y361225D02*
D03*
Y357288D02*
D03*
Y355320D02*
D03*
Y351383D02*
D03*
Y349414D02*
D03*
Y359257D02*
D03*
Y365162D02*
D03*
Y371068D02*
D03*
X642759Y369099D02*
D03*
Y363194D02*
D03*
Y357288D02*
D03*
Y351383D02*
D03*
X609689Y347446D02*
D03*
Y353351D02*
D03*
X471893Y491123D02*
D03*
Y485217D02*
D03*
X504964Y489154D02*
D03*
Y495060D02*
D03*
Y500965D02*
D03*
Y506871D02*
D03*
X471893Y508839D02*
D03*
Y502934D02*
D03*
Y497028D02*
D03*
Y487186D02*
D03*
Y489154D02*
D03*
Y493091D02*
D03*
Y495060D02*
D03*
Y498997D02*
D03*
Y500965D02*
D03*
Y504902D02*
D03*
Y506871D02*
D03*
X504964Y508839D02*
D03*
Y504902D02*
D03*
Y502934D02*
D03*
Y498997D02*
D03*
Y497028D02*
D03*
Y493091D02*
D03*
Y491123D02*
D03*
Y487186D02*
D03*
Y485217D02*
D03*
X504964Y798209D02*
D03*
X504964Y483249D02*
D03*
X977405Y483249D02*
D03*
X977405Y798210D02*
D03*
X806539Y668312D02*
D03*
Y662406D02*
D03*
X839610Y666343D02*
D03*
Y672249D02*
D03*
Y678154D02*
D03*
Y684060D02*
D03*
X806539Y686028D02*
D03*
Y680123D02*
D03*
Y674217D02*
D03*
Y664375D02*
D03*
Y666343D02*
D03*
Y670280D02*
D03*
Y672249D02*
D03*
Y676186D02*
D03*
Y678154D02*
D03*
Y682091D02*
D03*
Y684060D02*
D03*
X839610Y686028D02*
D03*
Y682091D02*
D03*
Y680123D02*
D03*
Y676186D02*
D03*
Y674217D02*
D03*
Y670280D02*
D03*
Y668312D02*
D03*
Y664375D02*
D03*
Y662406D02*
D03*
Y660438D02*
D03*
D247*
X953946Y794469D02*
D03*
X959852D02*
D03*
X965757D02*
D03*
X971663D02*
D03*
X963789Y827573D02*
D03*
X957883D02*
D03*
X951978D02*
D03*
X948041D02*
D03*
X950010D02*
D03*
X953946D02*
D03*
X955915D02*
D03*
X959852D02*
D03*
X961821D02*
D03*
X965757D02*
D03*
X967726D02*
D03*
X971663D02*
D03*
X973631D02*
D03*
X973631Y794469D02*
D03*
X969695D02*
D03*
X967726D02*
D03*
X963789D02*
D03*
X961821D02*
D03*
X957883D02*
D03*
X955915D02*
D03*
X951978D02*
D03*
X950010D02*
D03*
X948041D02*
D03*
X613395Y656698D02*
D03*
X615364D02*
D03*
X617332D02*
D03*
X621269D02*
D03*
X623238D02*
D03*
X627175D02*
D03*
X629143D02*
D03*
X633080D02*
D03*
X635049D02*
D03*
X638986D02*
D03*
X638986Y689801D02*
D03*
X637017D02*
D03*
X633080D02*
D03*
X631112D02*
D03*
X627175D02*
D03*
X625206D02*
D03*
X621269D02*
D03*
X619301D02*
D03*
X615364D02*
D03*
X613395D02*
D03*
X617332D02*
D03*
X623238D02*
D03*
X629143D02*
D03*
X637017Y656698D02*
D03*
X631112D02*
D03*
X625206D02*
D03*
X619301D02*
D03*
X481505Y794469D02*
D03*
X487411D02*
D03*
X493317D02*
D03*
X499222D02*
D03*
X491348Y827573D02*
D03*
X485442D02*
D03*
X479537D02*
D03*
X475600D02*
D03*
X477568D02*
D03*
X481505D02*
D03*
X483474D02*
D03*
X487411D02*
D03*
X489380D02*
D03*
X493317D02*
D03*
X495285D02*
D03*
X499222D02*
D03*
X501191D02*
D03*
X501191Y794469D02*
D03*
X497254D02*
D03*
X495285D02*
D03*
X491348D02*
D03*
X489380D02*
D03*
X485442D02*
D03*
X483474D02*
D03*
X479537D02*
D03*
X477568D02*
D03*
X475600D02*
D03*
X810246Y341737D02*
D03*
X812214D02*
D03*
X814183D02*
D03*
X818120D02*
D03*
X820088D02*
D03*
X824025D02*
D03*
X825994D02*
D03*
X829931D02*
D03*
X831899D02*
D03*
X835836D02*
D03*
X835836Y374840D02*
D03*
X833868D02*
D03*
X829931D02*
D03*
X827962D02*
D03*
X824025D02*
D03*
X822057D02*
D03*
X818120D02*
D03*
X816151D02*
D03*
X812214D02*
D03*
X810246D02*
D03*
X814183D02*
D03*
X820088D02*
D03*
X825994D02*
D03*
X833868Y341737D02*
D03*
X827962D02*
D03*
X822057D02*
D03*
X816151D02*
D03*
X953946Y479509D02*
D03*
X959852D02*
D03*
X965757D02*
D03*
X971663D02*
D03*
X963789Y512612D02*
D03*
X957883D02*
D03*
X951978D02*
D03*
X948041D02*
D03*
X950010D02*
D03*
X953946D02*
D03*
X955915D02*
D03*
X959852D02*
D03*
X961821D02*
D03*
X965757D02*
D03*
X967726D02*
D03*
X971663D02*
D03*
X973631D02*
D03*
X973631Y479509D02*
D03*
X969695D02*
D03*
X967726D02*
D03*
X963789D02*
D03*
X961821D02*
D03*
X957883D02*
D03*
X955915D02*
D03*
X951978D02*
D03*
X950010D02*
D03*
X948041D02*
D03*
X613395Y341737D02*
D03*
X615364D02*
D03*
X617332D02*
D03*
X621269D02*
D03*
X623238D02*
D03*
X627175D02*
D03*
X629143D02*
D03*
X633080D02*
D03*
X635049D02*
D03*
X638986D02*
D03*
X638986Y374840D02*
D03*
X637017D02*
D03*
X633080D02*
D03*
X631112D02*
D03*
X627175D02*
D03*
X625206D02*
D03*
X621269D02*
D03*
X619301D02*
D03*
X615364D02*
D03*
X613395D02*
D03*
X617332D02*
D03*
X623238D02*
D03*
X629143D02*
D03*
X637017Y341737D02*
D03*
X631112D02*
D03*
X625206D02*
D03*
X619301D02*
D03*
X481505Y479509D02*
D03*
X487411D02*
D03*
X493317D02*
D03*
X499222D02*
D03*
X491348Y512612D02*
D03*
X485442D02*
D03*
X479537D02*
D03*
X475600D02*
D03*
X477568D02*
D03*
X481505D02*
D03*
X483474D02*
D03*
X487411D02*
D03*
X489380D02*
D03*
X493317D02*
D03*
X495285D02*
D03*
X499222D02*
D03*
X501191D02*
D03*
X501191Y479509D02*
D03*
X497254D02*
D03*
X495285D02*
D03*
X491348D02*
D03*
X489380D02*
D03*
X485442D02*
D03*
X483474D02*
D03*
X479537D02*
D03*
X477568D02*
D03*
X475600D02*
D03*
X969695Y512612D02*
D03*
X497254Y512612D02*
D03*
X635049Y374840D02*
D03*
X635049Y689801D02*
D03*
X497254Y827573D02*
D03*
X969695Y827573D02*
D03*
X831899Y374840D02*
D03*
X816151Y656698D02*
D03*
X822057D02*
D03*
X827962D02*
D03*
X833868D02*
D03*
X825994Y689801D02*
D03*
X820088D02*
D03*
X814183D02*
D03*
X810246D02*
D03*
X812214D02*
D03*
X816151D02*
D03*
X818120D02*
D03*
X822057D02*
D03*
X824025D02*
D03*
X827962D02*
D03*
X829931D02*
D03*
X831899D02*
D03*
X833868D02*
D03*
X835836D02*
D03*
X835836Y656698D02*
D03*
X831899D02*
D03*
X829931D02*
D03*
X825994D02*
D03*
X824025D02*
D03*
X820088D02*
D03*
X818120D02*
D03*
X814183D02*
D03*
X812214D02*
D03*
X810246D02*
D03*
D248*
X944334Y798210D02*
D03*
X609689Y660438D02*
D03*
X471893Y798209D02*
D03*
X806539Y345477D02*
D03*
X944334Y483249D02*
D03*
X609689Y345477D02*
D03*
X471893Y483249D02*
D03*
X806539Y660438D02*
D03*
D249*
X518127Y579000D02*
D03*
X949834Y637578D02*
D03*
X981741D02*
D03*
X949834Y647578D02*
D03*
X981741Y717578D02*
D03*
Y687578D02*
D03*
X949834Y727578D02*
D03*
Y677578D02*
D03*
Y667578D02*
D03*
X981741Y707578D02*
D03*
Y697578D02*
D03*
X949834D02*
D03*
X981741Y677578D02*
D03*
Y667578D02*
D03*
Y657578D02*
D03*
X949834D02*
D03*
Y707578D02*
D03*
Y687578D02*
D03*
Y717578D02*
D03*
X981741Y647578D02*
D03*
X518127Y589000D02*
D03*
Y569000D02*
D03*
X948873Y589000D02*
D03*
X517174Y647578D02*
D03*
X485267Y717578D02*
D03*
Y687578D02*
D03*
Y707578D02*
D03*
Y657578D02*
D03*
X517174D02*
D03*
Y667578D02*
D03*
Y677578D02*
D03*
X485267Y697578D02*
D03*
X517174D02*
D03*
Y707578D02*
D03*
X485267Y667578D02*
D03*
Y677578D02*
D03*
Y727578D02*
D03*
X517174Y687578D02*
D03*
Y717578D02*
D03*
X485267Y647578D02*
D03*
X517174Y637578D02*
D03*
X485267D02*
D03*
X948873Y579000D02*
D03*
D250*
X486221D02*
D03*
X981741Y727578D02*
D03*
X486221Y589000D02*
D03*
Y569000D02*
D03*
X980779Y589000D02*
D03*
X517174Y727578D02*
D03*
X980779Y579000D02*
D03*
D251*
X882181Y730378D02*
D03*
Y712465D02*
D03*
Y720142D02*
D03*
X909779Y715024D02*
D03*
Y722701D02*
D03*
X882181Y715024D02*
D03*
X909779Y717583D02*
D03*
Y725260D02*
D03*
X882181Y717583D02*
D03*
X909779Y720142D02*
D03*
Y727819D02*
D03*
Y709905D02*
D03*
Y712465D02*
D03*
X882181Y727819D02*
D03*
X909779Y707346D02*
D03*
X882181Y688378D02*
D03*
Y670465D02*
D03*
Y678142D02*
D03*
X909779Y673024D02*
D03*
Y680701D02*
D03*
X882181Y673024D02*
D03*
X909779Y675583D02*
D03*
Y683260D02*
D03*
X882181Y675583D02*
D03*
X909779Y678142D02*
D03*
Y685819D02*
D03*
Y667906D02*
D03*
Y670465D02*
D03*
X882181Y685819D02*
D03*
X909779Y665346D02*
D03*
D252*
Y730378D02*
D03*
Y688378D02*
D03*
D253*
X882181Y725260D02*
D03*
Y683260D02*
D03*
D254*
Y707346D02*
D03*
Y709905D02*
D03*
Y722701D02*
D03*
Y680701D02*
D03*
Y665346D02*
D03*
Y667906D02*
D03*
D255*
X636330Y797976D02*
D03*
Y807976D02*
D03*
X614330Y817976D02*
D03*
Y812976D02*
D03*
Y807976D02*
D03*
Y802976D02*
D03*
Y792976D02*
D03*
Y787976D02*
D03*
Y782976D02*
D03*
X636330D02*
D03*
Y787976D02*
D03*
Y792976D02*
D03*
Y802976D02*
D03*
Y812976D02*
D03*
Y817976D02*
D03*
X614330Y797976D02*
D03*
X764500Y526346D02*
D03*
Y521346D02*
D03*
Y516346D02*
D03*
Y511346D02*
D03*
X742500D02*
D03*
Y516346D02*
D03*
Y521346D02*
D03*
Y526346D02*
D03*
X912000Y315039D02*
D03*
X624000Y466839D02*
D03*
Y511839D02*
D03*
X575000D02*
D03*
X624000Y506839D02*
D03*
X597000Y496839D02*
D03*
X624000Y461839D02*
D03*
X597000Y501839D02*
D03*
Y506839D02*
D03*
X912000Y320039D02*
D03*
X597000Y511839D02*
D03*
X912000Y325039D02*
D03*
X624000Y456839D02*
D03*
Y501839D02*
D03*
X912000Y330039D02*
D03*
X624000Y451839D02*
D03*
Y496839D02*
D03*
X912000Y335039D02*
D03*
X624000Y446839D02*
D03*
Y491839D02*
D03*
X575000Y496839D02*
D03*
Y491839D02*
D03*
X912000Y300039D02*
D03*
X624000Y481839D02*
D03*
Y526839D02*
D03*
X575000D02*
D03*
Y506839D02*
D03*
Y501839D02*
D03*
X624000Y471839D02*
D03*
Y516839D02*
D03*
X646000Y491839D02*
D03*
X575000Y516839D02*
D03*
X597000Y491839D02*
D03*
X693634Y511346D02*
D03*
Y521346D02*
D03*
X715634Y526346D02*
D03*
Y521346D02*
D03*
Y516346D02*
D03*
Y511346D02*
D03*
X693634Y526346D02*
D03*
Y516346D02*
D03*
X764500Y504693D02*
D03*
Y499693D02*
D03*
Y494693D02*
D03*
Y489693D02*
D03*
X742500D02*
D03*
Y494693D02*
D03*
Y499693D02*
D03*
Y504693D02*
D03*
X693634Y489693D02*
D03*
Y499693D02*
D03*
X715634Y504693D02*
D03*
Y499693D02*
D03*
Y494693D02*
D03*
Y489693D02*
D03*
X693634Y504693D02*
D03*
Y494693D02*
D03*
X742500Y438118D02*
D03*
Y433118D02*
D03*
Y428118D02*
D03*
Y423118D02*
D03*
X764500D02*
D03*
Y428118D02*
D03*
Y433118D02*
D03*
Y438118D02*
D03*
X693634Y433118D02*
D03*
Y423118D02*
D03*
X715634Y438118D02*
D03*
Y433118D02*
D03*
Y428118D02*
D03*
Y423118D02*
D03*
X693634Y438118D02*
D03*
Y428118D02*
D03*
X764500Y477488D02*
D03*
Y472488D02*
D03*
Y467488D02*
D03*
Y462488D02*
D03*
X742500D02*
D03*
Y467488D02*
D03*
Y472488D02*
D03*
Y477488D02*
D03*
X693634Y472488D02*
D03*
Y462488D02*
D03*
X715634Y477488D02*
D03*
Y472488D02*
D03*
Y467488D02*
D03*
Y462488D02*
D03*
X693634Y477488D02*
D03*
Y467488D02*
D03*
X742500Y398748D02*
D03*
Y393748D02*
D03*
Y388748D02*
D03*
Y383748D02*
D03*
X764500D02*
D03*
Y388748D02*
D03*
Y393748D02*
D03*
Y398748D02*
D03*
X693634Y383748D02*
D03*
Y388748D02*
D03*
Y393748D02*
D03*
Y398748D02*
D03*
X715634Y393748D02*
D03*
Y388748D02*
D03*
Y383748D02*
D03*
Y398748D02*
D03*
X742500Y359378D02*
D03*
Y354378D02*
D03*
Y349378D02*
D03*
Y344378D02*
D03*
X764500D02*
D03*
Y349378D02*
D03*
Y354378D02*
D03*
Y359378D02*
D03*
X693634Y344378D02*
D03*
Y349378D02*
D03*
Y354378D02*
D03*
Y359378D02*
D03*
X715634Y354378D02*
D03*
Y349378D02*
D03*
Y344378D02*
D03*
Y359378D02*
D03*
X742500Y332173D02*
D03*
Y327173D02*
D03*
Y322173D02*
D03*
Y317173D02*
D03*
X764500D02*
D03*
Y322173D02*
D03*
Y327173D02*
D03*
Y332173D02*
D03*
X715634D02*
D03*
Y317173D02*
D03*
Y322173D02*
D03*
Y327173D02*
D03*
X693634Y332173D02*
D03*
Y327173D02*
D03*
Y322173D02*
D03*
Y317173D02*
D03*
X742500Y310520D02*
D03*
Y305520D02*
D03*
Y300520D02*
D03*
Y295520D02*
D03*
X764500D02*
D03*
Y300520D02*
D03*
Y305520D02*
D03*
Y310520D02*
D03*
X693634Y295520D02*
D03*
Y300520D02*
D03*
Y305520D02*
D03*
Y310520D02*
D03*
X715634Y305520D02*
D03*
Y300520D02*
D03*
Y295520D02*
D03*
Y310520D02*
D03*
X764500Y841307D02*
D03*
Y836307D02*
D03*
Y831307D02*
D03*
Y826307D02*
D03*
X742500D02*
D03*
Y831307D02*
D03*
Y836307D02*
D03*
Y841307D02*
D03*
X764500Y753079D02*
D03*
Y748079D02*
D03*
Y743079D02*
D03*
Y738079D02*
D03*
X742500D02*
D03*
Y743079D02*
D03*
Y748079D02*
D03*
Y753079D02*
D03*
X693634Y743079D02*
D03*
Y753079D02*
D03*
Y782449D02*
D03*
Y792449D02*
D03*
Y809653D02*
D03*
Y819654D02*
D03*
Y831307D02*
D03*
Y841307D02*
D03*
X715634Y738079D02*
D03*
Y743079D02*
D03*
Y748079D02*
D03*
Y753079D02*
D03*
Y777449D02*
D03*
Y782449D02*
D03*
Y787449D02*
D03*
Y792449D02*
D03*
Y804653D02*
D03*
Y809653D02*
D03*
Y814653D02*
D03*
Y819654D02*
D03*
Y826307D02*
D03*
Y831307D02*
D03*
Y836307D02*
D03*
Y841307D02*
D03*
X693634Y632134D02*
D03*
Y637134D02*
D03*
Y642134D02*
D03*
Y647134D02*
D03*
X715634Y642134D02*
D03*
Y637134D02*
D03*
Y632134D02*
D03*
Y647134D02*
D03*
X764500Y625480D02*
D03*
Y620480D02*
D03*
Y615480D02*
D03*
Y610480D02*
D03*
X742500D02*
D03*
Y615480D02*
D03*
Y620480D02*
D03*
Y625480D02*
D03*
X764500Y647134D02*
D03*
Y642134D02*
D03*
Y637134D02*
D03*
Y632134D02*
D03*
X742500D02*
D03*
Y637134D02*
D03*
Y642134D02*
D03*
Y647134D02*
D03*
X764500Y674339D02*
D03*
Y669339D02*
D03*
Y664339D02*
D03*
Y659339D02*
D03*
X742500D02*
D03*
Y664339D02*
D03*
Y669339D02*
D03*
Y674339D02*
D03*
X715634D02*
D03*
Y659339D02*
D03*
Y664339D02*
D03*
Y669339D02*
D03*
X693634Y674339D02*
D03*
Y669339D02*
D03*
Y664339D02*
D03*
Y659339D02*
D03*
X764500Y713709D02*
D03*
Y708709D02*
D03*
Y703709D02*
D03*
Y698709D02*
D03*
X742500D02*
D03*
Y703709D02*
D03*
Y708709D02*
D03*
Y713709D02*
D03*
X715634D02*
D03*
Y698709D02*
D03*
Y703709D02*
D03*
Y708709D02*
D03*
X693634Y713709D02*
D03*
Y708709D02*
D03*
Y703709D02*
D03*
Y698709D02*
D03*
X693634Y836307D02*
D03*
Y826307D02*
D03*
X742500Y819654D02*
D03*
Y814653D02*
D03*
Y809653D02*
D03*
Y804653D02*
D03*
X764500D02*
D03*
Y809653D02*
D03*
Y814653D02*
D03*
Y819654D02*
D03*
X693634Y814653D02*
D03*
Y804653D02*
D03*
Y738079D02*
D03*
Y748079D02*
D03*
X742500Y792449D02*
D03*
Y787449D02*
D03*
Y782449D02*
D03*
Y777449D02*
D03*
X764500D02*
D03*
Y782449D02*
D03*
Y787449D02*
D03*
Y792449D02*
D03*
X693634Y777449D02*
D03*
Y787449D02*
D03*
X646000Y446839D02*
D03*
Y451839D02*
D03*
Y456839D02*
D03*
Y461839D02*
D03*
Y466839D02*
D03*
Y471839D02*
D03*
Y476839D02*
D03*
Y481839D02*
D03*
X624000Y476839D02*
D03*
Y521839D02*
D03*
X646000Y526839D02*
D03*
Y521839D02*
D03*
Y516839D02*
D03*
Y511839D02*
D03*
Y506839D02*
D03*
Y501839D02*
D03*
Y496839D02*
D03*
X575000Y521839D02*
D03*
X597000Y526839D02*
D03*
Y521839D02*
D03*
Y516839D02*
D03*
X912000Y310039D02*
D03*
Y305039D02*
D03*
X890000Y300039D02*
D03*
Y305039D02*
D03*
Y310039D02*
D03*
Y315039D02*
D03*
Y320039D02*
D03*
Y325039D02*
D03*
Y330039D02*
D03*
Y335039D02*
D03*
X624000Y423039D02*
D03*
Y418039D02*
D03*
Y413039D02*
D03*
Y408039D02*
D03*
Y403039D02*
D03*
Y438039D02*
D03*
X646000Y403039D02*
D03*
Y408039D02*
D03*
Y413039D02*
D03*
Y418039D02*
D03*
Y423039D02*
D03*
Y428039D02*
D03*
Y433039D02*
D03*
Y438039D02*
D03*
X624000Y433039D02*
D03*
Y428039D02*
D03*
X715634Y625480D02*
D03*
Y610480D02*
D03*
Y615480D02*
D03*
Y620480D02*
D03*
X693634Y625480D02*
D03*
Y620480D02*
D03*
Y615480D02*
D03*
Y610480D02*
D03*
D256*
X866669Y471987D02*
D03*
X838507D02*
D03*
X834966Y736601D02*
D03*
X863128D02*
D03*
X655766Y303552D02*
D03*
X627604D02*
D03*
X655766Y618513D02*
D03*
X627604D02*
D03*
D257*
X558344Y569000D02*
D03*
X546556D02*
D03*
X526444Y322000D02*
D03*
X797556Y570000D02*
D03*
X809344D02*
D03*
X514656Y322000D02*
D03*
X837656Y807000D02*
D03*
X849444D02*
D03*
D258*
X443937Y854638D02*
D03*
Y280228D02*
D03*
X1015197D02*
D03*
Y854638D02*
D03*
D259*
X729567Y276291D02*
D03*
Y858268D02*
D03*
D260*
X645780Y577795D02*
D03*
Y562205D02*
D03*
D261*
X604700Y648000D02*
D03*
X598800D02*
D03*
X652400Y657700D02*
D03*
X658300D02*
D03*
X522700Y796000D02*
D03*
X516800D02*
D03*
X628535Y827000D02*
D03*
X622635D02*
D03*
X850800Y658000D02*
D03*
X856700D02*
D03*
X899200Y739250D02*
D03*
X893300D02*
D03*
X892800Y698000D02*
D03*
X898700D02*
D03*
X890700Y344000D02*
D03*
X884800D02*
D03*
X851800Y342000D02*
D03*
X857700D02*
D03*
X665200Y400000D02*
D03*
X659300D02*
D03*
X665200Y454039D02*
D03*
X659300D02*
D03*
X665200Y494539D02*
D03*
X659300D02*
D03*
X651300Y343039D02*
D03*
X657200D02*
D03*
X604700Y333039D02*
D03*
X598800D02*
D03*
X517800Y480000D02*
D03*
X523700D02*
D03*
X995200Y796457D02*
D03*
X989300D02*
D03*
Y481890D02*
D03*
X995200D02*
D03*
D262*
X476000Y783250D02*
D03*
Y777350D02*
D03*
X809950Y638800D02*
D03*
Y644700D02*
D03*
X949073Y776204D02*
D03*
Y782104D02*
D03*
X809950Y323839D02*
D03*
Y329739D02*
D03*
X949073Y467143D02*
D03*
Y461243D02*
D03*
X605000Y482300D02*
D03*
Y488200D02*
D03*
X476000Y462389D02*
D03*
Y468289D02*
D03*
M02*
